<?xml version="1.0" encoding="UTF-8"?>
<svg version="1.1" xmlns="http://www.w3.org/2000/svg" width="500" height="500">
<path d="M0 0 C165 0 330 0 500 0 C500 165 500 330 500 500 C335 500 170 500 0 500 C0 335 0 170 0 0 Z " fill="#172C51" transform="translate(0,0)"/>
<path d="M0 0 C165 0 330 0 500 0 C500 165 500 330 500 500 C335 500 170 500 0 500 C0 335 0 170 0 0 Z M245.46484375 16.45703125 C244.38867798 17.25161743 244.38867798 17.25161743 243.29077148 18.06225586 C242.51419189 18.63983643 241.7376123 19.21741699 240.9375 19.8125 C184.991699 60.69190721 119.11828715 85.86458984 53 105 C52.04854608 151.40655495 58.33574624 197.65848236 68 243 C68.17740723 243.85045898 68.35481445 244.70091797 68.53759766 245.57714844 C71.21154245 258.28312726 75.06245798 270.63692539 79 283 C79.55349121 284.75231934 79.55349121 284.75231934 80.11816406 286.54003906 C86.45647224 306.49593012 93.33181711 326.36561449 103 345 C83.31604623 339.38133391 63.77646806 333.36803707 44.40722656 326.7409668 C42.10119822 325.90193733 42.10119822 325.90193733 40 326 C42.62942211 334.17758786 45.75894558 342.11461895 48.94726562 350.08789062 C49.33978516 351.07853516 49.73230469 352.06917969 50.13671875 353.08984375 C50.67365356 354.43357056 50.67365356 354.43357056 51.22143555 355.80444336 C52 358 52 358 52 360 C51.03586182 360.35304199 50.07172363 360.70608398 49.07836914 361.06982422 C45.51058894 362.37838513 41.94632311 363.69629257 38.38305664 365.01708984 C36.83875645 365.58801787 35.29350812 366.15638794 33.74731445 366.72216797 C31.52823202 367.53466946 29.31269381 368.35623323 27.09765625 369.1796875 C26.4028566 369.43185028 25.70805695 369.68401306 24.99220276 369.94381714 C21.30156507 371.118618 21.30156507 371.118618 19 374 C31.14771731 377.7655675 43.31996034 381.42881076 55.5625 384.875 C57.13922485 385.32178101 57.13922485 385.32178101 58.74780273 385.77758789 C63.47911318 387.09903487 68.11933624 388.34924483 73 389 C72.979375 388.01 72.95875 387.02 72.9375 386 C72.99218095 374.00816401 72.99218095 374.00816401 77.25 369.5625 C86.02503511 362.33136694 96.79996487 355.56927309 108 353 C108.33 354.32 108.66 355.64 109 357 C107.97261719 357.4846875 106.94523437 357.969375 105.88671875 358.46875 C97.41645551 362.5379988 89.04016816 366.64594993 82 373 C82 373.66 82 374.32 82 375 C89.24587964 377.06331581 96.49147338 378.91802765 103.8671875 380.4609375 C105.07141357 380.71536621 106.27563965 380.96979492 107.51635742 381.23193359 C109.94358511 381.73975153 112.37345957 382.23509542 114.8059082 382.71728516 C115.93601318 382.95495605 117.06611816 383.19262695 118.23046875 383.4375 C119.24520264 383.64246094 120.25993652 383.84742188 121.30541992 384.05859375 C125.07357002 385.37507348 127.22173269 387.44346537 129 391 C120.09150188 389.75379989 111.37629981 388.07240629 102.625 386 C100.94083984 385.60941406 100.94083984 385.60941406 99.22265625 385.2109375 C90.31420371 383.1284421 90.31420371 383.1284421 85.9609375 381.8125 C82.86883093 380.82358387 82.86883093 380.82358387 79 381 C78.99589111 381.60021973 78.99178223 382.20043945 78.98754883 382.81884766 C78.83095637 396.13546993 77.8002146 409.07411743 75.5625 422.1875 C75.34505127 423.46898926 75.12760254 424.75047852 74.90356445 426.07080078 C73.92759806 431.56863478 72.7662815 436.7020834 71 442 C70.83142517 444.75065232 70.83142517 444.75065232 71 447 C83.70853575 450.85638326 96.50986148 454.16276293 109.4375 457.1875 C110.15371521 457.35540039 110.86993042 457.52330078 111.60784912 457.69628906 C115.76065453 458.66746658 119.9165522 459.62390444 124.07641602 460.56439209 C125.87733243 460.97222114 127.67699681 461.38556795 129.4765625 461.79931641 C139.29426665 463.99290623 149.17800376 465.53680863 159.125 467 C160.01040466 467.13338776 160.89580933 467.26677551 161.80804443 467.40420532 C171.48261406 468.8551637 181.10280187 470.12915877 190.875 470.66796875 C191.65490295 470.71165085 192.43480591 470.75533295 193.23834229 470.80033875 C194.00692566 470.8431044 194.77550903 470.88587006 195.56738281 470.92993164 C211.52665074 471.8206884 223.92068689 474.65237865 237.95605469 482.85205078 C242.95390775 485.65901508 247.30453387 486.54157515 253 486 C256.36935676 484.9939079 259.57535076 483.67966182 262.8125 482.3125 C263.70686768 481.94890381 264.60123535 481.58530762 265.52270508 481.21069336 C269.921105 479.39821669 274.08172357 477.47766261 278.1875 475.0625 C282.24635879 472.94570397 285.96600179 472.67099109 290.45703125 472.5390625 C300.88677221 472.07099018 311.16182265 470.72297984 321.5 469.3125 C322.97315674 469.11317368 322.97315674 469.11317368 324.47607422 468.90982056 C359.89695476 464.0945709 394.68453403 457.08535334 429 447 C428.74605469 445.76507813 428.49210937 444.53015625 428.23046875 443.2578125 C427.30725888 438.73899051 426.41373073 434.21473648 425.53027344 429.68798828 C425.20547336 428.04155693 424.87430969 426.39634537 424.53222656 424.75341797 C421.4550611 409.96418394 421.2799435 395.05508288 421 380 C420.02804687 380.23074219 419.05609375 380.46148437 418.0546875 380.69921875 C409.56515787 382.70893373 401.06801333 384.68401312 392.5625 386.625 C391.66450684 386.83084717 390.76651367 387.03669434 389.84130859 387.2487793 C383.91240723 388.59744868 377.96800616 389.83672417 372 391 C374.75812958 385.5850504 374.75812958 385.5850504 377.8508606 384.12805176 C380.16052391 383.47524836 382.46011843 382.97261916 384.81640625 382.515625 C386.09571266 382.23582794 386.09571266 382.23582794 387.40086365 381.95037842 C390.11707328 381.36051483 392.83877811 380.80403444 395.5625 380.25 C398.28808025 379.67551047 401.01202392 379.09418481 403.73484802 378.5067749 C405.42685987 378.14390019 407.120742 377.78961582 408.81654358 377.44488525 C412.39730319 376.6954518 414.92254344 376.0516377 418 374 C411.14601726 366.56517126 402.18411566 362.80202637 393 359 C392.34 359 391.68 359 391 359 C391.66 357.68 392.32 356.36 393 355 C404.75897954 356.16850237 414.35851307 363.32609269 423 371 C423.57105469 371.42410156 424.14210938 371.84820312 424.73046875 372.28515625 C426.77338392 375.0446632 426.53301016 377.8196214 426.6875 381.1875 C426.78611328 383.09595703 426.78611328 383.09595703 426.88671875 385.04296875 C426.92410156 386.01878906 426.96148437 386.99460937 427 388 C433.01800576 388.49643482 438.19606444 386.67715458 443.875 384.9375 C446.00773909 384.29923381 448.14055399 383.66122091 450.2734375 383.0234375 C451.37268555 382.69182617 452.47193359 382.36021484 453.60449219 382.01855469 C459.22630292 380.33217315 464.8637203 378.69972931 470.5 377.0625 C472.53132327 376.47030336 474.56258016 375.87787894 476.59375 375.28515625 C478.0625 374.85677083 479.53125 374.42838542 481 374 C479.41171059 370.82342118 476.68487654 370.60722863 473.41015625 369.43359375 C472.7504332 369.19463882 472.09071014 368.9556839 471.41099548 368.70948792 C469.29720829 367.94535988 467.18003442 367.19117429 465.0625 366.4375 C462.94931974 365.67821463 460.83686987 364.91693638 458.72471619 364.15480042 C456.80606534 363.4636404 454.88561497 362.777482 452.96508789 362.09155273 C450 361 450 361 448 360 C448.66043669 355.95335843 449.92737213 352.45528135 451.50390625 348.67578125 C451.99697266 347.48275391 452.49003906 346.28972656 452.99804688 345.06054688 C453.51910579 343.81102041 454.04059509 342.56167334 454.5625 341.3125 C455.58876762 338.85192303 456.6100531 336.38945631 457.62890625 333.92578125 C458.3106189 332.29249878 458.3106189 332.29249878 459.00610352 330.6262207 C460.1179839 328.15624547 460.1179839 328.15624547 460 326 C454.19387238 327.05565957 448.78628227 328.72845028 443.25 330.75 C435.82197396 333.45405116 428.31824504 335.68553389 420.70532227 337.80615234 C413.04391148 339.95166016 405.51582597 342.39081925 398 345 C398.25056152 344.47494873 398.50112305 343.94989746 398.75927734 343.40893555 C406.09784006 327.92140648 412.33448705 312.17083636 418 296 C418.3206543 295.09411133 418.64130859 294.18822266 418.97167969 293.25488281 C428.89449986 264.89314708 434.77051505 235.22333623 439.42529297 205.60302734 C439.92850796 202.44820708 440.47653147 199.30546843 441.03515625 196.16015625 C442.39930801 187.98555412 443.18202672 179.74359386 444 171.5 C444.08648804 170.63826172 444.17297607 169.77652344 444.26208496 168.88867188 C445.55130978 155.94044809 446.55022691 142.99326736 447.25 130 C447.29092773 129.24291748 447.33185547 128.48583496 447.37402344 127.70581055 C447.75747664 120.46535848 448.03793485 113.25154663 448 106 C442.84733164 103.65169012 437.77398613 102.02316181 432.3125 100.5625 C395.60227753 90.3282767 360.33754517 76.47179941 326 60 C325.10925781 59.57654297 324.21851563 59.15308594 323.30078125 58.71679688 C298.53245844 46.89470029 274.667078 32.46050487 253.08203125 15.4765625 C249.68888983 13.07016953 248.53667419 14.16260331 245.46484375 16.45703125 Z " fill="#F0F1F2" transform="translate(0,0)"/>
<path d="M0 0 C2.97754987 1.48877493 5.28490784 2.83236087 7.921875 4.765625 C57.60280272 40.68352227 115.57160667 62.79428227 174 80 C176.80652619 153.2035581 161.15331975 237.23977318 126 302 C125.39929688 303.12019531 124.79859375 304.24039062 124.1796875 305.39453125 C122.8031446 307.93953499 121.41240802 310.47478566 120 313 C119.34 313 118.68 313 118 313 C117.94972656 314.175625 117.94972656 314.175625 117.8984375 315.375 C116.58855905 320.66007478 113.68602986 324.54821181 110.625 329 C109.99883789 329.92466064 109.37267578 330.84932129 108.72753906 331.80200195 C92.62896348 355.33870812 92.62896348 355.33870812 87.70263672 356.57788086 C79.53234499 357.84506764 71.35579028 358.78420985 63.125 359.5625 C62.44780914 359.62692291 61.77061829 359.69134583 61.07290649 359.75772095 C40.34197295 361.71607304 19.88904763 362 -1 362 C-1 336.92 -1 311.84 -1 286 C-2.32 286.33 -3.64 286.66 -5 287 C-10.66666667 284.66666667 -10.66666667 284.66666667 -12 282 C-12.99 281.67 -13.98 281.34 -15 281 C-15 280.01 -15 279.02 -15 278 C-19.31184781 280.15592391 -20.30401666 281.61039605 -22 286 C-25.05795502 290.4181493 -28.18435666 293.37061563 -33.0078125 295.8359375 C-36.4850878 297.86775719 -39.48154422 300.52697211 -42.5703125 303.09765625 C-45 305 -45 305 -47.703125 306.609375 C-50.12165332 307.87598805 -50.12165332 307.87598805 -51.625 310.1875 C-52.07875 310.785625 -52.5325 311.38375 -53 312 C-53.99 312 -54.98 312 -56 312 C-56.66 315.63 -57.32 319.26 -58 323 C-58.9075 323.12375 -59.815 323.2475 -60.75 323.375 C-65.10100493 325.55050246 -65.69211632 327.85394618 -67.25390625 332.3125 C-68.25029355 335.90158097 -68.72499082 339.28737606 -69 343 C-70.65 343.66 -72.3 344.32 -74 345 C-74.433125 344.54625 -74.86625 344.0925 -75.3125 343.625 C-77.10798342 341.79975666 -77.10798342 341.79975666 -80 340 C-79.67 339.01 -79.34 338.02 -79 337 C-79.99 336.67 -80.98 336.34 -82 336 C-82.84731243 330.63368795 -82.93535283 326.40426079 -82 321 C-82 319.68 -82 318.36 -82 317 C-82.66 317 -83.32 317 -84 317 C-84.0625 314.3125 -84.0625 314.3125 -83 311 C-78.49309069 307.40376515 -74.69986254 305.98087294 -69 306 C-68.34 305.34 -67.68 304.68 -67 304 C-64.375 303.875 -64.375 303.875 -62 304 C-61.67 303.01 -61.34 302.02 -61 301 C-60.39929688 300.41605469 -59.79859375 299.83210938 -59.1796875 299.23046875 C-56.55866476 296.54838276 -54.89597455 293.57871008 -53.125 290.3125 C-44.25303778 274.41767926 -44.25303778 274.41767926 -40 273 C-39.32843384 271.06381575 -39.32843384 271.06381575 -39 269 C-38.67 268.34 -38.34 267.68 -38 267 C-35.21554985 266.14634032 -32.40528189 265.52662885 -29.56640625 264.87890625 C-26.6822812 264.18149276 -26.6822812 264.18149276 -25 261 C-25 260.01 -25 259.02 -25 258 C-25.95531616 257.46596558 -25.95531616 257.46596558 -26.92993164 256.92114258 C-32.87179009 253.59873885 -38.8116579 250.27280357 -44.74928284 246.94284058 C-48.57018347 244.80028744 -52.3940256 242.663061 -56.21875 240.52734375 C-114.96022695 207.64143223 -114.96022695 207.64143223 -122.578125 183.140625 C-124.59178025 172.92318909 -122.83468641 162.55872562 -119 153 C-118.34 152.67 -117.68 152.34 -117 152 C-116.79246094 152.81082031 -116.58492187 153.62164062 -116.37109375 154.45703125 C-109.54858584 178.97809525 -90.17332192 193.13751918 -68.98974609 205.13647461 C-66.6649103 206.43376776 -64.33370682 207.71874919 -62 209 C-61.36271973 209.35513672 -60.72543945 209.71027344 -60.06884766 210.07617188 C-50.0635898 215.64762075 -39.73537037 220.52989889 -29.390625 225.43359375 C-23.5501187 228.20448113 -17.75967455 231.06442394 -12 234 C-11.67 232.35 -11.34 230.7 -11 229 C-11.85529297 228.5875 -12.71058594 228.175 -13.59179688 227.75 C-47.35670007 211.46069545 -47.35670007 211.46069545 -58 206 C-59.12664062 205.4225 -60.25328125 204.845 -61.4140625 204.25 C-81.70140905 193.60745755 -101.63501604 179.63447019 -111 158 C-113.02789128 148.99756934 -113.42347777 138.35996715 -109 130 C-108.34 129.67 -107.68 129.34 -107 129 C-106.79246094 129.59425781 -106.58492187 130.18851563 -106.37109375 130.80078125 C-96.18042322 158.21752246 -70.8529636 169.82901277 -46.125 181.875 C-44.98401855 182.43477539 -43.84303711 182.99455078 -42.66748047 183.57128906 C-36.2290432 186.66512019 -29.92707414 189.23050978 -23 191 C-20.52214277 187.33708062 -19.51035831 184.3890815 -19 180 C-17.68 179.67 -16.36 179.34 -15 179 C-15.99 176.525 -15.99 176.525 -17 174 C-12.69230769 169.07692308 -12.69230769 169.07692308 -9.1875 168.6875 C-8.1046875 168.8421875 -8.1046875 168.8421875 -7 169 C-7.33 168.01 -7.66 167.02 -8 166 C-7.50757813 165.63132813 -7.01515625 165.26265625 -6.5078125 164.8828125 C-4.35000927 162.18835354 -4.73811643 160.2809853 -4.875 156.875 C-4.97110511 152.93469034 -5.01117012 149.15976066 -4.5 145.25 C-4.37818359 144.18845703 -4.37818359 144.18845703 -4.25390625 143.10546875 C-4.08044217 141.66705126 -3.87856947 140.23184959 -3.65234375 138.80078125 C-3.12792836 133.33732634 -4.53003322 130.82193012 -8 126.5625 C-8.7425 125.73878906 -9.485 124.91507812 -10.25 124.06640625 C-12 122 -12 122 -12 120 C-13.175625 119.814375 -13.175625 119.814375 -14.375 119.625 C-20.47371245 118.57349785 -20.47371245 118.57349785 -23.25 118.0625 C-24.52617187 117.83240234 -24.52617187 117.83240234 -25.828125 117.59765625 C-28 117 -28 117 -30 115 C-34.53700259 113.59800778 -39.33438073 113.05588623 -44.04296875 112.53515625 C-44.74728027 112.45587891 -45.4515918 112.37660156 -46.17724609 112.29492188 C-47.57609323 112.1426577 -48.97621683 112.00160567 -50.37744141 111.87304688 C-54.70730322 111.40886695 -57.35947327 110.29132194 -61 108 C-63.24994735 107.35904196 -65.5239568 106.79794856 -67.8125 106.3125 C-68.97394531 106.06113281 -70.13539063 105.80976563 -71.33203125 105.55078125 C-72.21246094 105.36902344 -73.09289062 105.18726563 -74 105 C-74.53625 106.093125 -75.0725 107.18625 -75.625 108.3125 C-77.75109058 112.08631078 -80.01867803 113.26899045 -84 115 C-84.66 115.99 -85.32 116.98 -86 118 C-92.11111111 121 -92.11111111 121 -96 121 C-95.47569331 113.52862961 -93.48596075 109.14400919 -88.875 103.3125 C-77.95122824 94.52598793 -64.78394053 96.76207154 -51.6875 97.9375 C-50.65560547 98.02451172 -49.62371094 98.11152344 -48.56054688 98.20117188 C-44.3962285 98.56131472 -40.27072358 98.96089548 -36.1328125 99.55859375 C-33.10913003 99.98462382 -30.23831659 100.13353375 -27.1875 100.125 C-26.25292969 100.12757813 -25.31835938 100.13015625 -24.35546875 100.1328125 C-21.97960329 100.15486511 -21.97960329 100.15486511 -20 99 C-16.50296039 98.86549848 -13.37200454 98.92408071 -9.9375 99.625 C-6.3476224 100.08328225 -4.24150398 99.58306008 -1 98 C-0.90332031 97.41089844 -0.80664062 96.82179688 -0.70703125 96.21484375 C0.39131345 92.77417277 3.16550873 91.25504336 6 89.25 C6.83917969 88.63318359 6.83917969 88.63318359 7.6953125 88.00390625 C11.82693106 85 11.82693106 85 13 85 C13.375 88.1875 13.375 88.1875 13 92 C8.95783392 96.42713428 7.09704104 96.98382649 1 98 C0.67 132.98 0.34 167.96 0 204 C1.98 204.66 3.96 205.32 6 206 C7.75611209 206.9038909 9.48608202 207.86022328 11.1875 208.86328125 C12.13367188 209.42080078 13.07984375 209.97832031 14.0546875 210.55273438 C15.51261719 211.42381836 15.51261719 211.42381836 17 212.3125 C17.97195313 212.88162109 18.94390625 213.45074219 19.9453125 214.03710938 C24.00047577 216.44313608 27.90225331 218.76788324 31.44140625 221.8984375 C33.95860005 224.3741815 33.95860005 224.3741815 37.9375 224.3125 C42.47671306 223.40465739 44.87300248 220.67661581 47.64453125 217.125 C49.44080353 214.30894202 50.14903683 212.35332878 50 209 C48.64599355 206.27018168 48.64599355 206.27018168 47 204 C47 203.34 47 202.68 47 202 C46.38125 201.71125 45.7625 201.4225 45.125 201.125 C43 200 43 200 41 198 C40.65625 195.9765625 40.65625 195.9765625 40.5 193.625 C40.27164606 190.21110856 39.569247 188.02202645 38 185 C37.5 181.5625 37.5 181.5625 38 178 C39.43768875 176.8237092 40.88444097 175.65442585 42.3984375 174.578125 C45.72269235 171.30251778 46.91494845 166.44232869 48 162 C47.99226563 160.66388672 47.99226563 160.66388672 47.984375 159.30078125 C48 157 48 157 49.875 154.6875 C52 153 52 153 54 153 C53.9175 152.21625 53.835 151.4325 53.75 150.625 C54.04199982 146.39100258 55.39037884 143.39777659 57.05078125 139.53515625 C57.95062287 137.13187554 58.37688358 135.10452296 58.625 132.5625 C59 129 59 129 61 126 C69.11830317 123.52322954 77.86064494 121.81399499 86.25 123.75 C91.01429803 124.06761987 94.272835 122.68898438 98.64453125 120.91015625 C101 120 101 120 103 120 C100.44123644 112.33727093 100.44123644 112.33727093 94.99023438 106.79663086 C92.56004575 105.76849375 90.11980333 104.85949017 87.625 104 C80.82129495 101.63440409 75.89960408 99.31060484 72 93 C71.66666667 91.33333333 71.33333333 89.66666667 71 88 C68.59047977 86.75285597 68.59047977 86.75285597 66 86 C65.34 85.34 64.68 84.68 64 84 C61.68191636 82.96514123 59.34824702 81.9644586 57 81 C56.34 80.67 55.68 80.34 55 80 C55 79.34 55 78.68 55 78 C53.68 78.33 52.36 78.66 51 79 C51 80.32 51 81.64 51 83 C51.66 83 52.32 83 53 83 C54.5625 85.8125 54.5625 85.8125 56 89 C55.67 89.99 55.34 90.98 55 92 C52.69 91.34 50.38 90.68 48 90 C48 90.66 48 91.32 48 92 C48.845625 92.20625 49.69125 92.4125 50.5625 92.625 C54.76509516 94.30603806 57.93644112 96.66452761 61 100 C61 100.66 61 101.32 61 102 C58.69 101.67 56.38 101.34 54 101 C54 100.34 54 99.68 54 99 C53.28972656 99.01160156 52.57945312 99.02320313 51.84765625 99.03515625 C50.92855469 99.04417969 50.00945312 99.05320312 49.0625 99.0625 C48.14597656 99.07410156 47.22945312 99.08570313 46.28515625 99.09765625 C44 99 44 99 43 98 C43.09478644 95.36432532 43.24857807 92.75434547 43.4375 90.125 C43.8529536 83.39695975 44.16444285 76.67832537 44.25 69.9375 C44.27118896 69.17775879 44.29237793 68.41801758 44.31420898 67.63525391 C44.34959485 61.9573751 43.06305408 57.27199001 41 52 C40.76925781 52.7734375 40.53851563 53.546875 40.30078125 54.34375 C36.02109279 68.01168786 36.02109279 68.01168786 32 72 C28.1875 73 28.1875 73 25 73 C25.59748047 71.948125 25.59748047 71.948125 26.20703125 70.875 C27.84725179 67.93776808 29.43202652 64.97635678 31 62 C31.35191406 61.36835937 31.70382812 60.73671875 32.06640625 60.0859375 C34.3081185 55.34260434 34.27419058 50.52925906 34.3125 45.375 C34.31813965 44.64587402 34.3237793 43.91674805 34.32958984 43.16552734 C34.27015396 38.74611649 33.6479771 35.16261945 32 31 C31.79375 32.134375 31.5875 33.26875 31.375 34.4375 C27.67493675 48.71274404 12.9681703 60.36551988 1 68 C0.67 68 0.34 68 0 68 C0 45.56 0 23.12 0 0 Z " fill="#EFF1F1" transform="translate(252,41)"/>
<path d="M0 0 C2.80976749 1.75498257 5.31903508 3.67622901 7.8828125 5.77734375 C51.97748949 40.73329494 107.18534422 62.10380741 160.0078125 79.83984375 C160.74686829 80.08896515 161.48592407 80.33808655 162.24737549 80.59475708 C171.37652172 83.6628824 180.53569749 86.47510084 189.84461975 88.95124817 C195.34540341 90.42743466 195.34540341 90.42743466 196.4453125 91.52734375 C196.57353926 96.17195174 196.34818007 100.82167415 196.1953125 105.46484375 C196.17297546 106.17285126 196.15063843 106.88085876 196.12762451 107.61032104 C195.32795594 132.00635865 193.06172334 156.38856758 189.4453125 180.52734375 C189.26742188 181.71924316 189.08953125 182.91114258 188.90625 184.13916016 C185.62265613 205.86286995 181.46766744 227.29532074 175.95281982 248.56788635 C175.48532103 250.37287306 175.02200523 252.1789418 174.55908203 253.98510742 C172.15217322 263.21670956 169.40212027 272.29090328 166.3828125 281.33984375 C166.14908936 282.0438028 165.91536621 282.74776184 165.67456055 283.47305298 C160.31686693 299.53596271 154.24209259 315.47237694 146.4453125 330.52734375 C146.99243896 330.34147705 147.53956543 330.15561035 148.10327148 329.96411133 C158.00481392 326.60914576 167.90263262 323.32079087 177.95727539 320.45361328 C184.90611983 318.44750637 191.74458691 316.12245457 198.58007812 313.76171875 C199.43021484 313.47167969 200.28035156 313.18164062 201.15625 312.8828125 C201.91212402 312.62137451 202.66799805 312.35993652 203.44677734 312.09057617 C205.4453125 311.52734375 205.4453125 311.52734375 208.4453125 311.52734375 C205.90159604 319.51247308 202.75904035 327.16765584 199.49804688 334.8828125 C199.10552734 335.82511719 198.71300781 336.76742188 198.30859375 337.73828125 C197.95063721 338.58696777 197.59268066 339.4356543 197.22387695 340.31005859 C196.27966073 342.60743863 196.27966073 342.60743863 196.4453125 345.52734375 C197.30286133 345.85009277 198.16041016 346.1728418 199.04394531 346.50537109 C202.23518813 347.70759898 205.42569322 348.91174557 208.61572266 350.1171875 C209.99466487 350.63781184 211.37389393 351.15767712 212.75341797 351.67675781 C214.74002362 352.4244205 216.7255705 353.17483657 218.7109375 353.92578125 C219.90493164 354.37614746 221.09892578 354.82651367 222.32910156 355.29052734 C224.78568043 356.26553741 227.11360365 357.29083148 229.4453125 358.52734375 C226.84423374 359.89265679 224.33905547 360.95674069 221.5234375 361.7890625 C220.75660645 362.01770996 219.98977539 362.24635742 219.19970703 362.48193359 C218.37325684 362.72379395 217.54680664 362.9656543 216.6953125 363.21484375 C215.39956299 363.59697021 215.39956299 363.59697021 214.07763672 363.98681641 C212.20352725 364.5389648 210.32899733 365.08968765 208.45410156 365.63916016 C205.29831293 366.57073749 202.14903164 367.52241063 199 368.4765625 C196.85687091 369.11882363 194.71364348 369.7607567 192.5703125 370.40234375 C191.55485352 370.71260498 190.53939453 371.02286621 189.49316406 371.3425293 C184.69995759 372.76403216 180.50581036 373.9561995 175.4453125 373.52734375 C175.51105469 372.16802734 175.51105469 372.16802734 175.578125 370.78125 C175.58999209 363.43068308 175.58999209 363.43068308 172.64453125 356.875 C166.16462725 350.84052312 158.24243486 346.622306 150.4453125 342.52734375 C149.70152344 342.13160156 148.95773437 341.73585938 148.19140625 341.328125 C145.75347756 340.21005927 144.09034073 340.12041633 141.4453125 340.52734375 C139.60215579 342.42779045 139.60215579 342.42779045 138.4453125 344.52734375 C137.62740234 344.23730469 137.62740234 344.23730469 136.79296875 343.94140625 C135.66181641 343.55082031 135.66181641 343.55082031 134.5078125 343.15234375 C133.77691406 342.89710938 133.04601562 342.641875 132.29296875 342.37890625 C128.38975438 341.21168988 124.42870937 340.37344223 120.4453125 339.52734375 C120.6812915 339.03032959 120.91727051 338.53331543 121.16040039 338.02124023 C121.49289795 337.32071533 121.82539551 336.62019043 122.16796875 335.8984375 C122.53776855 335.11936035 122.90756836 334.3402832 123.28857422 333.53759766 C124.11338836 331.79713081 124.93658615 330.05589719 125.75830078 328.31396484 C127.55238962 324.51116329 129.35246547 320.71529238 131.21484375 316.9453125 C162.54777562 252.67849603 172.93759155 177.3148424 174.4453125 106.52734375 C173.48681396 106.30167725 172.52831543 106.07601074 171.54077148 105.84350586 C161.35646509 103.39935964 151.4308937 100.43175859 141.5078125 97.08984375 C140.73895721 96.83201111 139.97010193 96.57417847 139.177948 96.30853271 C112.04975019 87.18108714 85.98238543 76.44985374 60.4453125 63.52734375 C59.39601563 63.00253418 58.34671875 62.47772461 57.265625 61.93701172 C39.73613374 53.15275171 23.05030819 43.48934173 7.60571289 31.359375 C2.95914163 27.5234915 2.95914163 27.5234915 -2.5546875 25.52734375 C-5.02605411 26.94090249 -6.94290827 28.30029661 -9.1171875 30.08984375 C-10.46001507 31.1295707 -11.80655822 32.16451179 -13.15625 33.1953125 C-13.87071289 33.74364746 -14.58517578 34.29198242 -15.32128906 34.85693359 C-29.743138 45.64336674 -45.57270015 54.31427464 -61.5546875 62.52734375 C-62.57320801 63.05295898 -63.59172852 63.57857422 -64.64111328 64.12011719 C-145.65912981 105.52734375 -145.65912981 105.52734375 -177.5546875 105.52734375 C-177.28908614 110.50379309 -177.02251454 115.48018928 -176.75512695 120.45654297 C-176.66470507 122.14175079 -176.57452706 123.82697171 -176.48461914 125.51220703 C-176.22307381 130.41289439 -175.9556435 135.31320577 -175.68188477 140.21322632 C-175.56282441 142.3793078 -175.45081572 144.54565029 -175.33984375 146.7121582 C-174.80164751 156.45435107 -173.75591335 166.05512844 -172.4296875 175.71484375 C-172.32342041 176.49793915 -172.21715332 177.28103455 -172.10766602 178.08786011 C-169.60799054 196.364556 -166.28835104 214.46554458 -162.5546875 232.52734375 C-162.35439941 233.50832031 -162.15411133 234.48929688 -161.94775391 235.5 C-155.35865514 266.93334123 -143.01178278 297.88903388 -128.85766602 326.59594727 C-128.31553467 327.69737061 -127.77340332 328.79879395 -127.21484375 329.93359375 C-126.72636963 330.91650391 -126.23789551 331.89941406 -125.73461914 332.91210938 C-124.5546875 335.52734375 -124.5546875 335.52734375 -123.5546875 339.52734375 C-132.4646875 341.50734375 -132.4646875 341.50734375 -141.5546875 343.52734375 C-142.2146875 341.87734375 -142.8746875 340.22734375 -143.5546875 338.52734375 C-157.05795115 342.8069214 -167.5556725 349.52832875 -177.5546875 359.52734375 C-177.79122273 362.05330634 -177.97642442 364.55841582 -178.1171875 367.08984375 C-178.16037109 367.80076172 -178.20355469 368.51167969 -178.24804688 369.24414062 C-178.35440527 371.00496287 -178.45507596 372.76612695 -178.5546875 374.52734375 C-192.40581727 371.38441671 -205.99561208 367.75051698 -219.5546875 363.52734375 C-220.93463137 363.10330508 -222.31482425 362.68007555 -223.6953125 362.2578125 C-226.6500789 361.35283534 -229.60320218 360.44295051 -232.5546875 359.52734375 C-230.95815668 356.33428211 -227.6554296 355.86782202 -224.45703125 354.70703125 C-223.74817276 354.44350861 -223.03931427 354.17998596 -222.30897522 353.90847778 C-220.03912733 353.06639788 -217.76576759 352.23428753 -215.4921875 351.40234375 C-213.95483703 350.83398504 -212.41772432 350.26498278 -210.88085938 349.6953125 C-207.10818942 348.29850067 -203.33234005 346.91062055 -199.5546875 345.52734375 C-201.5971504 338.11644009 -204.25246764 331.10349091 -207.2421875 324.02734375 C-208.06173965 322.08074857 -208.87830792 320.13289352 -209.69140625 318.18359375 C-210.04936279 317.33603516 -210.40731934 316.48847656 -210.77612305 315.61523438 C-211.5546875 313.52734375 -211.5546875 313.52734375 -211.5546875 311.52734375 C-204.82758144 313.21652897 -198.24853741 315.25015956 -191.6796875 317.46484375 C-177.42913871 322.2643805 -163.02085071 326.43225628 -148.5546875 330.52734375 C-149.00457031 329.63660156 -149.45445312 328.74585938 -149.91796875 327.828125 C-161.32517028 304.70550086 -169.2706976 280.19666916 -176.5546875 255.52734375 C-177.04004436 253.92698618 -177.52568033 252.32671321 -178.01171875 250.7265625 C-188.09196795 216.83894274 -192.7924354 180.61238586 -196.5546875 145.52734375 C-196.65765137 144.59631836 -196.76061523 143.66529297 -196.86669922 142.70605469 C-198.73881949 125.29799799 -198.7798098 108.01068794 -198.5546875 90.52734375 C-197.63248413 90.2502356 -197.63248413 90.2502356 -196.69165039 89.9675293 C-132.62229758 70.64633072 -66.40776427 47.59542541 -12.64453125 6.5546875 C-12.00918457 6.07805664 -11.37383789 5.60142578 -10.71923828 5.11035156 C-9.51870154 4.2057552 -8.32988339 3.28530706 -7.15576172 2.34667969 C-3.24113615 -0.59965975 -3.24113615 -0.59965975 0 0 Z " fill="#2AB058" transform="translate(251.5546875,14.47265625)"/>
<path d="M0 0 C0.375 3.1875 0.375 3.1875 0 7 C-4.04216608 11.42713428 -5.90295896 11.98382649 -12 13 C-12.33 47.98 -12.66 82.96 -13 119 C-11.02 119.66 -9.04 120.32 -7 121 C-5.24388791 121.9038909 -3.51391798 122.86022328 -1.8125 123.86328125 C-0.86632812 124.42080078 0.07984375 124.97832031 1.0546875 125.55273438 C2.51261719 126.42381836 2.51261719 126.42381836 4 127.3125 C4.97195313 127.88162109 5.94390625 128.45074219 6.9453125 129.03710938 C10.99357706 131.43904291 14.92145045 133.78388039 18.5 136.85546875 C20.87923796 139.1695539 20.87923796 139.1695539 24 140 C25.18911543 141.12116597 26.36939506 142.25362556 27.49609375 143.4375 C28.56493642 144.54798589 29.66508728 145.62870395 30.78515625 146.6875 C46.34611484 161.53692371 55.87610266 179.54640032 56.47119141 201.16357422 C56.5696213 212.34954754 55.55054546 222.36421426 52 233 C49.80989199 229.71483799 49.65616308 228.16621401 49.25 224.3125 C46.52925019 205.6203257 37.0308481 190.3817686 24 177 C23.35417969 176.30390625 22.70835937 175.6078125 22.04296875 174.890625 C16.90369892 169.48968155 11.12157179 165.23108639 5 161 C4.01 161.66 3.02 162.32 2 163 C3.25649262 166.76947787 4.62245611 167.35574572 7.875 169.5625 C24.68165965 181.48629096 39.27618773 197.73609791 43.59765625 218.49609375 C45.46048593 234.71898909 44.45403037 250.85337919 38 266 C37.67 266 37.34 266 37 266 C36.81824219 264.88882812 36.63648438 263.77765625 36.44921875 262.6328125 C35.10030165 254.58364053 33.68020046 246.73646517 31 239 C30.34 239 29.68 239 29 239 C28.814375 239.86625 28.62875 240.7325 28.4375 241.625 C26.22672361 246.81551847 22.43470841 249.59043197 17.625 252.375 C11.85087663 253.74979128 6.98440233 253.95231404 1.75 250.875 C-2.95034291 247.56318154 -6.93803813 243.8514099 -8 238 C-8.48131932 232.77650177 -8.67828999 228.40875612 -6.375 223.625 C-0.59289321 217.23425039 4.46197934 214.36045384 13 213 C6.91739522 205.80600571 0.42497339 199.78247928 -7 194 C-8.65 192.68 -10.3 191.36 -12 190 C-12.33 218.71 -12.66 247.42 -13 277 C-13.33 277 -13.66 277 -14 277 C-14 251.92 -14 226.84 -14 201 C-15.32 201.33 -16.64 201.66 -18 202 C-23.66666667 199.66666667 -23.66666667 199.66666667 -25 197 C-25.99 196.67 -26.98 196.34 -28 196 C-28 195.01 -28 194.02 -28 193 C-32.31184781 195.15592391 -33.30401666 196.61039605 -35 201 C-38.05795502 205.4181493 -41.18435666 208.37061563 -46.0078125 210.8359375 C-49.4850878 212.86775719 -52.48154422 215.52697211 -55.5703125 218.09765625 C-58 220 -58 220 -60.703125 221.609375 C-63.12165332 222.87598805 -63.12165332 222.87598805 -64.625 225.1875 C-65.07875 225.785625 -65.5325 226.38375 -66 227 C-66.99 227 -67.98 227 -69 227 C-69.66 230.63 -70.32 234.26 -71 238 C-71.9075 238.12375 -72.815 238.2475 -73.75 238.375 C-78.10100493 240.55050246 -78.69211632 242.85394618 -80.25390625 247.3125 C-81.25029355 250.90158097 -81.72499082 254.28737606 -82 258 C-83.65 258.66 -85.3 259.32 -87 260 C-87.433125 259.54625 -87.86625 259.0925 -88.3125 258.625 C-90.10798342 256.79975666 -90.10798342 256.79975666 -93 255 C-92.67 254.01 -92.34 253.02 -92 252 C-92.99 251.67 -93.98 251.34 -95 251 C-95.84731243 245.63368795 -95.93535283 241.40426079 -95 236 C-95 234.68 -95 233.36 -95 232 C-95.66 232 -96.32 232 -97 232 C-97.0625 229.3125 -97.0625 229.3125 -96 226 C-91.49309069 222.40376515 -87.69986254 220.98087294 -82 221 C-81.34 220.34 -80.68 219.68 -80 219 C-77.375 218.875 -77.375 218.875 -75 219 C-74.67 218.01 -74.34 217.02 -74 216 C-73.39929688 215.41605469 -72.79859375 214.83210937 -72.1796875 214.23046875 C-69.55866476 211.54838276 -67.89597455 208.57871008 -66.125 205.3125 C-57.25303778 189.41767926 -57.25303778 189.41767926 -53 188 C-52.32843384 186.06381575 -52.32843384 186.06381575 -52 184 C-51.67 183.34 -51.34 182.68 -51 182 C-48.21554985 181.14634032 -45.40528189 180.52662885 -42.56640625 179.87890625 C-39.6822812 179.18149276 -39.6822812 179.18149276 -38 176 C-38 175.01 -38 174.02 -38 173 C-38.95531616 172.46596558 -38.95531616 172.46596558 -39.92993164 171.92114258 C-45.87179009 168.59873885 -51.8116579 165.27280357 -57.74928284 161.94284058 C-61.57018347 159.80028744 -65.3940256 157.663061 -69.21875 155.52734375 C-127.96022695 122.64143223 -127.96022695 122.64143223 -135.578125 98.140625 C-137.59178025 87.92318909 -135.83468641 77.55872562 -132 68 C-131.01 67.505 -131.01 67.505 -130 67 C-129.79246094 67.81082031 -129.58492187 68.62164062 -129.37109375 69.45703125 C-122.54858584 93.97809525 -103.17332192 108.13751918 -81.98974609 120.13647461 C-79.6649103 121.43376776 -77.33370682 122.71874919 -75 124 C-74.36271973 124.35513672 -73.72543945 124.71027344 -73.06884766 125.07617188 C-63.0635898 130.64762075 -52.73537037 135.52989889 -42.390625 140.43359375 C-36.5501187 143.20448113 -30.75967455 146.06442394 -25 149 C-24.67 147.35 -24.34 145.7 -24 144 C-24.85529297 143.5875 -25.71058594 143.175 -26.59179688 142.75 C-60.35670007 126.46069545 -60.35670007 126.46069545 -71 121 C-72.12664062 120.4225 -73.25328125 119.845 -74.4140625 119.25 C-94.70140905 108.60745755 -114.63501604 94.63447019 -124 73 C-126.02789128 63.99756934 -126.42347777 53.35996715 -122 45 C-121.01 44.505 -121.01 44.505 -120 44 C-119.79246094 44.59425781 -119.58492187 45.18851563 -119.37109375 45.80078125 C-109.18042322 73.21752246 -83.8529636 84.82901277 -59.125 96.875 C-57.98401855 97.43477539 -56.84303711 97.99455078 -55.66748047 98.57128906 C-49.2290432 101.66512019 -42.92707414 104.23050978 -36 106 C-33.52214277 102.33708062 -32.51035831 99.3890815 -32 95 C-30.68 94.67 -29.36 94.34 -28 94 C-28.66 92.35 -29.32 90.7 -30 89 C-25.69230769 84.07692308 -25.69230769 84.07692308 -22.1875 83.6875 C-21.465625 83.790625 -20.74375 83.89375 -20 84 C-20.33 83.01 -20.66 82.02 -21 81 C-20.50757813 80.63132812 -20.01515625 80.26265625 -19.5078125 79.8828125 C-17.35000927 77.18835354 -17.73811643 75.2809853 -17.875 71.875 C-17.97110511 67.93469034 -18.01117012 64.15976066 -17.5 60.25 C-17.37818359 59.18845703 -17.37818359 59.18845703 -17.25390625 58.10546875 C-17.08044217 56.66705126 -16.87856947 55.23184959 -16.65234375 53.80078125 C-16.12792836 48.33732634 -17.53003322 45.82193012 -21 41.5625 C-21.7425 40.73878906 -22.485 39.91507813 -23.25 39.06640625 C-25 37 -25 37 -25 35 C-26.175625 34.814375 -26.175625 34.814375 -27.375 34.625 C-33.47371245 33.57349785 -33.47371245 33.57349785 -36.25 33.0625 C-37.52617187 32.83240234 -37.52617187 32.83240234 -38.828125 32.59765625 C-41 32 -41 32 -43 30 C-47.53700259 28.59800778 -52.33438073 28.05588623 -57.04296875 27.53515625 C-58.09943604 27.41624023 -58.09943604 27.41624023 -59.17724609 27.29492188 C-60.57609323 27.1426577 -61.97621683 27.00160567 -63.37744141 26.87304688 C-67.70730322 26.40886695 -70.35947327 25.29132194 -74 23 C-76.24994735 22.35904196 -78.5239568 21.79794856 -80.8125 21.3125 C-81.97394531 21.06113281 -83.13539063 20.80976563 -84.33203125 20.55078125 C-85.21246094 20.36902344 -86.09289062 20.18726563 -87 20 C-87.53625 21.093125 -88.0725 22.18625 -88.625 23.3125 C-90.75109058 27.08631078 -93.01867803 28.26899045 -97 30 C-97.66 30.99 -98.32 31.98 -99 33 C-105.11111111 36 -105.11111111 36 -109 36 C-108.47569331 28.52862961 -106.48596075 24.14400919 -101.875 18.3125 C-90.95122824 9.52598793 -77.78394053 11.76207154 -64.6875 12.9375 C-63.1396582 13.06801758 -63.1396582 13.06801758 -61.56054688 13.20117188 C-57.3962285 13.56131472 -53.27072358 13.96089548 -49.1328125 14.55859375 C-46.10913003 14.98462382 -43.23831659 15.13353375 -40.1875 15.125 C-39.25292969 15.12757813 -38.31835938 15.13015625 -37.35546875 15.1328125 C-34.97960329 15.15486511 -34.97960329 15.15486511 -33 14 C-29.50296039 13.86549848 -26.37200454 13.92408071 -22.9375 14.625 C-19.3476224 15.08328225 -17.24150398 14.58306008 -14 13 C-13.90332031 12.41089844 -13.80664062 11.82179687 -13.70703125 11.21484375 C-12.60868655 7.77417277 -9.83449127 6.25504336 -7 4.25 C-6.16082031 3.63318359 -6.16082031 3.63318359 -5.3046875 3.00390625 C-1.17306894 0 -1.17306894 0 0 0 Z " fill="#65B767" transform="translate(265,126)"/>
<path d="M0 0 C2.554841 1.2774205 2.66171584 2.10738487 3.609375 4.7578125 C5.49669268 10.76918079 5.36555956 16.62756126 5.25 22.875 C5.24484375 23.98230469 5.2396875 25.08960938 5.234375 26.23046875 C5.16880559 33.20541424 4.71806439 40.0625715 4 47 C7.3 47.33 10.6 47.66 14 48 C14 48.66 14 49.32 14 50 C16.31 50.33 18.62 50.66 21 51 C17.52867233 47.20323536 14.05040362 44.65337137 9.57421875 42.11328125 C9.05472656 41.74589844 8.53523438 41.37851563 8 41 C8 40.34 8 39.68 8 39 C10.31 39.33 12.62 39.66 15 40 C14.34 37.36 13.68 34.72 13 32 C12.34 32 11.68 32 11 32 C11 30.68 11 29.36 11 28 C12.32 27.67 13.64 27.34 15 27 C15 27.66 15 28.32 15 29 C15.56847656 29.15855469 16.13695312 29.31710938 16.72265625 29.48046875 C22.71168197 31.29017435 28.83348512 33.28808713 32.14453125 38.9609375 C32.768792 40.29899441 33.35332307 41.65684615 33.8828125 43.03515625 C37.4103417 49.23916739 44.6504138 51.02967166 50.9375 53.35546875 C57.76831024 56.0039057 57.76831024 56.0039057 60 60 C60.556875 60.825 61.11375 61.65 61.6875 62.5 C63 65 63 65 63 69 C55.1372015 72.46414278 48.61769861 74.89168994 40 73 C34.98810465 72.67431727 31.49627765 72.67433915 27 75 C23.75 75.125 23.75 75.125 21 75 C20.90203125 75.67804688 20.8040625 76.35609375 20.703125 77.0546875 C19.74350101 83.02751955 18.27493266 88.23249997 15.8671875 93.77734375 C14.84495384 96.13407214 14.84495384 96.13407214 14.5625 99.375 C14 102 14 102 11.5 103.9375 C8.08625712 106.75383788 8.42641916 108.66473855 8 113 C6.92696571 117.84944953 5.96379178 121.64860212 1.8125 124.625 C-1.37281625 126.77926247 -1.37281625 126.77926247 -1.5 130.5625 C-1.2160495 133.84695642 -1.2160495 133.84695642 0.01171875 135.93359375 C1.1274928 138.26657585 1.22894273 139.9317135 1.3125 142.5 C1.62996366 146.32392466 1.62996366 146.32392466 4.3125 149.125 C5.6428125 150.053125 5.6428125 150.053125 7 151 C9.44161941 154.07294156 10.93329499 156.95495479 11.1875 160.9375 C9.09645394 166.33019772 5.34319059 170.60524369 0.375 173.5625 C-3.14901263 174.21166022 -5.88353188 173.69554163 -8.9375 171.79296875 C-9.618125 171.26316406 -10.29875 170.73335937 -11 170.1875 C-16.42201472 166.22843742 -22.16362704 162.935527 -28 159.625 C-29.41732422 158.82098755 -29.41732422 158.82098755 -30.86328125 158.00073242 C-35.39031871 155.4231995 -35.39031871 155.4231995 -40 153 C-40 118.02 -40 83.04 -40 47 C-37.36 46.01 -34.72 45.02 -32 44 C-29.20025681 42.40913469 -28.24166155 41.7707044 -27.27734375 38.6953125 C-27.16519531 37.84710938 -27.05304688 36.99890625 -26.9375 36.125 C-26.27932088 32.17592529 -25.63139023 29.15766827 -23 26 C-22.01 26 -21.02 26 -20 26 C-20 25.01 -20 24.02 -20 23 C-19.20335937 22.92265625 -18.40671875 22.8453125 -17.5859375 22.765625 C-10.90224118 21.70257526 -10.90224118 21.70257526 -5.9375 17.41015625 C-3.1218476 11.82812536 -1.1791707 6.13168764 0 0 Z " fill="#162B51" transform="translate(292,92)"/>
<path d="M0 0 C0.375 3.1875 0.375 3.1875 0 7 C-4.04216608 11.42713428 -5.90295896 11.98382649 -12 13 C-12.33 47.98 -12.66 82.96 -13 119 C-11.02 119.66 -9.04 120.32 -7 121 C-5.24388791 121.9038909 -3.51391798 122.86022328 -1.8125 123.86328125 C-0.86632812 124.42080078 0.07984375 124.97832031 1.0546875 125.55273438 C2.51261719 126.42381836 2.51261719 126.42381836 4 127.3125 C4.97195313 127.88162109 5.94390625 128.45074219 6.9453125 129.03710938 C10.99357706 131.43904291 14.92145045 133.78388039 18.5 136.85546875 C20.87923796 139.1695539 20.87923796 139.1695539 24 140 C25.18911543 141.12116597 26.36939506 142.25362556 27.49609375 143.4375 C28.56493642 144.54798589 29.66508728 145.62870395 30.78515625 146.6875 C46.34611484 161.53692371 55.87610266 179.54640032 56.47119141 201.16357422 C56.5696213 212.34954754 55.55054546 222.36421426 52 233 C49.80989199 229.71483799 49.65616308 228.16621401 49.25 224.3125 C46.52925019 205.6203257 37.0308481 190.3817686 24 177 C23.35417969 176.30390625 22.70835937 175.6078125 22.04296875 174.890625 C16.90369892 169.48968155 11.12157179 165.23108639 5 161 C4.443125 161.53625 3.88625 162.0725 3.3125 162.625 C2.549375 163.07875 1.78625 163.5325 1 164 C-1.45703125 163.35546875 -1.45703125 163.35546875 -4 162 C-4.78761719 161.58363281 -5.57523437 161.16726563 -6.38671875 160.73828125 C-11.93838609 157.2979441 -13.30621245 155.41219572 -15 149 C-17.86811552 147.40829156 -17.86811552 147.40829156 -20.03955078 146.72485352 C-22.10044489 145.96286166 -23.67068377 145.00039609 -25.4921875 143.77734375 C-30.75696369 140.41808863 -36.35510361 137.83916311 -42 135.1875 C-44.23481045 134.12591621 -46.46918591 133.06341621 -48.703125 132 C-49.78271484 131.48695313 -50.86230469 130.97390625 -51.97460938 130.4453125 C-111.42819271 102.04269683 -111.42819271 102.04269683 -124 73 C-126.02789128 63.99756934 -126.42347777 53.35996715 -122 45 C-121.01 44.505 -121.01 44.505 -120 44 C-119.79246094 44.59425781 -119.58492187 45.18851563 -119.37109375 45.80078125 C-109.18042322 73.21752246 -83.8529636 84.82901277 -59.125 96.875 C-57.98401855 97.43477539 -56.84303711 97.99455078 -55.66748047 98.57128906 C-49.2290432 101.66512019 -42.92707414 104.23050978 -36 106 C-33.52214277 102.33708062 -32.51035831 99.3890815 -32 95 C-30.68 94.67 -29.36 94.34 -28 94 C-28.66 92.35 -29.32 90.7 -30 89 C-25.69230769 84.07692308 -25.69230769 84.07692308 -22.1875 83.6875 C-21.465625 83.790625 -20.74375 83.89375 -20 84 C-20.33 83.01 -20.66 82.02 -21 81 C-20.50757813 80.63132812 -20.01515625 80.26265625 -19.5078125 79.8828125 C-17.35000927 77.18835354 -17.73811643 75.2809853 -17.875 71.875 C-17.97110511 67.93469034 -18.01117012 64.15976066 -17.5 60.25 C-17.37818359 59.18845703 -17.37818359 59.18845703 -17.25390625 58.10546875 C-17.08044217 56.66705126 -16.87856947 55.23184959 -16.65234375 53.80078125 C-16.12792836 48.33732634 -17.53003322 45.82193012 -21 41.5625 C-21.7425 40.73878906 -22.485 39.91507813 -23.25 39.06640625 C-25 37 -25 37 -25 35 C-26.175625 34.814375 -26.175625 34.814375 -27.375 34.625 C-33.47371245 33.57349785 -33.47371245 33.57349785 -36.25 33.0625 C-37.52617187 32.83240234 -37.52617187 32.83240234 -38.828125 32.59765625 C-41 32 -41 32 -43 30 C-47.53700259 28.59800778 -52.33438073 28.05588623 -57.04296875 27.53515625 C-58.09943604 27.41624023 -58.09943604 27.41624023 -59.17724609 27.29492188 C-60.57609323 27.1426577 -61.97621683 27.00160567 -63.37744141 26.87304688 C-67.70730322 26.40886695 -70.35947327 25.29132194 -74 23 C-76.24994735 22.35904196 -78.5239568 21.79794856 -80.8125 21.3125 C-81.97394531 21.06113281 -83.13539063 20.80976563 -84.33203125 20.55078125 C-85.21246094 20.36902344 -86.09289062 20.18726563 -87 20 C-87.53625 21.093125 -88.0725 22.18625 -88.625 23.3125 C-90.75109058 27.08631078 -93.01867803 28.26899045 -97 30 C-97.66 30.99 -98.32 31.98 -99 33 C-105.11111111 36 -105.11111111 36 -109 36 C-108.47569331 28.52862961 -106.48596075 24.14400919 -101.875 18.3125 C-90.95122824 9.52598793 -77.78394053 11.76207154 -64.6875 12.9375 C-63.1396582 13.06801758 -63.1396582 13.06801758 -61.56054688 13.20117188 C-57.3962285 13.56131472 -53.27072358 13.96089548 -49.1328125 14.55859375 C-46.10913003 14.98462382 -43.23831659 15.13353375 -40.1875 15.125 C-39.25292969 15.12757813 -38.31835938 15.13015625 -37.35546875 15.1328125 C-34.97960329 15.15486511 -34.97960329 15.15486511 -33 14 C-29.50296039 13.86549848 -26.37200454 13.92408071 -22.9375 14.625 C-19.3476224 15.08328225 -17.24150398 14.58306008 -14 13 C-13.90332031 12.41089844 -13.80664062 11.82179687 -13.70703125 11.21484375 C-12.60868655 7.77417277 -9.83449127 6.25504336 -7 4.25 C-6.44054687 3.83878906 -5.88109375 3.42757812 -5.3046875 3.00390625 C-1.17306894 0 -1.17306894 0 0 0 Z " fill="#63B866" transform="translate(265,126)"/>
<path d="M0 0 C-2.54371646 7.98512933 -5.68627215 15.64031209 -8.94726562 23.35546875 C-9.33978516 24.29777344 -9.73230469 25.24007813 -10.13671875 26.2109375 C-10.67365356 27.48396729 -10.67365356 27.48396729 -11.22143555 28.78271484 C-12.16565177 31.08009488 -12.16565177 31.08009488 -12 34 C-11.14245117 34.32274902 -10.28490234 34.64549805 -9.40136719 34.97802734 C-6.21012437 36.18025523 -3.01961928 37.38440182 0.17041016 38.58984375 C1.54935237 39.11046809 2.92858143 39.63033337 4.30810547 40.14941406 C6.29471112 40.89707675 8.280258 41.64749282 10.265625 42.3984375 C11.45961914 42.84880371 12.65361328 43.29916992 13.88378906 43.76318359 C16.34036793 44.73819366 18.66829115 45.76348773 21 47 C18.39892124 48.36531304 15.89374297 49.42939694 13.078125 50.26171875 C12.31129395 50.49036621 11.54446289 50.71901367 10.75439453 50.95458984 C9.51471924 51.31738037 9.51471924 51.31738037 8.25 51.6875 C7.38616699 51.94225098 6.52233398 52.19700195 5.63232422 52.45947266 C3.75821475 53.01162105 1.88368483 53.5623439 0.00878906 54.11181641 C-3.14699957 55.04339374 -6.29628086 55.99506688 -9.4453125 56.94921875 C-11.58844159 57.59147988 -13.73166902 58.23341295 -15.875 58.875 C-16.89045898 59.18526123 -17.90591797 59.49552246 -18.95214844 59.81518555 C-23.74535491 61.23668841 -27.93950214 62.42885575 -33 62 C-32.95617187 61.09378906 -32.91234375 60.18757813 -32.8671875 59.25390625 C-32.85532041 51.90333933 -32.85532041 51.90333933 -35.80078125 45.34765625 C-47.49554849 34.45678463 -62.84383072 28.25662627 -78 24 C-75.59295796 21.59295796 -74.06339363 21.32151258 -70.78515625 20.484375 C-69.18063599 20.0663562 -69.18063599 20.0663562 -67.54370117 19.63989258 C-66.39490479 19.34622803 -65.2461084 19.05256348 -64.0625 18.75 C-53.59702517 16.0083404 -43.28008643 12.99374858 -32.99560547 9.64355469 C-30.09088954 8.70682467 -27.17080151 7.82259137 -24.25 6.9375 C-20.80742645 5.88879829 -17.38415392 4.801052 -13.9765625 3.64453125 C-13.29432617 3.4132251 -12.61208984 3.18191895 -11.90917969 2.94360352 C-9.97692607 2.2847542 -8.04698755 1.61912668 -6.1171875 0.953125 C-3 0 -3 0 0 0 Z " fill="#182D52" transform="translate(460,326)"/>
<path d="M0 0 C6.72708425 1.68917975 13.30623317 3.72260321 19.875 5.9375 C27.21616779 8.41234903 34.57642589 10.78166138 42 13 C42.63196289 13.18916992 43.26392578 13.37833984 43.91503906 13.57324219 C54.90485644 16.85591491 65.94073986 19.96032031 77 23 C73.59870371 24.83853854 70.0988199 26.02274193 66.4375 27.25 C56.1457552 30.90122067 47.2395244 35.80207585 39 43 C37.66001953 44.10214844 37.66001953 44.10214844 36.29296875 45.2265625 C33.4273277 48.69267007 33.22471066 51.49192839 33.1875 55.8125 C33.16236328 56.50537109 33.13722656 57.19824219 33.11132812 57.91210938 C33.05286737 59.60747122 33.02346953 61.30379287 33 63 C19.14887023 59.85707296 5.55907542 56.22317323 -8 52 C-9.37994387 51.57596133 -10.76013675 51.1527318 -12.140625 50.73046875 C-15.0953914 49.82549159 -18.04851468 48.91560676 -21 48 C-19.40346918 44.80693836 -16.1007421 44.34047827 -12.90234375 43.1796875 C-12.19348526 42.91616486 -11.48462677 42.65264221 -10.75428772 42.38113403 C-8.48443983 41.53905413 -6.21108009 40.70694378 -3.9375 39.875 C-2.40014953 39.30664129 -0.86303682 38.73763903 0.67382812 38.16796875 C4.44649808 36.77115692 8.22234745 35.3832768 12 34 C9.9575371 26.58909634 7.30221986 19.57614716 4.3125 12.5 C3.49294785 10.55340482 2.67637958 8.60554977 1.86328125 6.65625 C1.50532471 5.80869141 1.14736816 4.96113281 0.77856445 4.08789062 C0 2 0 2 0 0 Z " fill="#182D53" transform="translate(40,326)"/>
<path d="M0 0 C0.375 3.1875 0.375 3.1875 0 7 C-4.04216608 11.42713428 -5.90295896 11.98382649 -12 13 C-12.33 47.65 -12.66 82.3 -13 118 C-19.08639099 115.971203 -23.64499686 114.33489649 -29.0625 111.3125 C-30.18785156 110.68988281 -31.31320313 110.06726563 -32.47265625 109.42578125 C-33.30667969 108.95527344 -34.14070313 108.48476562 -35 108 C-34.29517987 103.51708998 -33.30120196 99.33733986 -32 95 C-30.68 94.67 -29.36 94.34 -28 94 C-28.66 92.35 -29.32 90.7 -30 89 C-25.69230769 84.07692308 -25.69230769 84.07692308 -22.1875 83.6875 C-21.465625 83.790625 -20.74375 83.89375 -20 84 C-20.33 83.01 -20.66 82.02 -21 81 C-20.50757813 80.63132812 -20.01515625 80.26265625 -19.5078125 79.8828125 C-17.35000927 77.18835354 -17.73811643 75.2809853 -17.875 71.875 C-17.97110511 67.93469034 -18.01117012 64.15976066 -17.5 60.25 C-17.37818359 59.18845703 -17.37818359 59.18845703 -17.25390625 58.10546875 C-17.08044217 56.66705126 -16.87856947 55.23184959 -16.65234375 53.80078125 C-16.12792836 48.33732634 -17.53003322 45.82193012 -21 41.5625 C-21.7425 40.73878906 -22.485 39.91507813 -23.25 39.06640625 C-25 37 -25 37 -25 35 C-26.175625 34.814375 -26.175625 34.814375 -27.375 34.625 C-33.47371245 33.57349785 -33.47371245 33.57349785 -36.25 33.0625 C-37.52617187 32.83240234 -37.52617187 32.83240234 -38.828125 32.59765625 C-41 32 -41 32 -43 30 C-47.53700259 28.59800778 -52.33438073 28.05588623 -57.04296875 27.53515625 C-57.74728027 27.45587891 -58.4515918 27.37660156 -59.17724609 27.29492188 C-60.57609323 27.1426577 -61.97621683 27.00160567 -63.37744141 26.87304688 C-67.70730322 26.40886695 -70.35947327 25.29132194 -74 23 C-76.24994735 22.35904196 -78.5239568 21.79794856 -80.8125 21.3125 C-81.97394531 21.06113281 -83.13539063 20.80976563 -84.33203125 20.55078125 C-85.21246094 20.36902344 -86.09289062 20.18726563 -87 20 C-87.53625 21.093125 -88.0725 22.18625 -88.625 23.3125 C-90.75109058 27.08631078 -93.01867803 28.26899045 -97 30 C-97.66 30.99 -98.32 31.98 -99 33 C-105.11111111 36 -105.11111111 36 -109 36 C-108.47569331 28.52862961 -106.48596075 24.14400919 -101.875 18.3125 C-90.95122824 9.52598793 -77.78394053 11.76207154 -64.6875 12.9375 C-63.1396582 13.06801758 -63.1396582 13.06801758 -61.56054688 13.20117188 C-57.3962285 13.56131472 -53.27072358 13.96089548 -49.1328125 14.55859375 C-46.10913003 14.98462382 -43.23831659 15.13353375 -40.1875 15.125 C-39.25292969 15.12757813 -38.31835938 15.13015625 -37.35546875 15.1328125 C-34.97960329 15.15486511 -34.97960329 15.15486511 -33 14 C-29.50296039 13.86549848 -26.37200454 13.92408071 -22.9375 14.625 C-19.3476224 15.08328225 -17.24150398 14.58306008 -14 13 C-13.90332031 12.41089844 -13.80664062 11.82179687 -13.70703125 11.21484375 C-12.60868655 7.77417277 -9.83449127 6.25504336 -7 4.25 C-6.44054687 3.83878906 -5.88109375 3.42757812 -5.3046875 3.00390625 C-1.17306894 0 -1.17306894 0 0 0 Z " fill="#EDEEEF" transform="translate(265,126)"/>
<path d="M0 0 C18.12121212 8.36363636 18.12121212 8.36363636 21.2109375 14.34375 C21.73473099 16.62111302 21.97338569 18.6668123 22 21 C22.04125 22.010625 22.0825 23.02125 22.125 24.0625 C22.08375 24.701875 22.0425 25.34125 22 26 C20.375 27.1875 20.375 27.1875 18 28 C12.40243902 25.80487805 12.40243902 25.80487805 11 23 C9.515 22.505 9.515 22.505 8 22 C8 21.01 8 20.02 8 19 C3.68815219 21.15592391 2.69598334 22.61039605 1 27 C-2.05795502 31.4181493 -5.18435666 34.37061563 -10.0078125 36.8359375 C-13.4850878 38.86775719 -16.48154422 41.52697211 -19.5703125 44.09765625 C-22 46 -22 46 -24.703125 47.609375 C-27.12165332 48.87598805 -27.12165332 48.87598805 -28.625 51.1875 C-29.07875 51.785625 -29.5325 52.38375 -30 53 C-30.99 53 -31.98 53 -33 53 C-33.66 56.63 -34.32 60.26 -35 64 C-35.9075 64.12375 -36.815 64.2475 -37.75 64.375 C-42.10100493 66.55050246 -42.69211632 68.85394618 -44.25390625 73.3125 C-45.25029355 76.90158097 -45.72499082 80.28737606 -46 84 C-48.475 84.99 -48.475 84.99 -51 86 C-51.433125 85.54625 -51.86625 85.0925 -52.3125 84.625 C-54.10798342 82.79975666 -54.10798342 82.79975666 -57 81 C-56.67 80.01 -56.34 79.02 -56 78 C-56.99 77.67 -57.98 77.34 -59 77 C-59.84731243 71.63368795 -59.93535283 67.40426079 -59 62 C-59 60.68 -59 59.36 -59 58 C-59.66 58 -60.32 58 -61 58 C-61.0625 55.3125 -61.0625 55.3125 -60 52 C-55.49309069 48.40376515 -51.69986254 46.98087294 -46 47 C-45.34 46.34 -44.68 45.68 -44 45 C-41.375 44.875 -41.375 44.875 -39 45 C-38.67 44.01 -38.34 43.02 -38 42 C-37.39929688 41.41605469 -36.79859375 40.83210938 -36.1796875 40.23046875 C-33.55866476 37.54838276 -31.89597455 34.57871008 -30.125 31.3125 C-21.25303778 15.41767926 -21.25303778 15.41767926 -17 14 C-16.32843384 12.06381575 -16.32843384 12.06381575 -16 10 C-15.67 9.34 -15.34 8.68 -15 8 C-13.2462157 7.49850466 -11.47049728 7.07243849 -9.6875 6.6875 C-5.73166076 5.69083401 -4.26516411 5.26516411 -1.3125 2.3125 C-0.879375 1.549375 -0.44625 0.78625 0 0 Z " fill="#ECEEEF" transform="translate(229,300)"/>
<path d="M0 0 C0.66 0.33 1.32 0.66 2 1 C2 23.11 2 45.22 2 68 C20.51419237 54.85042486 20.51419237 54.85042486 31.58203125 35.37109375 C31.93681945 32.65188962 31.93681945 32.65188962 32 29 C37.17528559 36.76292838 36.87801612 46.0025298 36 55 C35.15028995 58.68368618 33.8252618 61.70329637 32 65 C31.29423828 66.39798828 31.29423828 66.39798828 30.57421875 67.82421875 C27.73926151 73.07658139 27.73926151 73.07658139 26 75 C23.30859375 75.2734375 23.30859375 75.2734375 21 75 C21 75.99 21 76.98 21 78 C19.515 78.495 19.515 78.495 18 79 C16.97366034 80.5704519 16.97366034 80.5704519 16.0625 82.5 C13.01840238 87.73057021 8.4241004 90.65900399 3.546875 94.01953125 C0.75397994 95.8134126 0.75397994 95.8134126 0 99 C-5.11110911 102.97530708 -10.1159266 101.93170718 -16.171875 101.2265625 C-18.94854521 100.7587686 -18.94854521 100.7587686 -21 102 C-23.67751418 102.09809858 -26.32309717 102.1390397 -29 102.125 C-30.10601562 102.13080078 -30.10601562 102.13080078 -31.234375 102.13671875 C-36.7466804 102.1266598 -36.7466804 102.1266598 -39 101 C-41.71262116 100.7677354 -44.40773126 100.58063765 -47.125 100.4375 C-48.25615234 100.37272461 -48.25615234 100.37272461 -49.41015625 100.30664062 C-51.27321888 100.2005168 -53.13658524 100.09974999 -55 100 C-52.20166725 98.59369704 -49.39009762 97.21817575 -46.5703125 95.85546875 C-32.9852916 89.22570604 -19.81507268 82.02671652 -7 74 C-5.9774411 73.45151901 -4.9548822 72.90303802 -3.90133667 72.3379364 C-0.72700824 70.26591065 -0.72700824 70.26591065 -0.24050903 66.86151123 C-0.23606781 65.6268512 -0.23162659 64.39219116 -0.22705078 63.12011719 C-0.21642105 62.43678314 -0.20579132 61.7534491 -0.19483948 61.04940796 C-0.16680392 58.79781273 -0.18084023 56.54856462 -0.1953125 54.296875 C-0.18406158 52.73315383 -0.17018059 51.16944955 -0.15377808 49.60577393 C-0.11772257 45.49564239 -0.11736851 41.3862544 -0.12445068 37.27600098 C-0.12536323 33.07969846 -0.09251035 28.88367515 -0.0625 24.6875 C-0.00862157 16.45823096 0.00754224 8.22944086 0 0 Z " fill="#5A6F4A" transform="translate(251,40)"/>
<path d="M0 0 C0.67160156 0.11085937 1.34320313 0.22171875 2.03515625 0.3359375 C8.7594431 2.12389816 11.57418711 7.29388041 15 13 C12.30816071 15.88051062 9.76943941 17.89955964 6.30859375 19.77734375 C5.376521 20.28475098 4.44444824 20.7921582 3.48413086 21.31494141 C2.47874268 21.85038574 1.47335449 22.38583008 0.4375 22.9375 C-0.60720459 23.49872559 -1.65190918 24.05995117 -2.72827148 24.63818359 C-14.08323702 30.67614812 -25.6420727 36.30523336 -37.29736328 41.73925781 C-38.92348396 42.49782034 -40.5438159 43.26925489 -42.15185547 44.06542969 C-44.67121117 45.2664153 -46.65589649 46.00109066 -49.46484375 45.9921875 C-53.18358276 44.53677963 -56.29266503 42.39491494 -59.5625 40.125 C-60.5515332 39.45404297 -60.5515332 39.45404297 -61.56054688 38.76953125 C-63.38393692 37.52706045 -65.19349658 36.26684315 -67 35 C-67.81339844 34.44054687 -68.62679687 33.88109375 -69.46484375 33.3046875 C-69.97144531 32.87414062 -70.47804687 32.44359375 -71 32 C-71 31.34 -71 30.68 -71 30 C-70.22213135 29.6690332 -69.4442627 29.33806641 -68.64282227 28.99707031 C-54.70060384 23.04975483 -40.80034673 17.0432281 -27.125 10.5 C-26.11767822 10.02079102 -25.11035645 9.54158203 -24.07250977 9.04785156 C-19.07151834 6.62904366 -14.33418556 4.09412891 -9.74951172 0.94921875 C-6.53506252 -0.79481955 -3.52010097 -0.59011439 0 0 Z " fill="#576C44" transform="translate(232,158)"/>
<path d="M0 0 C2.86328125 0.35546875 2.86328125 0.35546875 6.3125 1.1875 C7.44300781 1.44917969 8.57351562 1.71085938 9.73828125 1.98046875 C13 3 13 3 15.4375 4.546875 C18.76041283 6.43120971 21.95593251 6.72093978 25.6875 7.0625 C27.10838583 7.21455171 28.52896451 7.36950156 29.94921875 7.52734375 C30.98248291 7.64118408 30.98248291 7.64118408 32.03662109 7.75732422 C36.0713205 8.25601748 40.03737529 9.10459922 44 10 C44 10.33 44 10.66 44 11 C42.81664062 11.34933594 41.63328125 11.69867188 40.4140625 12.05859375 C34.13943161 14.15299356 28.29549962 17.13463419 22.38269043 20.06811523 C11.92958643 25.2454111 1.42558109 30.29599091 -9.25 35 C-10.20084473 35.42676025 -11.15168945 35.85352051 -12.13134766 36.29321289 C-13.00065918 36.67082764 -13.8699707 37.04844238 -14.765625 37.4375 C-15.89145996 37.93056641 -15.89145996 37.93056641 -17.04003906 38.43359375 C-19 39 -19 39 -22 38 C-26.09624239 32.16595781 -28.48867056 25.48162346 -27.703125 18.27734375 C-27.47109375 17.52582031 -27.2390625 16.77429688 -27 16 C-24.4375 14.6875 -24.4375 14.6875 -22 14 C-22 14.99 -22 15.98 -22 17 C-20.39026493 16.43221352 -18.78734673 15.8450789 -17.1875 15.25 C-15.84751953 14.76273438 -15.84751953 14.76273438 -14.48046875 14.265625 C-11.73162781 12.86306679 -10.74944046 11.48176437 -9 9 C-6.3125 8.25 -6.3125 8.25 -4 8 C-3.71125 7.05125 -3.4225 6.1025 -3.125 5.125 C-2 2 -2 2 0 0 Z " fill="#596D46" transform="translate(178,145)"/>
<path d="M0 0 C3.88213197 3.88213197 6.3519855 8.21901822 9 13 C9.71349609 14.09441406 9.71349609 14.09441406 10.44140625 15.2109375 C12.83106412 18.89117715 13.74016538 21.65152839 13 26 C10.21568453 31.15613976 6.84689848 34.41838974 1.75 37.25 C-3.0159326 38.5497998 -7.53208082 39.02866757 -12.18359375 37.08984375 C-16.92043894 34.3050444 -21.82585693 30.56006201 -23.609375 25.15234375 C-24.64774823 19.43090724 -24.92078656 13.91240285 -22.375 8.625 C-16.05115274 1.6354846 -9.75721879 -2.66976661 0 0 Z " fill="#182D52" transform="translate(281,341)"/>
<path d="M0 0 C12.91844053 0.0558032 24.93115391 5.15004775 36.25 11 C36.8574707 11.30752197 37.46494141 11.61504395 38.09082031 11.93188477 C42.53277989 14.34325209 44.9007206 17.13937874 48 21 C42.95176979 22.25090931 37.90209432 23.4957554 32.85107422 24.73535156 C31.13811353 25.15659776 29.425537 25.57940969 27.71337891 26.00390625 C18.18853883 28.36424067 8.72922438 30.62717962 -1 32 C-1.02901401 27.41667994 -1.04680348 22.83338349 -1.0625 18.25 C-1.07087891 16.94804687 -1.07925781 15.64609375 -1.08789062 14.3046875 C-1.09111328 13.05429687 -1.09433594 11.80390625 -1.09765625 10.515625 C-1.10289307 9.36352539 -1.10812988 8.21142578 -1.11352539 7.02441406 C-1.01804485 4.48073036 -0.74917261 2.41601687 0 0 Z " fill="#182E52" transform="translate(370,354)"/>
<path d="M0 0 C2.45409801 3.68114701 2.16723151 5.27039848 1.9765625 9.63671875 C1.925 10.93544922 1.8734375 12.23417969 1.8203125 13.57226562 C1.75543549 14.94402118 1.69032837 16.31576587 1.625 17.6875 C1.56674379 19.07092326 1.50944085 20.45438702 1.453125 21.83789062 C1.31147124 25.22577631 1.16003846 28.61294104 1 32 C-10.20418667 29.68001007 -21.38931195 27.27757857 -32.5625 24.8125 C-33.75786377 24.55065918 -34.95322754 24.28881836 -36.18481445 24.01904297 C-37.30073975 23.7717041 -38.41666504 23.52436523 -39.56640625 23.26953125 C-40.56615479 23.04885986 -41.56590332 22.82818848 -42.59594727 22.60083008 C-45 22 -45 22 -47 21 C-43.79132444 12.7900927 -32.02806571 8.71897373 -24.48046875 5.35546875 C-16.91377661 2.40862007 -8.18093065 -0.8812065 0 0 Z " fill="#182E52" transform="translate(129,354)"/>
<path d="M0 0 C2.8100346 1.79363911 4.50940468 3.01880935 6 6 C5.95590091 15.75692422 5.81344165 26.93636228 2 36 C-0.9728699 38.89029018 -2.35595305 39.90799329 -6.5 40.5 C-10.55490482 39.92072788 -12.17060657 38.91261088 -15 36 C-17.15871015 29.52386955 -15.94329819 22.48476891 -15.1875 15.8125 C-15.11748779 15.13550049 -15.04747559 14.45850098 -14.9753418 13.76098633 C-14.42705555 9.30199236 -13.34598093 5.83423033 -11 2 C-7.31502204 -0.45665197 -4.28028214 -0.70086491 0 0 Z " fill="#E7E9EC" transform="translate(194,416)"/>
<path d="M0 0 C0.66 0 1.32 0 2 0 C2.67184618 2.10251861 3.33730968 4.20707763 4 6.3125 C4.37125 7.48425781 4.7425 8.65601563 5.125 9.86328125 C6 13 6 13 6 16 C11.94 16 17.88 16 24 16 C21.01439924 18.98560076 18.69975383 21.01780635 15.25 23.25 C14.45078125 23.77078125 13.6515625 24.2915625 12.828125 24.828125 C12.22484375 25.21484375 11.6215625 25.6015625 11 26 C11.20496094 26.80824219 11.40992188 27.61648437 11.62109375 28.44921875 C11.89050781 29.51785156 12.15992188 30.58648437 12.4375 31.6875 C12.70433594 32.74324219 12.97117187 33.79898438 13.24609375 34.88671875 C13.89897932 37.5828317 14.47941193 40.2757576 15 43 C11.17785687 41.25492351 8.28268897 38.84832642 5.09765625 36.14453125 C3.04782803 34.79208511 3.04782803 34.79208511 0.609375 35.1015625 C-2.54796484 36.18867053 -5.03047182 37.71898735 -7.8125 39.5625 C-8.78832031 40.20316406 -9.76414062 40.84382813 -10.76953125 41.50390625 C-11.50558594 41.99761719 -12.24164063 42.49132812 -13 43 C-11.83348574 37.07136283 -10.24480642 31.61201606 -8 26 C-8.72574219 25.74347656 -9.45148438 25.48695313 -10.19921875 25.22265625 C-13.13786152 23.93981777 -15.3071423 22.42765977 -17.8125 20.4375 C-18.60269531 19.81746094 -19.39289063 19.19742188 -20.20703125 18.55859375 C-21.09455078 17.78708984 -21.09455078 17.78708984 -22 17 C-22 16.67 -22 16.34 -22 16 C-16.06 16 -10.12 16 -4 16 C-3.67 13.69 -3.34 11.38 -3 9 C-2.52801643 7.3394982 -2.01334939 5.68990044 -1.4375 4.0625 C-1.16808594 3.29035156 -0.89867187 2.51820313 -0.62109375 1.72265625 C-0.41613281 1.15417969 -0.21117187 0.58570313 0 0 Z " fill="#30B35D" transform="translate(388,136)"/>
<path d="M0 0 C2.49936244 2.49936244 3.03723753 4.64808008 4.125 8 C4.47820312 9.0725 4.83140625 10.145 5.1953125 11.25 C6 14 6 14 6 16 C11.61 16 17.22 16 23 16 C18.96080655 20.03919345 15.60212178 22.84168113 11 26 C11.42880217 29.57335138 11.92424773 32.78536858 13.125 36.1875 C14 39 14 39 13 43 C9.04 40.03 5.08 37.06 1 34 C-1.0728125 35.3921875 -1.0728125 35.3921875 -3.1875 36.8125 C-6.4111309 38.96328213 -9.64748568 41.05337878 -13 43 C-12.44917413 38.40978444 -11.45745023 34.37235068 -10 30 C-10 28.68 -10 27.36 -10 26 C-11.97694132 24.24958321 -13.83724262 22.79087132 -16 21.3125 C-18.01567008 19.89381329 -20.01229882 18.45823911 -22 17 C-22 16.67 -22 16.34 -22 16 C-16.39 16 -10.78 16 -5 16 C-4.54625 14.288125 -4.0925 12.57625 -3.625 10.8125 C-2.63721296 7.08584888 -1.49480306 3.55503162 0 0 Z " fill="#2FB35C" transform="translate(365,215)"/>
<path d="M0 0 C2.36497439 1.86708505 3.66030715 3.32061431 5 6 C5.16796875 8.0234375 5.16796875 8.0234375 5.1875 10.375 C5.20167969 11.14585937 5.21585937 11.91671875 5.23046875 12.7109375 C4.97801607 15.21834888 4.25193467 16.83261902 3 19 C3.66 19.66 4.32 20.32 5 21 C6.31252706 26.85684246 6.09467739 33.03532452 6 39 C3.36 39 0.72 39 -2 39 C-2.8320582 33.27959989 -3.12036664 27.77759884 -3 22 C-3.99 22 -4.98 22 -6 22 C-5.83628906 22.51046875 -5.67257812 23.0209375 -5.50390625 23.546875 C-4.83301519 26.81291828 -4.9066544 29.9186747 -4.9375 33.25 C-4.94652344 34.51328125 -4.95554687 35.7765625 -4.96484375 37.078125 C-4.97644531 38.04234375 -4.98804688 39.0065625 -5 40 C-7.64 40 -10.28 40 -13 40 C-14.00472532 31.63920602 -14.30795433 23.28752587 -14.5625 14.875 C-14.60581131 13.52342758 -14.64942902 12.17186494 -14.69335938 10.8203125 C-14.79857434 7.54695806 -14.90071479 4.27353875 -15 1 C-13.75734375 0.84144531 -12.5146875 0.68289063 -11.234375 0.51953125 C-10.18588379 0.38575073 -10.18588379 0.38575073 -9.11621094 0.24926758 C-5.98683741 -0.11933999 -3.14417433 -0.30232445 0 0 Z " fill="#E6E8EB" transform="translate(282,419)"/>
<path d="M0 0 C0.33 0 0.66 0 1 0 C1 22.77 1 45.54 1 69 C-6.41461389 65.91057754 -13.17959325 63.0474636 -20 59 C-19.343621 54.51474352 -18.29925791 50.33085971 -17 46 C-15.02 45.505 -15.02 45.505 -13 45 C-13.66 43.35 -14.32 41.7 -15 40 C-10.69230769 35.07692308 -10.69230769 35.07692308 -7.1875 34.6875 C-6.465625 34.790625 -5.74375 34.89375 -5 35 C-5.495 33.515 -5.495 33.515 -6 32 C-5.50757813 31.63132813 -5.01515625 31.26265625 -4.5078125 30.8828125 C-2.35000927 28.18835354 -2.73811643 26.2809853 -2.875 22.875 C-3.05446561 14.79904764 -2.45716685 7.69912279 0 0 Z " fill="#EEEFF0" transform="translate(250,175)"/>
<path d="M0 0 C4.6 2.2 4.6 2.2 6 5 C6.07065617 7.04055005 6.08421976 9.08334257 6.0625 11.125 C6.05347656 12.22070312 6.04445312 13.31640625 6.03515625 14.4453125 C6.02355469 15.28835938 6.01195312 16.13140625 6 17 C3.36 17 0.72 17 -2 17 C-2 14.03 -2 11.06 -2 8 C-2.66 8 -3.32 8 -4 8 C-4.87510383 13.47859123 -5.29024034 18.89857799 -5.5625 24.4375 C-5.60568359 25.26443359 -5.64886719 26.09136719 -5.69335938 26.94335938 C-5.79838033 28.96209549 -5.89958559 30.98102951 -6 33 C-5.01 32.505 -5.01 32.505 -4 32 C-3.53348793 29.87423218 -3.53348793 29.87423218 -3.375 27.4375 C-3.30023438 26.61121094 -3.22546875 25.78492188 -3.1484375 24.93359375 C-3.09945312 24.29550781 -3.05046875 23.65742188 -3 23 C-0.36 23.33 2.28 23.66 5 24 C5.62739631 32.9752527 5.62739631 32.9752527 3.125 37.0625 C-0.14440565 40.04342868 -2.44680308 40.20111899 -6.83203125 40.5234375 C-10.42563305 39.6557931 -11.81209872 37.92098047 -14 35 C-14.62219715 32.07652068 -14.52180328 29.28680842 -14.375 26.3125 C-14.35211914 25.51102539 -14.32923828 24.70955078 -14.30566406 23.88378906 C-14.23031853 21.5871456 -14.11870263 19.29474236 -14 17 C-13.96648437 15.94683594 -13.93296875 14.89367187 -13.8984375 13.80859375 C-13.58447623 8.39689297 -12.52226239 5.16267373 -9 1 C-5.93570224 -0.53214888 -3.3834358 -0.22938548 0 0 Z " fill="#E7E9EB" transform="translate(216,418)"/>
<path d="M0 0 C2.90338833 0.73110684 4.59218481 2.23273079 6.29296875 4.67578125 C7.79956656 7.93439551 7.97165835 10.97419688 8.15625 14.54296875 C5.51625 14.87296875 2.87625 15.20296875 0.15625 15.54296875 C-0.50375 13.23296875 -1.16375 10.92296875 -1.84375 8.54296875 C-2.50375 8.54296875 -3.16375 8.54296875 -3.84375 8.54296875 C-3.37321764 11.4112139 -2.89742185 14.27841456 -2.4140625 17.14453125 C-2.04462217 19.34599077 -1.68463486 21.54906605 -1.3359375 23.75390625 C-1.09230469 25.22730469 -1.09230469 25.22730469 -0.84375 26.73046875 C-0.699375 27.63152344 -0.555 28.53257812 -0.40625 29.4609375 C-0.220625 30.14800781 -0.035 30.83507812 0.15625 31.54296875 C0.81625 31.87296875 1.47625 32.20296875 2.15625 32.54296875 C2.15625 28.91296875 2.15625 25.28296875 2.15625 21.54296875 C4.46625 21.54296875 6.77625 21.54296875 9.15625 21.54296875 C11.25690771 25.74428416 10.68497285 30.9772914 10.15625 35.54296875 C7.98351053 38.62685703 6.63654678 39.2485155 2.99609375 39.97265625 C-1.3544175 40.3358041 -1.3544175 40.3358041 -3.84375 39.54296875 C-8.82917964 34.95170192 -9.83955587 30.81083866 -10.65625 24.23046875 C-10.77677734 23.42673828 -10.89730469 22.62300781 -11.02148438 21.79492188 C-13.04274984 7.43816204 -13.04274984 7.43816204 -9.90625 2.48046875 C-6.35228878 0.2320443 -4.14994716 -0.25591341 0 0 Z " fill="#E9EBED" transform="translate(331.84375,412.45703125)"/>
<path d="M0 0 C3.64217474 0.1054175 5.07758192 0.37374751 8.3125 2.25 C11.05292551 6.90872337 10.60343731 11.15971768 10.1875 16.4375 C7.5475 16.4375 4.9075 16.4375 2.1875 16.4375 C2.1875 13.4675 2.1875 10.4975 2.1875 7.4375 C1.1975 7.7675 0.2075 8.0975 -0.8125 8.4375 C-1.1425 16.3575 -1.4725 24.2775 -1.8125 32.4375 C-0.8225 32.1075 0.1675 31.7775 1.1875 31.4375 C1.5175 28.7975 1.8475 26.1575 2.1875 23.4375 C4.4975 23.4375 6.8075 23.4375 9.1875 23.4375 C9.95490348 33.1749975 9.95490348 33.1749975 7.25 37.625 C3.73567049 39.7049093 1.47497142 40.03103043 -2.53125 40.1015625 C-6.31847711 38.99911625 -7.55593465 37.71657152 -9.8125 34.4375 C-10.50944681 30.11305251 -10.41831489 25.86967395 -10.3125 21.5 C-10.31507813 20.33275391 -10.31765625 19.16550781 -10.3203125 17.96289062 C-10.22873197 9.92669955 -9.92579047 0.25298117 0 0 Z " fill="#E9EAED" transform="translate(234.8125,419.5625)"/>
<path d="M0 0 C3.51363428 0.6502099 5.03347613 1.54704706 7.1953125 4.40625 C7.59385927 7.45303518 7.48884686 10.35349271 7.1953125 13.40625 C4.8853125 13.07625 2.5753125 12.74625 0.1953125 12.40625 C0.1953125 10.75625 0.1953125 9.10625 0.1953125 7.40625 C-0.7946875 7.73625 -1.7846875 8.06625 -2.8046875 8.40625 C-2.18003869 12.17173858 -0.42447227 14.57019072 1.7578125 17.65625 C5.04835907 22.76507797 6.37664031 25.40116695 5.1953125 31.40625 C4.05555638 34.68445943 2.84913697 37.12313715 0.1953125 39.40625 C-3.30711749 40.33419591 -6.28684623 40.22628732 -9.8046875 39.40625 C-12.38106221 37.52109777 -13.40136178 36.21290143 -14.8046875 33.40625 C-14.9375 31.53125 -14.9375 31.53125 -14.9296875 29.40625 C-14.93355469 28.354375 -14.93355469 28.354375 -14.9375 27.28125 C-14.8046875 25.40625 -14.8046875 25.40625 -13.8046875 23.40625 C-11.1646875 23.73625 -8.5246875 24.06625 -5.8046875 24.40625 C-6.1346875 27.04625 -6.4646875 29.68625 -6.8046875 32.40625 C-5.8146875 32.07625 -4.8246875 31.74625 -3.8046875 31.40625 C-3.39125009 26.36379019 -4.30588091 24.11000882 -7.3046875 20.09375 C-10.24276491 15.71345203 -11.79579609 12.66291634 -11.28125 7.35546875 C-9.6961881 0.87230574 -6.1471768 -0.40575424 0 0 Z " fill="#E9EBED" transform="translate(169.8046875,412.59375)"/>
<path d="M0 0 C3.1141654 3.1141654 5.14093244 6.38419394 7.375 10.125 C11.71217092 17.25364795 16.54079044 23.86741183 21.70849609 30.41455078 C22.23781738 31.08728027 22.76713867 31.76000977 23.3125 32.453125 C24.01826172 33.33726074 24.01826172 33.33726074 24.73828125 34.23925781 C26.05855617 36.08171577 27.04073425 37.94973834 28 40 C21.84792853 39.20014562 21.84792853 39.20014562 19.27026367 38.83837891 C15.92576431 38.37028229 12.61925055 37.96985734 9.25 37.703125 C0.79707952 36.89625532 0.79707952 36.89625532 -1.6953125 34.09375 C-2.71474149 32.06914977 -3.45355593 30.19599021 -4 28 C-2.68 28.33 -1.36 28.66 0 29 C0 19.43 0 9.86 0 0 Z " fill="#28AD57" transform="translate(130,357)"/>
<path d="M0 0 C5.28 0 10.56 0 16 0 C16 2.64 16 5.28 16 8 C13.36 8 10.72 8 8 8 C8 10.31 8 12.62 8 15 C10.31 15 12.62 15 15 15 C15 17.31 15 19.62 15 22 C12.69 22 10.38 22 8 22 C8 25.3 8 28.6 8 32 C10.64 32 13.28 32 16 32 C16 34.31 16 36.62 16 39 C10.72 39 5.44 39 0 39 C0 26.13 0 13.26 0 0 Z " fill="#E9EBED" transform="translate(248,420)"/>
<path d="M0 0 C20.46 0 40.92 0 62 0 C59.08532877 2.18600342 57.08319393 3.56019948 53.8828125 4.97265625 C52.72458984 5.48602539 52.72458984 5.48602539 51.54296875 6.00976562 C50.34607422 6.53086914 50.34607422 6.53086914 49.125 7.0625 C48.33480469 7.41376953 47.54460937 7.76503906 46.73046875 8.12695312 C31.4842163 14.83682629 31.4842163 14.83682629 22.94921875 11.64453125 C21.52286817 11.04747351 20.10236206 10.43629426 18.6875 9.8125 C17.57580444 9.33864868 17.57580444 9.33864868 16.44165039 8.85522461 C10.85569101 6.44818725 5.36845282 3.86229549 0 1 C0 0.67 0 0.34 0 0 Z " fill="#2BB059" transform="translate(219,473)"/>
<path d="M0 0 C0.33 0 0.66 0 1 0 C1 8.58 1 17.16 1 26 C2.98 25.67 4.96 25.34 7 25 C6.67 25.969375 6.34 26.93875 6 27.9375 C4.94826637 30.62149574 4.94826637 30.62149574 5 32 C-10.345 34.475 -10.345 34.475 -26 37 C-24.02 34.36 -22.04 31.72 -20 29 C-13.94094907 20.91536854 -8.05955758 12.80522841 -2.72924805 4.21630859 C-1.84263643 2.79616261 -0.9246968 1.39564703 0 0 Z " fill="#2CAF5A" transform="translate(368,360)"/>
<path d="M0 0 C0 2.64 0 5.28 0 8 C-2.31 8 -4.62 8 -7 8 C-6.67 10.31 -6.34 12.62 -6 15 C-2.535 14.505 -2.535 14.505 1 14 C2.35439668 16.70879335 2.06501451 19.00933268 2 22 C-0.31 22 -2.62 22 -5 22 C-4.7834375 23.32064453 -4.7834375 23.32064453 -4.5625 24.66796875 C-4.376875 25.82941406 -4.19125 26.99085938 -4 28.1875 C-3.814375 29.33605469 -3.62875 30.48460937 -3.4375 31.66796875 C-3.06510523 34.50415393 -2.91403979 37.14719564 -3 40 C-5.64 40.33 -8.28 40.66 -11 41 C-11.16435547 39.83210938 -11.16435547 39.83210938 -11.33203125 38.640625 C-12.12847289 33.02020758 -12.93321019 27.40284992 -13.80078125 21.79296875 C-13.93701904 20.90641602 -14.07325684 20.01986328 -14.21362305 19.10644531 C-14.48413492 17.35140921 -14.7576495 15.59683283 -15.03442383 13.84277344 C-15.64627005 9.85928073 -16.18198878 6.04511436 -16 2 C-14.08404518 1.66259915 -12.16720278 1.33023588 -10.25 1 C-9.18265625 0.814375 -8.1153125 0.62875 -7.015625 0.4375 C-4 0 -4 0 0 0 Z " fill="#E7E9EB" transform="translate(316,415)"/>
<path d="M0 0 C2.59882299 1.29941149 2.67461561 2.23441519 3.60546875 4.94140625 C5.19495673 9.99832169 5.41577404 14.67052394 5.3125 19.9375 C5.31572266 20.78634766 5.31894531 21.63519531 5.32226562 22.50976562 C5.26781325 28.73218675 5.26781325 28.73218675 3 31 C3 30.01 3 29.02 3 28 C2.34 28 1.68 28 1 28 C0.62875 27.38125 0.2575 26.7625 -0.125 26.125 C-2.95269814 22.92027545 -5.85768218 22.81488219 -10 22 C-9.4225 21.360625 -8.845 20.72125 -8.25 20.0625 C-3.77821076 13.97589798 -1.59666576 7.31805139 0 0 Z " fill="#5E724D" transform="translate(292,92)"/>
<path d="M0 0 C0.375 3.1875 0.375 3.1875 0 7 C-4.04216608 11.42713428 -5.90295896 11.98382649 -12 13 C-12.33 47.65 -12.66 82.3 -13 118 C-13.33 118 -13.66 118 -14 118 C-14.30447345 104.09196732 -14.532437 90.18445534 -14.67355824 76.27376747 C-14.74130467 69.81365733 -14.83312659 63.35579119 -14.98071289 56.89697266 C-15.12234943 50.65923539 -15.19977098 44.42365072 -15.23340416 38.18442917 C-15.25735871 35.80876144 -15.30414216 33.43320697 -15.37449074 31.05846024 C-15.93209296 11.44912628 -15.93209296 11.44912628 -11.05453491 6.25701904 C-3.76077334 0 -3.76077334 0 0 0 Z " fill="#9BA3B3" transform="translate(265,126)"/>
<path d="M0 0 C5.58507504 2.69319824 10.9400039 5.40473961 16 9 C15.67 10.32 15.34 11.64 15 13 C10.63035031 13 9.40891345 12.32021893 5.8125 10.0625 C4.49185547 9.24458984 4.49185547 9.24458984 3.14453125 8.41015625 C1 7 1 7 0 6 C-0.04080783 4.00041636 -0.04254356 1.99954746 0 0 Z " fill="#182E51" transform="translate(252,276)"/>
<path d="M0 0 C0.99 0.33 1.98 0.66 3 1 C2.50877547 9.13105861 1.64733759 17.01920915 0 25 C-0.99 25 -1.98 25 -3 25 C-3.27025639 17.16256482 -3.55965252 7.11930504 0 0 Z " fill="#263A5D" transform="translate(189,423)"/>
<path d="M0 0 C0.375 3.1875 0.375 3.1875 0 7 C-3.39769025 10.89491321 -4.69140585 11.89446821 -9.875 12.3125 C-10.90625 12.209375 -11.9375 12.10625 -13 12 C-12.71332991 8.81796202 -11.99952206 7.99958558 -9.53125 5.859375 C-8.5309375 5.16328125 -7.530625 4.4671875 -6.5 3.75 C-5.4996875 3.04359375 -4.499375 2.3371875 -3.46875 1.609375 C-1 0 -1 0 0 0 Z " fill="#E6E8E8" transform="translate(265,126)"/>
<path d="M0 0 C3.96 1.98 3.96 1.98 8 4 C8 5.98 8 7.96 8 10 C4.59687262 8.94124926 1.98646769 7.99097846 -1 6 C-1.25 3.4375 -1.25 3.4375 -1 1 C-0.67 0.67 -0.34 0.34 0 0 Z " fill="#EAEEEC" transform="translate(243,271)"/>
<path d="M0 0 C1 2 1 2 0.375 4.0625 C-1 6 -1 6 -3.3125 6.8125 C-6.09708143 7.00677312 -8.30622291 6.69268554 -11 6 C-11 5.67 -11 5.34 -11 5 C-9.9275 4.731875 -8.855 4.46375 -7.75 4.1875 C-4.43491072 3.13772173 -2.56122354 2.25387672 0 0 Z " fill="#5E6F63" transform="translate(264,133)"/>
<path d="M0 0 C0.99 0 1.98 0 3 0 C3 1.98 3 3.96 3 6 C1.68 6.33 0.36 6.66 -1 7 C-1.04254356 5.00045254 -1.04080783 2.99958364 -1 1 C-0.67 0.67 -0.34 0.34 0 0 Z " fill="#334566" transform="translate(164,438)"/>
<path d="M0 0 C0.99 0 1.98 0 3 0 C3 1.98 3 3.96 3 6 C2.01 6.33 1.02 6.66 0 7 C0 4.69 0 2.38 0 0 Z " fill="#24385B" transform="translate(276,427)"/>
<path d="M0 0 C0.99 0 1.98 0 3 0 C3 1.65 3 3.3 3 5 C1.68 4.67 0.36 4.34 -1 4 C-0.67 2.68 -0.34 1.36 0 0 Z " fill="#3E506F" transform="translate(167,420)"/>
<path d="M0 0 C2.0625 0.4375 2.0625 0.4375 4 1 C4 1.66 4 2.32 4 3 C2.02 3.66 0.04 4.32 -2 5 C-1.125 1.125 -1.125 1.125 0 0 Z " fill="#1F3355" transform="translate(178,145)"/>
</svg>
