<?xml version="1.0" encoding="UTF-8"?>
<svg version="1.1" xmlns="http://www.w3.org/2000/svg" width="500" height="500">
<path d="M0 0 C165 0 330 0 500 0 C500 165 500 330 500 500 C335 500 170 500 0 500 C0 335 0 170 0 0 Z " fill="#FEFEFE" transform="translate(0,0)"/>
<path d="M0 0 C1.05727295 0.54043945 2.1145459 1.08087891 3.20385742 1.63769531 C4.4260426 2.25167206 5.64855128 2.86500514 6.87133789 3.4777832 C7.51198181 3.80183136 8.15262573 4.12587952 8.81268311 4.45974731 C25.78702292 13.01281583 43.21251715 20.04860068 60.99682617 26.71582031 C62.32955566 27.22363037 62.32955566 27.22363037 63.68920898 27.74169922 C80.74427654 34.22758318 98.52091405 39.08654447 116.42407227 42.56201172 C121.90936539 43.62835953 121.90936539 43.62835953 122.99682617 44.71582031 C123.09749216 46.59124658 123.12764642 48.47050786 123.12963867 50.34863281 C123.13181396 51.53497314 123.13398926 52.72131348 123.13623047 53.94360352 C123.13147705 55.22968506 123.12672363 56.5157666 123.12182617 57.84082031 C123.11994293 58.4985141 123.11805969 59.15620789 123.11611938 59.83383179 C123.03865835 82.93789944 121.35592527 105.74823522 118.99682617 128.71582031 C118.91319824 129.56789062 118.82957031 130.41996094 118.7434082 131.29785156 C117.55407754 143.31750741 115.02848781 155.06656729 112.57543945 166.87988281 C112.08574242 169.28001815 111.62127399 171.68135452 111.18041992 174.09082031 C104.61031947 209.53181932 88.81984548 235.03183814 63.74682617 260.15332031 C63.03944809 260.86246582 63.03944809 260.86246582 62.31777954 261.5859375 C54.17651254 269.72490355 45.76674161 277.27274904 36.68432617 284.34082031 C35.92249023 284.93403076 35.1606543 285.52724121 34.37573242 286.13842773 C8.71991019 305.89476885 8.71991019 305.89476885 -5.25317383 305.90332031 C-6.29086914 305.91556641 -7.32856445 305.9278125 -8.39770508 305.94042969 C-29.52282159 305.98089926 -48.73653089 286.05126341 -64.00317383 272.71582031 C-64.81657227 272.01457031 -65.6299707 271.31332031 -66.46801758 270.59082031 C-78.25111316 260.23894932 -89.39750115 249.12314752 -99.00317383 236.71582031 C-99.60129883 236.01972656 -100.19942383 235.32363281 -100.81567383 234.60644531 C-139.14987318 189.08458359 -137.55737939 100.50584681 -137.00317383 44.71582031 C-132.3194616 43.33226849 -127.65473825 42.18541722 -122.87817383 41.15332031 C-89.38311193 33.45764216 -57.15624496 20.50852297 -26.07348633 6.06347656 C-25.45352783 5.77611633 -24.83356934 5.4887561 -24.19482422 5.19268799 C-19.77696454 3.12618813 -15.48078962 0.88029806 -11.24487305 -1.53637695 C-7.13915061 -2.90599445 -3.86341015 -1.6520232 0 0 Z " fill="#010101" transform="translate(257.003173828125,97.2841796875)"/>
<path d="M0 0 C2.38141849 1.14101995 4.63132774 2.31040932 6.91796875 3.61328125 C14.56711221 7.82533754 22.36069067 11.5846798 30.3125 15.1875 C31.00822113 15.50371307 31.70394226 15.81992615 32.42074585 16.14572144 C54.22253679 26.01830602 76.67795721 35.1793766 99.81689453 41.40576172 C102.01108755 42.00301801 104.19040027 42.64051819 106.37109375 43.28515625 C120.9880951 47.4912925 135.99534629 49.66755963 151 52 C151.02343064 59.26865131 151.04106848 66.53729414 151.05181217 73.80597591 C151.05697512 77.18308818 151.06451433 80.5601545 151.07543945 83.93725586 C151.14550502 106.17277043 150.07955512 127.82811275 147.63574219 149.92553711 C147.2542108 153.39916311 146.888568 156.87422644 146.5234375 160.34960938 C140.13823834 219.38281906 124.53168372 266.26144821 82.4375 308.75 C81.56311279 309.63751953 80.68872559 310.52503906 79.7878418 311.43945312 C74.16623302 317.06791302 68.32347607 322.17322974 62 327 C62.33 327.99 62.66 328.98 63 330 C55.41473459 332.25637642 47.82871317 333.56276933 40 334.625 C39.09942871 334.74786377 38.19885742 334.87072754 37.27099609 334.99731445 C34.51641044 335.35759062 31.76038981 335.6873793 29 336 C27.71561035 336.14683228 27.71561035 336.14683228 26.40527344 336.29663086 C16.05139158 337.3185172 5.64458212 337.28583371 -4.75 337.3125 C-6.26636047 337.31692612 -6.26636047 337.31692612 -7.81335449 337.32144165 C-21.0584693 337.33020061 -34.11040957 336.91053835 -47.25 335.1875 C-48.51295898 335.0222583 -49.77591797 334.8570166 -51.07714844 334.68676758 C-57.93177549 333.68881728 -64.4399704 332.2302221 -71 330 C-70.67 329.01 -70.34 328.02 -70 327 C-70.95398682 326.2582251 -70.95398682 326.2582251 -71.92724609 325.50146484 C-79.38573875 319.56598755 -86.16177176 313.14775185 -92.87109375 306.38964844 C-94.62281575 304.62719762 -96.38499428 302.87571432 -98.1484375 301.125 C-112.30737798 286.98319884 -123.53413794 272.16063957 -132 254 C-132.2990625 253.37867188 -132.598125 252.75734375 -132.90625 252.1171875 C-147.78058416 220.90764706 -153.49454089 181.53944995 -155.82617188 147.28808594 C-156.00945441 144.87555232 -156.25452492 142.47562656 -156.515625 140.0703125 C-159.67546367 110.82003699 -159.12968489 81.37661958 -159 52 C-158.21165771 51.87995605 -157.42331543 51.75991211 -156.61108398 51.63623047 C-105.61962643 43.7709008 -53.60106512 26.65890569 -9.0234375 0.265625 C-5.31970564 -1.28477438 -3.86790389 -0.95991563 0 0 Z M-11.78515625 29.67578125 C-12.94152588 30.25102539 -14.09789551 30.82626953 -15.28930664 31.41894531 C-16.21019577 31.88185974 -16.21019577 31.88185974 -17.14968872 32.35412598 C-52.58346525 50.10747747 -91.41099237 65.76349697 -130.60546875 72.52734375 C-132.94359713 72.75800123 -132.94359713 72.75800123 -134 74 C-134.10610973 76.90553407 -134.14047575 79.7815282 -134.125 82.6875 C-134.12161621 83.60942139 -134.11823242 84.53134277 -134.11474609 85.48120117 C-133.692611 145.39002463 -132.36678287 226.20376189 -90 273 C-89.13503906 273.97453125 -88.27007812 274.9490625 -87.37890625 275.953125 C-76.70344896 287.81826921 -65.58925521 299.16032113 -53 309 C-51.88321686 309.91529124 -50.7687653 310.83343228 -49.65625 311.75390625 C-42.61222646 317.54969441 -35.37284776 322.99025914 -27.875 328.1875 C-27.06933594 328.75243164 -26.26367188 329.31736328 -25.43359375 329.89941406 C-24.66917969 330.42116211 -23.90476562 330.94291016 -23.1171875 331.48046875 C-22.44284668 331.94348389 -21.76850586 332.40649902 -21.07373047 332.88354492 C-12.88354258 337.29297855 0.05939574 335.97855698 9 335 C13.54459281 333.52111825 16.40067676 331.08794398 20 328 C21.48606189 326.89957048 22.98183849 325.81220111 24.484375 324.734375 C38.89102108 314.39806091 52.22535061 303.28214744 65 291 C65.7105957 290.31808594 66.42119141 289.63617188 67.15332031 288.93359375 C100.41729574 256.83703461 111.84121035 221.87899858 119 177 C119.1760376 175.91904053 119.3520752 174.83808105 119.53344727 173.72436523 C120.80057953 165.7763188 121.73710621 157.81750961 122.5625 149.8125 C122.75102539 148.02295898 122.75102539 148.02295898 122.94335938 146.19726562 C123.18822797 143.86524483 123.43073731 141.53297486 123.6706543 139.20043945 C123.87397935 137.22461431 124.08050276 135.24911169 124.29223633 133.27416992 C124.90888454 127.4168723 125.30576464 121.57132623 125.5625 115.6875 C125.6049585 114.72706787 125.64741699 113.76663574 125.69116211 112.77709961 C126.19985986 99.8569956 126.08930578 86.92735502 126 74 C122.11959318 72.67130438 118.31626821 71.58618941 114.29589844 70.75952148 C80.85685428 63.87390634 48.36190306 51.37825645 17.71875 36.484375 C17.101707 36.18485931 16.484664 35.88534363 15.84892273 35.57675171 C12.81869366 34.10324667 9.79598762 32.61744001 6.78051758 31.11376953 C5.69407959 30.57864746 4.6076416 30.04352539 3.48828125 29.4921875 C2.52446533 29.01120605 1.56064941 28.53022461 0.56762695 28.03466797 C-4.36387651 26.04743666 -7.30605832 27.41240166 -11.78515625 29.67578125 Z " fill="#FCFCFC" transform="translate(254,68)"/>
<path d="M0 0 C3.69564342 1.84782171 6.52547668 3.83608662 9.8125 6.3125 C18.85588861 12.96245418 28.71761407 18.23556095 38.54321289 23.62475586 C45.54311512 27.54311512 45.54311512 27.54311512 47 29 C46.75988223 35.12300326 45.06265763 37.72900096 41 42 C35.18738629 40.26017005 30.16830006 38.1889511 25 35 C25 34.34 25 33.68 25 33 C26.98 32.505 26.98 32.505 29 32 C27.35 32 25.7 32 24 32 C24.01023128 34.385326 24.01023128 34.385326 25 37 C27.1389322 38.57302637 28.94134939 39.63312158 31.3125 40.75 C31.99965088 41.08290039 32.68680176 41.41580078 33.39477539 41.75878906 C44.79775528 47.0173916 56.97785811 50.47020536 69 54 C69.79486816 54.23734863 70.58973633 54.47469727 71.40869141 54.71923828 C76.23314762 56.1257484 81.05483364 57.14606909 86 58 C87.01690918 58.17901855 88.03381836 58.35803711 89.08154297 58.54248047 C122.38981335 64.13555124 157.65359078 64.36400325 191 59 C191.97211426 58.85014648 192.94422852 58.70029297 193.94580078 58.54589844 C209.09209245 56.17070171 224.42784217 53.11101865 238.57421875 47.02734375 C241.5542626 45.76526399 244.58685843 44.67706394 247.625 43.5625 C255.37777308 40.74457737 255.37777308 40.74457737 262 36 C262 34.68 262 33.36 262 32 C260.35 32 258.7 32 257 32 C258.32 32.33 259.64 32.66 261 33 C261 33.66 261 34.32 261 35 C258.73495035 36.19984797 256.46410112 37.38494769 254.1875 38.5625 C253.54490234 38.90474609 252.90230469 39.24699219 252.24023438 39.59960938 C250.53073605 40.4765023 248.76678706 41.24515617 247 42 C242.73884608 40.57961536 241.14337862 37.83852217 239 34 C238.375 31.3125 238.375 31.3125 239 29 C242.18061574 26.1503478 245.3241618 24.21586203 249.1875 22.4375 C260.92777894 16.70522536 272.35709778 9.9336948 282.25 1.36328125 C284 0 284 0 286 0 C286.33 9.57 286.66 19.14 287 29 C290.96 29.33 294.92 29.66 299 30 C301.69675103 30.42401746 304.38715576 30.89455422 307.0625 31.4375 C308.31160156 31.68371094 309.56070312 31.92992187 310.84765625 32.18359375 C314 33 314 33 317 35 C309.23745983 43.03021397 298.57128334 51.99549354 288 56 C282.80212917 54.71958607 279.76882043 51.43011269 277 47 C275.62300491 43.80181785 274.33213785 40.61551147 273.17993164 37.33129883 C271.74745491 33.36236704 270.42914223 30.53870199 267 28 C260.76245436 26.67308493 255.64456412 28.33746975 250 31 C247.67810464 31.4054103 245.34484656 31.76072994 243 32 C244 29 244 29 246 27 C243.94009522 28.29467677 243.94009522 28.29467677 242 30 C242 30.99 242 31.98 242 33 C246.67865408 33.40683949 249.72688078 32.86280765 254.0625 31 C257.9018438 29.37118748 260.77655388 28.21424258 265 29 C270.31412648 32.213582 271.26088684 35.89709421 273 41.5 C275.95671937 50.11297652 280.19753051 55.05747155 287.20703125 60.71484375 C290.61693569 63.50476556 291.88440536 64.95964825 292.375 69.375 C291.92521527 73.72291904 290.9877296 74.87602214 288 78 C285.74334389 79.42342924 283.63904618 80.60730758 281.25 81.75 C280.56607178 82.08362549 279.88214355 82.41725098 279.17749023 82.76098633 C257.41351424 93.06948509 234.60069986 99.6711314 211 104 C210.07880371 104.17418457 209.15760742 104.34836914 208.20849609 104.52783203 C205.32846334 105.07150414 202.44605988 105.60038162 199.5625 106.125 C198.71929199 106.28363525 197.87608398 106.44227051 197.00732422 106.60571289 C179.48467338 109.70301965 161.87900481 110.34625211 144.125 110.25 C143.11907806 110.24723053 142.11315613 110.24446106 141.07675171 110.24160767 C126.63536542 110.19501376 112.32924694 109.96224683 98 108 C97.21947266 107.89816406 96.43894531 107.79632813 95.63476562 107.69140625 C90.06009678 106.94689153 84.52948236 106.02528492 79 105 C78.08669922 104.83129395 77.17339844 104.66258789 76.23242188 104.48876953 C56.27962245 100.72833104 36.9192034 95.69302726 18.125 87.9375 C17.15691406 87.53829346 16.18882813 87.13908691 15.19140625 86.7277832 C-2.03329521 79.36566072 -2.03329521 79.36566072 -6 73 C-6.68915806 69.41637807 -6.73747266 67.13526094 -4.7109375 64.015625 C-1.72002901 60.49208897 1.47206778 57.62511891 5.125 54.8125 C9.59850071 51.05718219 11.08418837 46.62769346 12.89453125 41.18359375 C16.33531093 31.27463459 16.33531093 31.27463459 20 29 C25.97436143 28.27895638 29.49256539 29.48635169 34.8125 32.109375 C38.03542024 33.42156395 40.56374214 33.29244748 44 33 C43.73323796 31.01508358 43.73323796 31.01508358 43 29 C41.515 28.505 41.515 28.505 40 28 C40.66 28.33 41.32 28.66 42 29 C42 29.99 42 30.98 42 32 C38.87195687 31.51124326 36.20134431 30.67976165 33.3125 29.4375 C28.71393415 27.68690959 23.83149197 26.80197915 19 28 C14.27148224 31.67304505 12.87561658 35.39372118 11.1875 40.875 C9.13798256 46.85910166 7.03239978 51.03482519 2.125 55.2265625 C-1.20239361 56.43763591 -2.80075158 55.45592275 -6 54 C-9.04512413 52.22720373 -11.96012463 50.29062494 -14.875 48.3125 C-16.02162109 47.55549805 -16.02162109 47.55549805 -17.19140625 46.78320312 C-22.48930069 43.22578844 -27.29625141 39.3092251 -32 35 C-28.60367705 32.7357847 -26.11709785 32.23010986 -22.125 31.4375 C-20.91070312 31.18871094 -19.69640625 30.93992187 -18.4453125 30.68359375 C-12.67106665 29.79563854 -6.8249131 29.44807024 -1 29 C-0.67 19.43 -0.34 9.86 0 0 Z " fill="#044BA8" transform="translate(107,342)"/>
<path d="M0 0 C1.11246094 0.54277588 2.22492188 1.08555176 3.37109375 1.64477539 C7.60844166 3.7122985 11.83715733 5.79665771 16.05761719 7.8984375 C52.44095167 25.99644467 94.84067698 43.62075166 135.67578125 45.98046875 C141.69961436 46.92825242 145.77193833 48.76221623 149.8515625 53.34375 C152.73149719 59.35074249 151.86974782 66.55515389 151.75 73.0625 C151.73409418 74.63597953 151.71889483 76.20946633 151.7043457 77.78295898 C151.35686334 106.86717872 150.54969138 136.10902848 146.70556641 164.96240234 C146.40666654 167.31342416 146.1609581 169.65930752 145.94921875 172.01953125 C142.56268511 209.3538938 133.72170807 248.66495449 115.375 281.5625 C114.92125 282.449375 114.4675 283.33625 114 284.25 C109.93870237 291.40561964 103.40272419 294.70784044 96.375 298.5625 C94.19792366 299.78070338 92.02332465 301.00324031 89.84912109 302.2265625 C88.42967486 303.02173455 87.00690111 303.81100131 85.58056641 304.59375 C82.89106482 306.07834953 80.55932201 307.37817799 78.375 309.5625 C77.93140635 314.97434254 78.01486644 318.08232193 81.375 322.5625 C76.78396745 328.66247332 70.27473394 329.88623554 63.1875 331.9375 C61.98673828 332.30488281 60.78597656 332.67226563 59.54882812 333.05078125 C50.65988757 335.70494378 50.65988757 335.70494378 48.375 334.5625 C49.09558594 333.98628906 49.81617188 333.41007812 50.55859375 332.81640625 C70.68222203 316.31909253 92.00421382 296.66624996 104.375 273.5625 C105.20064453 272.04849609 105.20064453 272.04849609 106.04296875 270.50390625 C116.04041072 251.41386804 121.77758793 230.71533498 125.94628906 209.65527344 C126.43154961 207.28645029 126.96326878 204.92976524 127.4921875 202.5703125 C130.71217398 187.64544625 132.52706994 172.66939286 134.125 157.5 C134.23173035 156.49325226 134.33846069 155.48650452 134.44842529 154.44924927 C136.72448683 132.77149547 137.58389243 111.30226179 137.90722656 89.50860596 C137.95826555 86.12223092 138.01351282 82.7359245 138.06835938 79.34960938 C138.1743609 72.75396158 138.27630971 66.15826104 138.375 59.5625 C137.5033168 59.50087173 136.63163361 59.43924347 135.73353577 59.37574768 C134.57889328 59.29114792 133.42425079 59.20654816 132.23461914 59.11938477 C130.52490685 58.99600487 130.52490685 58.99600487 128.78065491 58.87013245 C123.71767879 58.41279435 118.7890068 57.5182395 113.8125 56.5 C112.74950684 56.28303467 111.68651367 56.06606934 110.59130859 55.8425293 C79.94824084 49.35648023 50.85637514 38.4253657 22.375 25.5625 C20.83223389 24.87124023 20.83223389 24.87124023 19.25830078 24.16601562 C-2.66930986 14.33096065 -2.66930986 14.33096065 -12.0390625 8.609375 C-15.42738854 7.23766597 -17.12408211 7.56476047 -20.625 8.5625 C-23.00516893 9.62350498 -25.26596611 10.72144416 -27.5625 11.9375 C-28.99527999 12.67086287 -30.428925 13.40253739 -31.86328125 14.1328125 C-32.63236816 14.52629883 -33.40145508 14.91978516 -34.19384766 15.32519531 C-74.59231694 35.88549279 -125.53092802 59.8967803 -171.625 59.5625 C-171.42899555 68.34599989 -171.22053993 77.12910574 -170.99813366 85.91197681 C-170.8950985 89.99467785 -170.79563582 94.07738566 -170.70581055 98.16040039 C-170.03473957 128.4292797 -168.57746777 158.57938801 -163.25 188.4375 C-162.94055876 190.22837221 -162.63148288 192.01930759 -162.32275391 193.81030273 C-160.22263287 205.84678353 -157.87507659 217.77789204 -154.625 229.5625 C-154.43760254 230.2740625 -154.25020508 230.985625 -154.05712891 231.71875 C-144.60985462 267.52919056 -125.93412263 292.25792258 -100.1875 318.125 C-98.92715942 319.3924707 -98.92715942 319.3924707 -97.64135742 320.68554688 C-93.12339856 325.19134979 -88.53426695 329.48576015 -83.625 333.5625 C-88.60402548 335.19386514 -92.58150825 333.46137533 -97.4375 332 C-98.75331055 331.63938477 -98.75331055 331.63938477 -100.09570312 331.27148438 C-106.24220441 329.44638265 -110.02758326 327.03447563 -114.625 322.5625 C-114.13 321.716875 -113.635 320.87125 -113.125 320 C-111.42318149 316.09999925 -111.001873 313.76860724 -111.625 309.5625 C-116.80842319 304.40099403 -124.10844577 301.43752351 -130.52148438 298.07226562 C-139.21626955 293.43308194 -144.78012793 289.33938401 -149.5 280.5625 C-149.92490723 279.78430908 -150.34981445 279.00611816 -150.78759766 278.2043457 C-157.7529123 265.05357128 -162.5123352 250.8278676 -166.625 236.5625 C-166.93026611 235.54792725 -167.23553223 234.53335449 -167.55004883 233.48803711 C-170.23194812 224.43333456 -172.30501988 215.3354034 -174.0625 206.0625 C-174.21085297 205.28160004 -174.35920593 204.50070007 -174.51205444 203.69613647 C-181.06552711 168.71732044 -183.74418321 133.10349846 -184.625 97.5625 C-184.64798157 96.64724548 -184.67096313 95.73199097 -184.69464111 94.78900146 C-184.82814558 89.20388384 -184.92398588 83.61963717 -184.97445679 78.03314209 C-184.99128603 76.28181517 -185.01379084 74.53053219 -185.04238892 72.77935791 C-185.07792454 70.35900346 -185.08604935 67.94011455 -185.0859375 65.51953125 C-185.10020279 64.81418747 -185.11446808 64.10884369 -185.12916565 63.38212585 C-185.07990925 57.95387425 -183.61504382 54.93454001 -180.625 50.5625 C-175.57404427 46.97447352 -169.61895044 46.55995544 -163.625 45.6875 C-127.3570938 39.88833776 -92.96679503 27.8588517 -59.625 12.5625 C-58.38078855 11.99491562 -57.13648224 11.42753914 -55.89208984 10.86035156 C-45.06651587 5.91881995 -34.24782365 0.96348283 -23.65283203 -4.45922852 C-14.99787147 -8.63457489 -7.88231021 -3.93211023 0 0 Z " fill="#060606" transform="translate(266.625,60.4375)"/>
<path d="M0 0 C2.72817328 1.86945609 5.43442124 3.74824897 8.09375 5.71484375 C8.91230469 6.30136719 9.73085938 6.88789063 10.57421875 7.4921875 C14.71566395 10.72471375 14.71566395 10.72471375 16.09375 12.71484375 C16.74547116 18.95507383 15.42513642 25.18748746 14.40625 31.33984375 C14.25736328 32.36335938 14.10847656 33.386875 13.95507812 34.44140625 C12.97442167 40.34841926 12.13636844 43.98209467 7.09375 47.71484375 C0.34373341 52.01976763 -7.84933508 55.35653488 -15.90625 53.71484375 C-23.00575692 50.29656264 -32.32556125 44.63003712 -36.09375 37.453125 C-38.64335002 28.86048261 -37.73811925 19.62220419 -33.5859375 11.765625 C-29.73063738 7.05857253 -23.9321471 4.54355077 -18.53125 1.96484375 C-17.90992188 1.64902344 -17.28859375 1.33320313 -16.6484375 1.0078125 C-10.99439106 -1.69070966 -5.96285166 -2.63679865 0 0 Z " fill="#FCFCFC" transform="translate(246.90625,248.28515625)"/>
<path d="M0 0 C4.64648041 1.97487948 8.94921437 4.42858877 13.28857422 7.00097656 C14.68727459 7.81745045 16.12268948 8.57074321 17.56640625 9.3046875 C19.87044523 10.72900251 20.84284702 11.53294985 22 14 C22.4405061 19.50632629 21.87886281 24.55864567 21 30 C20.85304688 30.91136719 20.70609375 31.82273437 20.5546875 32.76171875 C18.89229166 39.46983716 14.37317487 43.00306066 9 47 C8.41508789 47.44118164 7.83017578 47.88236328 7.22753906 48.33691406 C5.29658821 49.77548728 3.34226959 51.17408223 1.375 52.5625 C0.44349121 53.24397095 0.44349121 53.24397095 -0.50683594 53.93920898 C-3.8303883 56.1952307 -5.45258666 57.00717135 -9.578125 56.953125 C-13.01756275 55.99510809 -15.95381859 54.82276978 -19.125 53.1875 C-20.11757813 52.68605469 -21.11015625 52.18460937 -22.1328125 51.66796875 C-25.04263105 49.97519965 -27.54590836 48.30790929 -30 46 C-30.95614023 38.82894824 -29.22790752 31.77177776 -27.765625 24.75 C-27.33843593 22.65764538 -26.9431109 20.55572318 -26.671875 18.4375 C-26.02245543 14.06246287 -24.30352099 12.05838635 -21 9.375 C-19.35304478 8.22133572 -17.68520045 7.09704248 -16 6 C-14.71029297 5.12408203 -14.71029297 5.12408203 -13.39453125 4.23046875 C-8.71354882 1.20659659 -5.72619161 -0.69986786 0 0 Z " fill="#FCFCFC" transform="translate(292,247)"/>
<path d="M0 0 C0.495 0.99 0.495 0.99 1 2 C-0.16689615 3.94940298 -1.50960421 5.72126993 -2.87109375 7.5390625 C-6.22943279 14.8600092 -2.93738567 22.87284111 -0.625 30.0625 C-0.17833984 31.63741211 -0.17833984 31.63741211 0.27734375 33.24414062 C2.60444079 40.49464495 5.38848158 43.83825058 11.97509766 47.69311523 C12.64331543 48.12438721 13.3115332 48.55565918 14 49 C14 49.66 14 50.32 14 51 C11.4516326 50.5752721 9.34028275 50.18660667 7.0625 48.9375 C4.0003663 47.54562105 2.37415175 47.50012567 -1 48 C-6.15450018 50.47075215 -10.70942874 53.61291247 -15 57.375 C-18 60 -18 60 -20 60 C-20.12060791 60.93066284 -20.12060791 60.93066284 -20.24365234 61.88012695 C-20.61267922 64.69204854 -20.99369625 67.50221801 -21.375 70.3125 C-21.50132812 71.28896484 -21.62765625 72.26542969 -21.7578125 73.27148438 C-21.88671875 74.20927734 -22.015625 75.14707031 -22.1484375 76.11328125 C-22.26364746 76.97735596 -22.37885742 77.84143066 -22.49755859 78.73168945 C-23 81 -23 81 -25 84 C-25.66 84 -26.32 84 -27 84 C-26.48351265 76.21191437 -25.55123466 68.65074958 -24 61 C-24.58136719 60.73960937 -25.16273438 60.47921875 -25.76171875 60.2109375 C-28.14350256 58.92236336 -29.83579532 57.4688508 -31.8125 55.625 C-37.09635121 50.94669181 -41.34863945 47.54533547 -48.77539062 47.69506836 C-52.87826418 48.25745741 -56.34931901 50.12720698 -60 52 C-60.77472656 52.3815625 -61.54945313 52.763125 -62.34765625 53.15625 C-64.2387667 54.0901317 -66.12042021 55.04312301 -68 56 C-68.495 54.515 -68.495 54.515 -69 53 C-65.7121022 51.15984502 -62.41908674 49.32904953 -59.125 47.5 C-58.18785156 46.97535156 -57.25070313 46.45070312 -56.28515625 45.91015625 C-55.38925781 45.41386719 -54.49335938 44.91757813 -53.5703125 44.40625 C-52.32918701 43.71499023 -52.32918701 43.71499023 -51.06298828 43.00976562 C-49 42 -49 42 -47 42 C-46.7525 40.7625 -46.505 39.525 -46.25 38.25 C-45.4029053 34.35213669 -44.22002065 30.69115693 -42.875 26.9375 C-41.18390082 21.93413513 -40.27544875 18.25299656 -41 13 C-42.73083907 9.77867705 -42.73083907 9.77867705 -45 7 C-46.01059521 5.33973644 -47.01453001 3.67529898 -48 2 C-44.43235179 2.57619097 -42.74840503 3.86969484 -40.25 6.4375 C-39.32960937 7.36369141 -39.32960937 7.36369141 -38.390625 8.30859375 C-37 10 -37 10 -37 12 C-32.6016462 11.80888399 -28.20769353 11.5655091 -23.8125 11.3125 C-22.56662109 11.25900391 -21.32074219 11.20550781 -20.03710938 11.15039062 C-12.92794095 10.84067973 -12.92794095 10.84067973 -6.8125 7.59375 C-6.214375 6.7378125 -5.61625 5.881875 -5 5 C-3.33333333 3.33333333 -1.66666667 1.66666667 0 0 Z " fill="#030303" transform="translate(287,200)"/>
<path d="M0 0 C5.88605054 4.14966563 12.24639839 11.27257331 15 18 C15.77170433 27.84187305 13.60385609 38.77019013 8 47 C1.18589981 53.08307496 -8.32902479 58.19999895 -17.43359375 59.484375 C-20.47443611 58.9104565 -21.76473481 58.05634512 -24 55.9375 C-24.67160156 55.30328125 -25.34320313 54.6690625 -26.03515625 54.015625 C-34.85790328 44.96485469 -34.85790328 44.96485469 -35.2265625 39.8671875 C-34.97078647 35.50135527 -33.96157541 32.15922636 -32.375 28.125 C-32.10357178 27.42391113 -31.83214355 26.72282227 -31.55249023 26.00048828 C-26.72374172 13.95022993 -20.01098039 6.80144532 -8.52734375 0.8828125 C-5.42645675 -0.20034123 -3.26442246 -0.4160959 0 0 Z " fill="#FCFCFC" transform="translate(232,195)"/>
<path d="M0 0 C7.68372757 0.18740799 12.90538907 5.66051587 18 10.875 C21.49698525 14.9456014 23.96844888 19.2989833 26.375 24.0625 C26.70886719 24.7229834 27.04273438 25.3834668 27.38671875 26.06396484 C30.81337148 33.17990985 33.34793537 41.04718131 32 49 C29.99544581 53.79551042 27.14877612 57.89089333 24 62 C18.78554533 61.45280414 15.01341652 59.73009958 10.5 57.25 C9.86191406 56.91484375 9.22382813 56.5796875 8.56640625 56.234375 C-1.0807891 51.02607322 -4.12204692 46.66150261 -7.375 36.1875 C-7.72949219 35.13240234 -8.08398438 34.07730469 -8.44921875 32.99023438 C-12.73440648 19.71277045 -12.73440648 19.71277045 -10.06445312 13.99731445 C-8.82416891 11.93357509 -7.48663122 10.00343736 -6.0625 8.0625 C-5.59392578 7.39154297 -5.12535156 6.72058594 -4.64257812 6.02929688 C-1.36445047 1.36445047 -1.36445047 1.36445047 0 0 Z " fill="#FCFCFC" transform="translate(293,194)"/>
<path d="M0 0 C10.13807324 11.95384755 11.76374303 30.72576166 10.72460938 45.66162109 C9.22271186 62.0077681 3.14264181 79.46449028 -9 91 C-9 88 -9 88 -8 86 C-8.88300781 86.78503906 -9.76601563 87.57007813 -10.67578125 88.37890625 C-33.901657 108.80193937 -33.901657 108.80193937 -47 108 C-47.71875 106.296875 -47.71875 106.296875 -48 104 C-46.59375 101.703125 -46.59375 101.703125 -44.5 99.25 C-43.39205078 97.93708984 -43.39205078 97.93708984 -42.26171875 96.59765625 C-41.51535156 95.74042969 -40.76898438 94.88320313 -40 94 C-39.36707031 93.25621094 -38.73414063 92.51242187 -38.08203125 91.74609375 C-33.17865941 86.0417296 -28.4301534 81.07314415 -22 77.0625 C-14.60682586 72.21243245 -11.18790801 68.76956571 -9 60 C-7.96650112 54.64875772 -7.472238 49.43250667 -8 44 C-10.15144019 40.8977971 -12.65407827 39.61820942 -16 38 C-17.67344761 36.67518731 -19.34348188 35.34592097 -21 34 C-18 33 -18 33 -15.66015625 33.9609375 C-14.80292969 34.42757812 -13.94570313 34.89421875 -13.0625 35.375 C-10.04212893 37.00590926 -7.37648767 38.32626928 -4 39 C-3.72414063 38.42636719 -3.44828125 37.85273438 -3.1640625 37.26171875 C-2 35 -2 35 -0.7109375 32.95703125 C2.68614959 27.50381251 4.12270306 23.39152881 3 17 C2.02919295 13.59415213 0.96166163 10.25559187 -0.22265625 6.91796875 C-0.99236449 4.02866195 -1.05533915 2.74122685 0 0 Z " fill="#070707" transform="translate(321,217)"/>
<path d="M0 0 C3.69564342 1.84782171 6.52547668 3.83608662 9.8125 6.3125 C18.85588861 12.96245418 28.71761407 18.23556095 38.54321289 23.62475586 C45.54311512 27.54311512 45.54311512 27.54311512 47 29 C46.75988223 35.12300326 45.06265763 37.72900096 41 42 C35.18738629 40.26017005 30.16830006 38.1889511 25 35 C25 34.34 25 33.68 25 33 C26.98 32.505 26.98 32.505 29 32 C27.02 32 25.04 32 23 32 C23 31.34 23 30.68 23 30 C22.01 29.67 21.02 29.34 20 29 C25.98336965 28.56484584 29.46731525 29.47390197 34.8125 32.109375 C38.03542024 33.42156395 40.56374214 33.29244748 44 33 C43.73323796 31.01508358 43.73323796 31.01508358 43 29 C41.515 28.505 41.515 28.505 40 28 C40.66 28.33 41.32 28.66 42 29 C42 29.99 42 30.98 42 32 C38.87195687 31.51124326 36.20134431 30.67976165 33.3125 29.4375 C28.71393415 27.68690959 23.83149197 26.80197915 19 28 C14.27148224 31.67304505 12.87561658 35.39372118 11.1875 40.875 C9.13798256 46.85910166 7.03239978 51.03482519 2.125 55.2265625 C-1.20239361 56.43763591 -2.80075158 55.45592275 -6 54 C-9.04512413 52.22720373 -11.96012463 50.29062494 -14.875 48.3125 C-16.02162109 47.55549805 -16.02162109 47.55549805 -17.19140625 46.78320312 C-22.48930069 43.22578844 -27.29625141 39.3092251 -32 35 C-28.60367705 32.7357847 -26.11709785 32.23010986 -22.125 31.4375 C-20.91070312 31.18871094 -19.69640625 30.93992187 -18.4453125 30.68359375 C-12.67106665 29.79563854 -6.8249131 29.44807024 -1 29 C-0.67 19.43 -0.34 9.86 0 0 Z " fill="#044DAE" transform="translate(107,342)"/>
<path d="M0 0 C0.495 14.355 0.495 14.355 1 29 C4.96 29.33 8.92 29.66 13 30 C15.69675103 30.42401746 18.38715576 30.89455422 21.0625 31.4375 C22.31160156 31.68371094 23.56070313 31.92992187 24.84765625 32.18359375 C28 33 28 33 31 35 C23.23745983 43.03021397 12.57128334 51.99549354 2 56 C-3.19787083 54.71958607 -6.23117957 51.43011269 -9 47 C-10.37699509 43.80181785 -11.66786215 40.61551147 -12.82006836 37.33129883 C-14.25254509 33.36236704 -15.57085777 30.53870199 -19 28 C-25.23754564 26.67308493 -30.35543588 28.33746975 -36 31 C-38.32189536 31.4054103 -40.65515344 31.76072994 -43 32 C-42 29 -42 29 -40 27 C-42.05990478 28.29467677 -42.05990478 28.29467677 -44 30 C-44 30.99 -44 31.98 -44 33 C-38.29684079 33.49592689 -34.59512508 32.15231378 -29.37890625 29.890625 C-26.4930956 28.81022298 -24.0542634 28.67849859 -21 29 C-21.66 29.33 -22.32 29.66 -23 30 C-23.33 30.66 -23.66 31.32 -24 32 C-25.65 32 -27.3 32 -29 32 C-27.68 32.33 -26.36 32.66 -25 33 C-25 33.66 -25 34.32 -25 35 C-27.26504965 36.19984797 -29.53589888 37.38494769 -31.8125 38.5625 C-32.77639648 39.07586914 -32.77639648 39.07586914 -33.75976562 39.59960938 C-35.46926395 40.4765023 -37.23321294 41.24515617 -39 42 C-43.26115392 40.57961536 -44.85662138 37.83852217 -47 34 C-47.625 31.3125 -47.625 31.3125 -47 29 C-43.81938426 26.1503478 -40.6758382 24.21586203 -36.8125 22.4375 C-25.07222106 16.70522536 -13.64290222 9.9336948 -3.75 1.36328125 C-2 0 -2 0 0 0 Z " fill="#044DAE" transform="translate(393,342)"/>
<path d="M0 0 C11.88149105 4.71299145 11.88149105 4.71299145 15 10 C15.28718272 17.03597653 11.16611855 22.58318333 7 28 C2.09027502 32.52595893 -3.95557601 31.88255531 -10.3125 32.1875 C-11.52357422 32.28869141 -12.73464844 32.38988281 -13.98242188 32.49414062 C-22.73046802 32.92029066 -22.73046802 32.92029066 -26.25952148 30.36206055 C-28.03014723 28.32853884 -29.51743295 26.24903529 -31 24 C-32.47863193 22.47864676 -33.95768366 20.95770119 -35.4375 19.4375 C-37.95314436 16.56809315 -38.94805372 15.19739587 -39.9375 11.4375 C-38.34552543 5.60025991 -34.45724871 1.75004054 -29.59765625 -1.7109375 C-21.08306805 -5.93622187 -8.65280459 -2.45527894 0 0 Z " fill="#FBFBFB" transform="translate(274,180)"/>
<path d="M0 0 C3.17758576 2.27339469 6.09827981 4.75539999 8.99609375 7.3671875 C11.72771901 9.7613558 14.4694972 11.75941937 17.5 13.75 C22.48557979 17.14307517 25.06829986 20.20489959 27 26 C27.34710744 32.47933884 27.34710744 32.47933884 25 36 C21.0254805 37.61924869 16.15045331 37.7015878 12.0925293 36.37768555 C10.07776573 35.49157806 8.13468195 34.52608679 6.1875 33.5 C5.48971436 33.14123779 4.79192871 32.78247559 4.07299805 32.4128418 C-1.85902096 29.26752089 -7.03849368 25.5334548 -12 21 C-12.55429688 20.50242187 -13.10859375 20.00484375 -13.6796875 19.4921875 C-16.63851488 16.70052551 -17.93436045 14.66724466 -18.09765625 10.51953125 C-18.08605469 9.62621094 -18.07445312 8.73289062 -18.0625 7.8125 C-18.05347656 6.91144531 -18.04445312 6.01039063 -18.03515625 5.08203125 C-18.02355469 4.39496094 -18.01195312 3.70789063 -18 3 C-12.01599316 -0.29615507 -6.64043674 -2.71557797 0 0 Z " fill="#FAFAFA" transform="translate(210,289)"/>
<path d="M0 0 C4.75 0.75 4.75 0.75 7 3 C6.6989266 8.58736213 4.91319668 13.09291475 2.6875 18.125 C0.45718892 23.27603628 -1.40187714 28.22123071 -2.75 33.6875 C-4.75455277 40.74352576 -8.97528827 45.69812705 -13.63671875 51.19921875 C-15.96719147 53.73853851 -15.96719147 53.73853851 -17 56 C-18.65 55.67 -20.3 55.34 -22 55 C-22.92758948 35.62368641 -15.74481823 17.89076075 -3.0625 3.3125 C-2.04930225 2.20132268 -1.03150172 1.09420699 0 0 Z " fill="#FBFBFB" transform="translate(197,200)"/>
<path d="M0 0 C1.19882812 0.00483398 1.19882812 0.00483398 2.421875 0.00976562 C3.246875 0.01814453 4.071875 0.02652344 4.921875 0.03515625 C5.76234375 0.03966797 6.6028125 0.04417969 7.46875 0.04882812 C9.53648901 0.06057664 11.60419124 0.07851103 13.671875 0.09765625 C13.671875 1.08765625 13.671875 2.07765625 13.671875 3.09765625 C14.991875 3.09765625 16.311875 3.09765625 17.671875 3.09765625 C17.671875 5.73765625 17.671875 8.37765625 17.671875 11.09765625 C16.681875 11.09765625 15.691875 11.09765625 14.671875 11.09765625 C14.671875 12.41765625 14.671875 13.73765625 14.671875 15.09765625 C15.661875 15.09765625 16.651875 15.09765625 17.671875 15.09765625 C18.001875 17.40765625 18.331875 19.71765625 18.671875 22.09765625 C17.351875 22.09765625 16.031875 22.09765625 14.671875 22.09765625 C14.671875 23.41765625 14.671875 24.73765625 14.671875 26.09765625 C9.63333394 26.92976901 4.8593088 27.20550965 -0.265625 27.16015625 C-0.94947266 27.15564453 -1.63332031 27.15113281 -2.33789062 27.14648438 C-4.00134104 27.13485185 -5.6647455 27.11692319 -7.328125 27.09765625 C-8.48477237 21.61496556 -8.44228755 16.29426351 -8.390625 10.72265625 C-8.38611328 9.79582031 -8.38160156 8.86898438 -8.37695312 7.9140625 C-8.36524074 5.64185916 -8.34883872 3.36979237 -8.328125 1.09765625 C-5.47652109 0.28331482 -2.96186369 -0.02115617 0 0 Z " fill="#F0D530" transform="translate(261.328125,417.90234375)"/>
<path d="M0 0 C6.57534861 0.62031591 12.66692592 2.14897283 19 4 C18.67 5.65 18.34 7.3 18 9 C18.99 9 19.98 9 21 9 C19.9007105 15.31121503 18.41862058 21.06338584 16 27 C14.68 27 13.36 27 12 27 C12 27.99 12 28.98 12 30 C9.37426939 29.35702496 6.74942697 28.71075589 4.125 28.0625 C3.37863281 27.88009766 2.63226563 27.69769531 1.86328125 27.50976562 C-3.7734375 26.11328125 -3.7734375 26.11328125 -6 25 C-6.33333333 23.66666667 -6.66666667 22.33333333 -7 21 C-7.66 20.67 -8.32 20.34 -9 20 C-8.38388165 15.68068613 -7.35761422 11.74791225 -5.9375 7.625 C-5.57527344 6.56539063 -5.21304688 5.50578125 -4.83984375 4.4140625 C-4.56269531 3.61742187 -4.28554687 2.82078125 -4 2 C-2.68 2.33 -1.36 2.66 0 3 C0 2.01 0 1.02 0 0 Z " fill="#F2D72F" transform="translate(164,405)"/>
<path d="M0 0 C6.57791873 0.41044485 12.74051886 0.86608597 19 3 C19 4.32 19 5.64 19 7 C19.99 7 20.98 7 22 7 C21.6919856 9.62559844 21.37879818 12.25039806 21.0625 14.875 C20.97548828 15.62136719 20.88847656 16.36773437 20.79882812 17.13671875 C20.11328125 22.7734375 20.11328125 22.7734375 19 25 C17.68 25 16.36 25 15 25 C15 25.99 15 26.98 15 28 C12.95809019 27.85761163 10.91647955 27.71092972 8.875 27.5625 C7.73804688 27.48128906 6.60109375 27.40007812 5.4296875 27.31640625 C2.2459522 27.02269035 -0.85510907 26.56875687 -4 26 C-4.12375 25.360625 -4.2475 24.72125 -4.375 24.0625 C-4.58125 23.381875 -4.7875 22.70125 -5 22 C-5.66 21.67 -6.32 21.34 -7 21 C-6.51679152 14.7945858 -5.66681876 9.00054754 -4 3 C-2.68 3 -1.36 3 0 3 C0 2.01 0 1.02 0 0 Z " fill="#F2D630" transform="translate(194,413)"/>
<path d="M0 0 C0.69996094 0.24621094 1.39992188 0.49242187 2.12109375 0.74609375 C1.13107533 11.02705428 -7.75343417 19.27358579 -15.265625 25.7109375 C-23.55187622 32.16405691 -32.02299666 38.41074128 -42.87890625 37.74609375 C-43.59375 36.046875 -43.59375 36.046875 -43.87890625 33.74609375 C-38.03543741 23.80720231 -28.60013302 17.01074086 -19.11328125 10.8828125 C-16.81880427 9.36701672 -14.60366304 7.83294331 -12.39453125 6.203125 C-11.81791748 5.78337402 -11.24130371 5.36362305 -10.6472168 4.93115234 C-9.02110938 3.74188529 -7.40481142 2.53923998 -5.7890625 1.3359375 C-2.87890625 -0.25390625 -2.87890625 -0.25390625 0 0 Z " fill="#F9F9F9" transform="translate(316.87890625,287.25390625)"/>
<path d="M0 0 C0.66 0 1.32 0 2 0 C2.67031719 1.9570868 3.33614683 3.91571113 4 5.875 C4.556875 7.51082031 4.556875 7.51082031 5.125 9.1796875 C6 12 6 12 6 14 C11.28 14 16.56 14 22 14 C15.7 20.3 15.7 20.3 12 23 C11.34 23 10.68 23 10 23 C11.32 28.28 12.64 33.56 14 39 C11.01144822 37.50572411 9.07155599 36.33481071 6.5625 34.3125 C3.83412238 32.36749511 3.83412238 32.36749511 0.5625 31.8125 C-2.74635941 33.34587388 -5.40706526 35.42830351 -8.23046875 37.72265625 C-10 39 -10 39 -12 39 C-10.68 33.72 -9.36 28.44 -8 23 C-9.32 22.34 -10.64 21.68 -12 21 C-13.4385956 20.01030923 -14.85556169 18.98849332 -16.25 17.9375 C-16.95640625 17.41027344 -17.6628125 16.88304688 -18.390625 16.33984375 C-18.92171875 15.89769531 -19.4528125 15.45554687 -20 15 C-20 14.67 -20 14.34 -20 14 C-14.72 14 -9.44 14 -4 14 C-3.525625 12.246875 -3.05125 10.49375 -2.5625 8.6875 C-1.77029018 5.75976807 -0.95928532 2.87785595 0 0 Z " fill="#0B51B0" transform="translate(249,15)"/>
<path d="M0 0 C0 0.99 0 1.98 0 3 C1.32 3 2.64 3 4 3 C4 3.99 4 4.98 4 6 C5.65 6 7.3 6 9 6 C10.32388229 12.43028541 11.24794402 18.4294834 11 25 C8.69 25 6.38 25 4 25 C3.67 23.02 3.34 21.04 3 19 C-0.63 19.33 -4.26 19.66 -8 20 C-7.67 22.64 -7.34 25.28 -7 28 C-10.96 28.495 -10.96 28.495 -15 29 C-16.17293889 22.6221448 -17.29530838 16.49678438 -17 10 C-16.01 10 -15.02 10 -14 10 C-14 8.68 -14 7.36 -14 6 C-13.01 6 -12.02 6 -11 6 C-11 4.35 -11 2.7 -11 1 C-7.26513121 0.4254048 -3.78706732 0 0 0 Z " fill="#F1D630" transform="translate(302,414)"/>
<path d="M0 0 C8.14719762 3.04386557 16.13072547 6.29402903 24 10 C23.67 10.99 23.34 11.98 23 13 C18.15554813 12.50313314 14.37686538 10.93937681 10.05078125 8.83984375 C7.90664457 7.810512 7.90664457 7.810512 5 8 C4.34 9.98 3.68 11.96 3 14 C3.60328125 14.19335938 4.2065625 14.38671875 4.828125 14.5859375 C5.62734375 14.84632813 6.4265625 15.10671875 7.25 15.375 C8.03890625 15.63023437 8.8278125 15.88546875 9.640625 16.1484375 C11.86627958 16.95173667 13.90931672 17.89711662 16 19 C15.67 19.99 15.34 20.98 15 22 C11.33827525 21.37321829 8.1181005 20.35548154 4.6875 18.9375 C3.80449219 18.57527344 2.92148438 18.21304687 2.01171875 17.83984375 C1.01591797 17.42412109 1.01591797 17.42412109 0 17 C-0.21462891 18.15048828 -0.21462891 18.15048828 -0.43359375 19.32421875 C-1.01124472 22.05312161 -1.90330011 24.44103359 -3 27 C-5.9375 26.1875 -5.9375 26.1875 -9 25 C-10.2194114 21.34176581 -9.67355716 20.59251812 -8.1640625 17.1484375 C-7.75929688 16.21515625 -7.35453125 15.281875 -6.9375 14.3203125 C-6.504375 13.34835937 -6.07125 12.37640625 -5.625 11.375 C-5.19960937 10.3953125 -4.77421875 9.415625 -4.3359375 8.40625 C-1.16791102 1.16791102 -1.16791102 1.16791102 0 0 Z " fill="#F2D72F" transform="translate(133,391)"/>
<path d="M0 0 C5.87407624 2.21919867 11.17255661 5.35025637 16.625 8.4375 C18.19894531 9.31631836 18.19894531 9.31631836 19.8046875 10.21289062 C20.81015625 10.78072266 21.815625 11.34855469 22.8515625 11.93359375 C23.76760254 12.44978271 24.68364258 12.96597168 25.62744141 13.49780273 C27.78605618 14.86454041 29.41667226 16.00330856 31 18 C31.5932427 23.24031055 30.64473443 26.48191202 28 31 C32.79155527 36.07341146 37.88831619 37.38569551 44.5625 39.10546875 C48 40 48 40 51.2578125 41.10546875 C54.0171333 42.00558907 56.12083257 42.16936279 59 42 C59.33 42.66 59.66 43.32 60 44 C59.34 44 58.68 44 58 44 C58 44.66 58 45.32 58 46 C50.10648474 44.71552138 42.60155075 42.43838281 35.0324707 39.90625 C33.07293519 39.25347624 31.10819738 38.61855657 29.14257812 37.984375 C11.03075523 32.03075523 11.03075523 32.03075523 5 26 C5.375 23.375 5.375 23.375 6 21 C8.64 21.33 11.28 21.66 14 22 C14 22.33 14 22.66 14 23 C11.69 23 9.38 23 7 23 C9.47906057 25.86562595 12.12161059 27.1617794 15.5625 28.6875 C16.53316406 29.12449219 17.50382812 29.56148438 18.50390625 30.01171875 C20.86248852 31.12270902 20.86248852 31.12270902 23 31 C25.73842833 28.12050112 27.74296281 25.13096362 28.625 21.25 C28.20788752 18.79217192 28.20788752 18.79217192 25.8059082 17.55541992 C24.8799585 17.04213135 23.95400879 16.52884277 23 16 C22.11594482 15.49380127 21.23188965 14.98760254 20.32104492 14.46606445 C19.38365479 13.937146 18.44626465 13.40822754 17.48046875 12.86328125 C16.45888672 12.28642578 15.43730469 11.70957031 14.38476562 11.11523438 C13.32966797 10.52033203 12.27457031 9.92542969 11.1875 9.3125 C10.11306641 8.70599609 9.03863281 8.09949219 7.93164062 7.47460938 C5.28809667 5.98247568 2.6442061 4.4909599 0 3 C0 2.01 0 1.02 0 0 Z " fill="#EBEFF6" transform="translate(125,352)"/>
<path d="M0 0 C0.66 0.33 1.32 0.66 2 1 C2 1.66 2 2.32 2 3 C-1.37345103 4.94020625 -4.74903202 6.87667709 -8.125 8.8125 C-9.07632813 9.35970703 -10.02765625 9.90691406 -11.0078125 10.47070312 C-18.95489695 15.02372026 -18.95489695 15.02372026 -22.6171875 16.82421875 C-24.89822607 17.79115504 -24.89822607 17.79115504 -26 19 C-25.69457852 24.29397231 -24.63172245 27.13397287 -21 31 C-15.94537315 29.44727149 -11.48909157 27.85669464 -7 25 C-6.34 25 -5.68 25 -5 25 C-5 24.34 -5 23.68 -5 23 C-6.98 23 -8.96 23 -11 23 C-9 21 -9 21 -6.375 20.875 C-5.59125 20.91625 -4.8075 20.9575 -4 21 C-3.505 23.475 -3.505 23.475 -3 26 C-7.68337503 30.36038365 -13.1902821 32.53047414 -19 35 C-19.76054687 35.3403125 -20.52109375 35.680625 -21.3046875 36.03125 C-32.33390135 40.76350784 -44.29477808 43.49556267 -56 46 C-56 45.01 -56 44.02 -56 43 C-55.23333008 42.78384033 -54.46666016 42.56768066 -53.67675781 42.3449707 C-50.19567401 41.35237145 -46.7230599 40.33280293 -43.25 39.3125 C-41.44015625 38.80299805 -41.44015625 38.80299805 -39.59375 38.28320312 C-37.85351562 37.7659668 -37.85351562 37.7659668 -36.078125 37.23828125 C-35.00981445 36.92930908 -33.94150391 36.62033691 -32.84082031 36.30200195 C-29.49681339 34.76938001 -28.06043274 33.00153757 -26 30 C-26.495 29.505 -26.99 29.01 -27.5 28.5 C-29.18777075 25.68704875 -29.47820308 23.34738939 -29.69140625 20.09765625 C-27.46155633 13.33251834 -17.48045191 9.81354424 -11.6875 6.75 C-9.69066971 5.68366978 -7.69453606 4.61603364 -5.69921875 3.546875 C-4.82096436 3.08120117 -3.94270996 2.61552734 -3.0378418 2.13574219 C-1.06905624 1.16019658 -1.06905624 1.16019658 0 0 Z " fill="#F1F3F6" transform="translate(373,352)"/>
<path d="M0 0 C6.278744 5.22127132 11.96475764 10.90151538 17.68359375 16.72265625 C21.96021748 21.04568096 26.32373353 25.11131525 31 29 C26.02097452 30.63136514 22.04349175 28.89887533 17.1875 27.4375 C16.31029297 27.19708984 15.43308594 26.95667969 14.52929688 26.70898438 C8.38279559 24.88388265 4.59741674 22.47197563 0 18 C0.495 17.154375 0.99 16.30875 1.5 15.4375 C3.1784643 11.5910193 3.47007035 9.15228813 3 5 C1.60414215 3.18523997 1.60414215 3.18523997 0 2 C0 1.34 0 0.68 0 0 Z " fill="#0E0E0E" transform="translate(152,365)"/>
<path d="M0 0 C0.495 0.33 0.99 0.66 1.5 1 C1.83 0.34 2.16 -0.32 2.5 -1 C2.5 1.97 2.5 4.94 2.5 8 C0.5 6 0.5 6 -0.25 3.9375 C-1.41669817 1.63960014 -1.41669817 1.63960014 -4.625 1.25 C-5.57375 1.1675 -6.5225 1.085 -7.5 1 C-10.51836798 4.31226171 -10.86168242 6.50929221 -10.75 10.9375 C-10.73453125 11.95714844 -10.7190625 12.97679687 -10.703125 14.02734375 C-10.51557237 16.77210441 -10.11169 19.32138975 -9.5 22 C-7.85 22 -6.2 22 -4.5 22 C-4.24984127 18.58357241 -4.24984127 18.58357241 -4.5 15 C-5.49 14.34 -6.48 13.68 -7.5 13 C-3.54 13 0.42 13 4.5 13 C4.17 16.3 3.84 19.6 3.5 23 C-9.25 25.125 -9.25 25.125 -14.875 22.3125 C-18.72349802 18.92215651 -19.32731065 16.58298572 -19.875 11.5625 C-19.32551718 6.34241319 -17.23805264 3.4483772 -13.25 0.125 C-8.80313512 -1.694172 -4.5435132 -1.81740528 0 0 Z " fill="#133D75" transform="translate(267.5,456)"/>
<path d="M0 0 C2 2 2 2 2.1953125 3.9453125 C2.13020833 5.96354167 2.06510417 7.98177083 2 10 C5.3 10.66 8.6 11.32 12 12 C9 15 9 15 5 17 C5 20.63 5 24.26 5 28 C4.278125 27.195625 3.55625 26.39125 2.8125 25.5625 C-0.11179831 22.89813932 -1.10951793 22 -5 22 C-7.4679302 22.81920856 -9.65325081 23.84963275 -12 25 C-11.5359375 23.6696875 -11.5359375 23.6696875 -11.0625 22.3125 C-10.711875 21.219375 -10.36125 20.12625 -10 19 C-9.5359375 17.7625 -9.5359375 17.7625 -9.0625 16.5 C-8.98756508 13.50260329 -9.57255625 12.93702255 -11.4375 10.6875 C-12.283125 9.800625 -13.12875 8.91375 -14 8 C-10.7 8 -7.4 8 -4 8 C-2.68 5.36 -1.36 2.72 0 0 Z " fill="#1055B2" transform="translate(402,76)"/>
<path d="M0 0 C0.721875 0.804375 1.44375 1.60875 2.1875 2.4375 C5.09621751 5.08766484 6.14400306 5.90595129 10 6 C13.24236568 5.14228658 13.24236568 5.14228658 16 4 C15.690625 4.70125 15.38125 5.4025 15.0625 6.125 C13.90037965 9.26956096 13.0687395 11.63176436 13 15 C14.44075897 17.34256736 16.05806944 19.01070528 18 21 C14.37 20.67 10.74 20.34 7 20 C5.68 22.31 4.36 24.62 3 27 C0.5705484 23.3558226 0.83820425 21.28758728 1 17 C-2.3 16.34 -5.6 15.68 -9 15 C-5 12 -5 12 0 11 C0 7.37 0 3.74 0 0 Z " fill="#0F55B1" transform="translate(170,59)"/>
<path d="M0 0 C3 4 3 4 5 8 C8.3 8 11.6 8 15 8 C14.154375 8.86625 13.30875 9.7325 12.4375 10.625 C10.34160654 13.14125627 9.99260046 13.63742237 10.0625 17.0625 C10.92787429 19.7740061 11.85113235 22.39589998 13 25 C9.66666667 23.66666667 6.33333333 22.33333333 3 21 C0.69 22.98 -1.62 24.96 -4 27 C-4 23.7 -4 20.4 -4 17 C-6.64 15.68 -9.28 14.36 -12 13 C-8.39338934 11.19669467 -5.91606575 10.53400897 -2 10 C-1.34 6.7 -0.68 3.4 0 0 Z " fill="#0E54B1" transform="translate(96,76)"/>
<path d="M0 0 C0.33 0 0.66 0 1 0 C1 3.63 1 7.26 1 11 C3.97 11.66 6.94 12.32 10 13 C9 15 9 15 7.15234375 15.6328125 C5.1015625 16.08854167 3.05078125 16.54427083 1 17 C1 20.3 1 23.6 1 27 C0.236875 26.195625 -0.52625 25.39125 -1.3125 24.5625 C-3.79430898 21.83200976 -3.79430898 21.83200976 -7 21 C-7.825 21.33 -8.65 21.66 -9.5 22 C-12 23 -12 23 -15 22 C-14.319375 21.0925 -13.63875 20.185 -12.9375 19.25 C-10.82931182 16.34430146 -10.82931182 16.34430146 -11 14 C-12.42230071 11.15539857 -14.17055713 8.59662859 -16 6 C-10.555 7.485 -10.555 7.485 -5 9 C-4.34 7.35 -3.68 5.7 -3 4 C-1.4375 1.6875 -1.4375 1.6875 0 0 Z " fill="#0C52B0" transform="translate(335,59)"/>
<path d="M0 0 C1.33934716 2.95564708 2.67044247 5.9149378 4 8.875 C4.3815625 9.71675781 4.763125 10.55851562 5.15625 11.42578125 C5.5171875 12.23144531 5.878125 13.03710938 6.25 13.8671875 C6.58515625 14.61081543 6.9203125 15.35444336 7.265625 16.12060547 C8 18 8 18 8 20 C8.74765625 19.6390625 9.4953125 19.278125 10.265625 18.90625 C11.25046875 18.4421875 12.2353125 17.978125 13.25 17.5 C14.22453125 17.0359375 15.1990625 16.571875 16.203125 16.09375 C19 15 19 15 23 15 C22.73193359 16.87768555 22.73193359 16.87768555 22 19 C20.37353516 20.11254883 20.37353516 20.11254883 18.2890625 20.95703125 C17.16371094 21.41819336 17.16371094 21.41819336 16.015625 21.88867188 C15.22671875 22.19353516 14.4378125 22.49839844 13.625 22.8125 C12.84382813 23.13669922 12.06265625 23.46089844 11.2578125 23.79492188 C5.40506094 26.13502031 5.40506094 26.13502031 2 25 C0.83325195 22.99047852 0.83325195 22.99047852 -0.26171875 20.37890625 C-0.85629883 18.97608398 -0.85629883 18.97608398 -1.46289062 17.54492188 C-1.86701172 16.56072266 -2.27113281 15.57652344 -2.6875 14.5625 C-3.10322266 13.58216797 -3.51894531 12.60183594 -3.94726562 11.59179688 C-7 4.3083436 -7 4.3083436 -7 2 C-4.35261084 0.5393715 -3.10551666 0 0 0 Z " fill="#F5D82E" transform="translate(354,399)"/>
<path d="M0 0 C7.26 0 14.52 0 22 0 C22 1.32 22 2.64 22 4 C19.69 4 17.38 4 15 4 C14.67 11.26 14.34 18.52 14 26 C11.36 26 8.72 26 6 26 C6.33 18.41 6.66 10.82 7 3 C4.69 3 2.38 3 0 3 C0 2.01 0 1.02 0 0 Z " fill="#F3D72F" transform="translate(225,418)"/>
<path d="M0 0 C0.176521 0.57032959 0.35304199 1.14065918 0.53491211 1.72827148 C1.33255199 4.2990273 2.13495994 6.86826993 2.9375 9.4375 C3.21529297 10.33533203 3.49308594 11.23316406 3.77929688 12.15820312 C4.18051758 13.43920898 4.18051758 13.43920898 4.58984375 14.74609375 C4.83597412 15.53685303 5.08210449 16.3276123 5.33569336 17.14233398 C5.84686051 18.98943308 5.84686051 18.98943308 7 20 C7.67546875 19.7834375 8.3509375 19.566875 9.046875 19.34375 C9.93890625 19.0653125 10.8309375 18.786875 11.75 18.5 C12.63171875 18.2215625 13.5134375 17.943125 14.421875 17.65625 C17 17 17 17 21 17 C21 18.32 21 19.64 21 21 C18.27464312 21.86838824 15.54583627 22.71992619 12.8125 23.5625 C12.04357422 23.80935547 11.27464844 24.05621094 10.48242188 24.31054688 C9.35610352 24.65375977 9.35610352 24.65375977 8.20703125 25.00390625 C7.17799683 25.32597046 7.17799683 25.32597046 6.12817383 25.65454102 C3.53216307 26.07594233 1.53288259 25.63660685 -1 25 C-2.00906461 21.75274421 -3.00565122 18.50178926 -4 15.25 C-4.42925781 13.86941406 -4.42925781 13.86941406 -4.8671875 12.4609375 C-5.13789063 11.57148438 -5.40859375 10.68203125 -5.6875 9.765625 C-5.93886719 8.94868164 -6.19023437 8.13173828 -6.44921875 7.29003906 C-7 5 -7 5 -7 1 C-4.53721199 -0.231394 -2.7204945 -0.07159196 0 0 Z " fill="#F4D82F" transform="translate(325,409)"/>
<path d="M0 0 C4.29 0.33 8.58 0.66 13 1 C11.68 1.33 10.36 1.66 9 2 C9 5.3 9 8.6 9 12 C12.0745356 11.2236068 12.0745356 11.2236068 14 9 C14 11.97 14 14.94 14 18 C12.02 16.35 10.04 14.7 8 13 C8 16.63 8 20.26 8 24 C12.95696581 22.76075855 15.11658466 21.21422242 18 17 C18 19.97 18 22.94 18 26 C15.60385425 25.85834107 13.20817103 25.71181159 10.8125 25.5625 C10.13896484 25.52318359 9.46542969 25.48386719 8.77148438 25.44335938 C5.10300898 25.21072435 1.58305794 24.82792989 -2 24 C-1.34 23.34 -0.68 22.68 0 22 C0.46240343 19.77670029 0.46240343 19.77670029 0.6328125 17.2109375 C0.75849609 15.79941406 0.75849609 15.79941406 0.88671875 14.359375 C0.96535156 13.37453125 1.04398438 12.3896875 1.125 11.375 C1.21136719 10.38242187 1.29773438 9.38984375 1.38671875 8.3671875 C1.5991844 5.91202889 1.80325544 3.45646026 2 1 C1.34 0.67 0.68 0.34 0 0 Z " fill="#0B3670" transform="translate(203,453)"/>
<path d="M0 0 C0.33 2.64 0.66 5.28 1 8 C0.278125 7.195625 -0.44375 6.39125 -1.1875 5.5625 C-4.00637592 2.5520076 -4.00637592 2.5520076 -9 2 C-8.34 5.3 -7.68 8.6 -7 12 C-6.34 12 -5.68 12 -5 12 C-4.34 10.68 -3.68 9.36 -3 8 C-2.67 10.97 -2.34 13.94 -2 17 C-2.66 16.34 -3.32 15.68 -4 15 C-6.06874034 14.3574765 -6.06874034 14.3574765 -8 14 C-7.74445946 15.46109063 -7.46999628 16.91888096 -7.1875 18.375 C-7.03667969 19.18710937 -6.88585937 19.99921875 -6.73046875 20.8359375 C-6.12455058 23.35820641 -6.12455058 23.35820641 -3 25 C-6.63 25.33 -10.26 25.66 -14 26 C-16.29612756 11.40318907 -16.29612756 11.40318907 -16 4 C-16.99 3.67 -17.98 3.34 -19 3 C-17.01011246 1.01011246 -13.35643188 1.28019824 -10.625 0.9375 C-9.93921875 0.84662109 -9.2534375 0.75574219 -8.546875 0.66210938 C-5.67413443 0.29044158 -2.8998232 0 0 0 Z " fill="#143E76" transform="translate(314,450)"/>
<path d="M0 0 C3.3 0.66 6.6 1.32 10 2 C11.02326605 7.11633024 10.81268028 8.50273233 9.125 13.1875 C8.57199219 14.75564453 8.57199219 14.75564453 8.0078125 16.35546875 C7 19 7 19 6 21 C2.7 20.34 -0.6 19.68 -4 19 C-5.39035371 14.82893888 -3.90230806 11.81793141 -2.5625 7.8125 C-2.31951172 7.06291016 -2.07652344 6.31332031 -1.82617188 5.54101562 C-1.22534944 3.69142499 -0.61370322 1.84535673 0 0 Z " fill="#07499D" transform="translate(167,409)"/>
<path d="M0 0 C1.64630328 0.14042877 3.29204179 0.28749329 4.9375 0.4375 C6.31228516 0.55931641 6.31228516 0.55931641 7.71484375 0.68359375 C10 1 10 1 11 2 C10.93517852 4.08607309 10.79755065 6.17006513 10.625 8.25 C10.53476563 9.38953125 10.44453125 10.5290625 10.3515625 11.703125 C10 15 10 15 9 20 C5.37 19.67 1.74 19.34 -2 19 C-2.24794402 12.4294834 -1.32388229 6.43028541 0 0 Z " fill="#09499A" transform="translate(197,417)"/>
<path d="M0 0 C3.63 0.33 7.26 0.66 11 1 C10.52820313 1.66773438 10.05640625 2.33546875 9.5703125 3.0234375 C7.6743385 6.61729866 7.31216897 9.59509695 6.875 13.625 C6.09474063 20.7157781 6.09474063 20.7157781 5 24 C10.41342681 22.85485202 12.9342948 21.65987191 16 17 C15.67 19.97 15.34 22.94 15 26 C8.63440427 25.50873071 2.30735307 25.00344253 -4 24 C-3.69320312 23.36578125 -3.38640625 22.7315625 -3.0703125 22.078125 C-1.65347045 18.00341137 -1.2891702 14.02749547 -0.875 9.75 C-0.78863281 8.92242187 -0.70226562 8.09484375 -0.61328125 7.2421875 C-0.18234031 3.62842819 -0.18234031 3.62842819 0 0 Z " fill="#133D75" transform="translate(184,450)"/>
<path d="M0 0 C1.65 0 3.3 0 5 0 C7.64 7.92 10.28 15.84 13 24 C9.37 24 5.74 24 2 24 C2 23.34 2 22.68 2 22 C2.66 22 3.32 22 4 22 C2.35 17.38 0.7 12.76 -1 8 C-1.99 8.99 -2.98 9.98 -4 11 C-3.39301257 6.87248551 -1.96189209 3.6678852 0 0 Z " fill="#194279" transform="translate(233,456)"/>
<path d="M0 0 C0.66 0.33 1.32 0.66 2 1 C-0.15580304 3.39533671 -1.63501267 4.86419076 -4.6875 6 C-5.8321875 6.495 -5.8321875 6.495 -7 7 C-7.88693303 9.04105639 -7.88693303 9.04105639 -8 11 C-2.29684079 11.49592689 1.40487492 10.15231378 6.62109375 7.890625 C9.5069044 6.81022298 11.9457366 6.67849859 15 7 C14.01 7.495 14.01 7.495 13 8 C12.67 8.66 12.34 9.32 12 10 C10.35 10 8.7 10 7 10 C8.32 10.33 9.64 10.66 11 11 C11 11.66 11 12.32 11 13 C8.73495035 14.19984797 6.46410112 15.38494769 4.1875 16.5625 C3.22360352 17.07586914 3.22360352 17.07586914 2.24023438 17.59960938 C0.53073605 18.4765023 -1.23321294 19.24515617 -3 20 C-7.26115392 18.57961536 -8.85662138 15.83852217 -11 12 C-11.625 9.3125 -11.625 9.3125 -11 7 C-7.80118504 3.80118504 -4.15508265 1.75436823 0 0 Z M-6 7 C-5.34 7.33 -4.68 7.66 -4 8 C-4.99 8.66 -5.98 9.32 -7 10 C-6.67 9.01 -6.34 8.02 -6 7 Z " fill="#1256B2" transform="translate(357,364)"/>
<path d="M0 0 C-0.66 0.66 -1.32 1.32 -2 2 C-2.09141646 4.04439812 -2.09141646 4.04439812 -1.7578125 6.3515625 C-1.66113281 7.20234375 -1.56445312 8.053125 -1.46484375 8.9296875 C-1.35269531 9.81914062 -1.24054688 10.70859375 -1.125 11.625 C-1.02058594 12.5221875 -0.91617187 13.419375 -0.80859375 14.34375 C-0.54879548 16.5638443 -0.27888059 18.78223534 0 21 C2.475 21.99 2.475 21.99 5 23 C5 23.33 5 23.66 5 24 C3.3973218 24.10824843 1.79254252 24.18570645 0.1875 24.25 C-0.70582031 24.29640625 -1.59914063 24.3428125 -2.51953125 24.390625 C-5 24 -5 24 -6.7578125 22.5234375 C-8.54497756 18.89290722 -8.74381828 15.3736169 -9.0625 11.375 C-9.22138478 5.6731869 -9.22138478 5.6731869 -12 1 C-7.95858806 0.36605303 -4.0934693 -0.12404452 0 0 Z " fill="#113B74" transform="translate(284,454)"/>
<path d="M0 0 C2.91517292 1.07401108 4.77810176 1.77810176 7 4 C6.625 6.125 6.625 6.125 6 8 C1.45840252 8.38651893 -1.32791765 8.02625241 -5.4375 6 C-9.98567803 3.83457053 -12.98183048 3.23451651 -18 4 C-21.54971007 7.5897444 -22.9422663 11.17241268 -24.4375 15.9375 C-26.59982756 22.27192584 -28.37840147 26.84661709 -34.3125 30.375 C-34.869375 30.58125 -35.42625 30.7875 -36 31 C-35.01936033 28.13980097 -34.10688243 26.12252914 -32.10546875 23.828125 C-29.12354485 19.82272073 -27.88643183 15.51258039 -26.37695312 10.79492188 C-24.79842416 6.21417706 -23.33464554 3.5759432 -19 1 C-10.9806202 -1.04720083 -3.20829283 2.83648591 4 6 C4 5.01 4 4.02 4 3 C2.68 2.34 1.36 1.68 0 1 C0 0.67 0 0.34 0 0 Z " fill="#E8EEF7" transform="translate(145,368)"/>
<path d="M0 0 C6.75 2.75 6.75 2.75 9 5 C8.88271462 11.09883958 7.02942919 13.76393342 3 18 C-2.81261371 16.26017005 -7.83169994 14.1889511 -13 11 C-13 10.34 -13 9.68 -13 9 C-11.68 8.67 -10.36 8.34 -9 8 C-10.98 8 -12.96 8 -15 8 C-15 7.34 -15 6.68 -15 6 C-15.99 5.67 -16.98 5.34 -18 5 C-12.01663035 4.56484584 -8.53268475 5.47390197 -3.1875 8.109375 C0.03542024 9.42156395 2.56374214 9.29244748 6 9 C5.96044102 7.07690578 5.96044102 7.07690578 5 5 C2.01647106 3.21620585 2.01647106 3.21620585 -1 2 C-0.67 1.34 -0.34 0.68 0 0 Z " fill="#1559B4" transform="translate(145,366)"/>
<path d="M0 0 C1.38058594 -0.01836914 1.38058594 -0.01836914 2.7890625 -0.03710938 C8.13903546 -0.0485736 12.56645908 0.42467514 17.625 2.1875 C11.67957192 5.37255076 6.37284043 5.37022162 -0.25 5.375 C-1.13558594 5.38724609 -2.02117187 5.39949219 -2.93359375 5.41210938 C-7.82364883 5.42304094 -11.78655556 5.1031377 -16.375 3.1875 C-16.045 2.5275 -15.715 1.8675 -15.375 1.1875 C-10.31184937 -0.18903382 -5.20638057 0.00361554 0 0 Z " fill="#F0F0F0" transform="translate(251.375,325.8125)"/>
<path d="M0 0 C0.66 0 1.32 0 2 0 C2.29132813 1.22074219 2.58265625 2.44148438 2.8828125 3.69921875 C5.11697142 12.76320424 7.51507252 21.03381604 11.86328125 29.3359375 C13.05609262 32.13146106 13.23481315 33.99657604 13 37 C12.34 37 11.68 37 11 37 C9.72398669 34.50252977 8.45413829 32.00222064 7.1875 29.5 C6.65286133 28.45585937 6.65286133 28.45585937 6.10742188 27.390625 C2.67535922 20.58947332 -0.24024833 14.25778963 -0.75 6.5625 C-0.82734375 5.53253906 -0.9046875 4.50257813 -0.984375 3.44140625 C-0.98953125 2.63574219 -0.9946875 1.83007812 -1 1 C-0.67 0.67 -0.34 0.34 0 0 Z " fill="#E2E2E2" transform="translate(176,260)"/>
<path d="M0 0 C0.66 0.33 1.32 0.66 2 1 C0.35 2.65 -1.3 4.3 -3 6 C0.69408571 5.01993645 3.86688596 4.06530123 7.3125 2.375 C12.02704072 0.61703566 16.02825978 0.16149526 21 1 C27.09191542 4.65514925 28.9249863 12.52772322 31 19 C31 19.66 31 20.32 31 21 C30.01 21 29.02 21 28 21 C27.52820313 19.53626953 27.52820313 19.53626953 27.046875 18.04296875 C26.61528366 16.75757714 26.182953 15.47243361 25.75 14.1875 C25.54503906 13.54490234 25.34007812 12.90230469 25.12890625 12.24023438 C24.15198568 9.38348181 23.22888593 7.23989927 21.1328125 5.04296875 C17.1751543 3.1076304 13.18196784 4.10243934 9 5 C6.99218823 5.98422146 4.99107248 6.98234073 3 8 C-0.875 8.1875 -0.875 8.1875 -4 8 C-4.33 6.68 -4.66 5.36 -5 4 C-3.35 2.68 -1.7 1.36 0 0 Z " fill="#E8EEF7" transform="translate(353,368)"/>
<path d="M0 0 C1.32 0 2.64 0 4 0 C4 0.99 4 1.98 4 3 C5.32 2.67 6.64 2.34 8 2 C8.33 4.64 8.66 7.28 9 10 C5.37 10.33 1.74 10.66 -2 11 C-2.33 8.69 -2.66 6.38 -3 4 C-2.01 4 -1.02 4 0 4 C0 2.68 0 1.36 0 0 Z " fill="#084798" transform="translate(295,419)"/>
<path d="M0 0 C3.63 0 7.26 0 11 0 C11 2.64 11 5.28 11 8 C7.37 8 3.74 8 0 8 C0 5.36 0 2.72 0 0 Z " fill="#004199" transform="translate(261,433)"/>
<path d="M0 0 C0.33 0.66 0.66 1.32 1 2 C-1.81168096 2.79467142 -4.62428502 3.58579233 -7.4375 4.375 C-8.6121582 4.70757812 -8.6121582 4.70757812 -9.81054688 5.046875 C-15.17530671 6.54812467 -20.55253309 7.83307516 -26 9 C-26 8.01 -26 7.02 -26 6 C-22.23354751 4.79828199 -18.46124618 3.61609414 -14.6875 2.4375 C-13.61564453 2.09525391 -12.54378906 1.75300781 -11.43945312 1.40039062 C-10.41142578 1.08134766 -9.38339844 0.76230469 -8.32421875 0.43359375 C-6.9024231 -0.01415405 -6.9024231 -0.01415405 -5.4519043 -0.47094727 C-3 -1 -3 -1 0 0 Z " fill="#DCE1E9" transform="translate(343,389)"/>
<path d="M0 0 C0.99 0 1.98 0 3 0 C2.8125 2.375 2.8125 2.375 2 5 C-2.01565235 7.10991903 -6.16582574 7.60261817 -10.625 8.1875 C-11.29273438 8.28224609 -11.96046875 8.37699219 -12.6484375 8.47460938 C-15.85840889 8.89511563 -17.88569711 9.03810096 -21 8 C-21.33 7.01 -21.66 6.02 -22 5 C-14.74 4.67 -7.48 4.34 0 4 C0 2.68 0 1.36 0 0 Z " fill="#024296" transform="translate(276,440)"/>
<path d="M0 0 C3.63 0 7.26 0 11 0 C11 2.31 11 4.62 11 7 C7.7 7 4.4 7 1 7 C0.67 4.69 0.34 2.38 0 0 Z " fill="#00419A" transform="translate(260,422)"/>
<path d="M0 0 C0.78375 0.04125 1.5675 0.0825 2.375 0.125 C2.705 1.775 3.035 3.425 3.375 5.125 C-1.289787 9.46807755 -6.84073668 11.65326576 -12.625 14.125 C-12.955 13.465 -13.285 12.805 -13.625 12.125 C-11.24253661 9.44374582 -8.7704496 8.01076541 -5.5625 6.4375 C-4.68464844 6.00050781 -3.80679687 5.56351562 -2.90234375 5.11328125 C-0.625 4.125 -0.625 4.125 1.375 4.125 C1.375 3.465 1.375 2.805 1.375 2.125 C-0.605 2.125 -2.585 2.125 -4.625 2.125 C-2.625 0.125 -2.625 0.125 0 0 Z " fill="#E3EBF6" transform="translate(366.625,372.875)"/>
<path d="M0 0 C0.66 0.33 1.32 0.66 2 1 C1.71828671 3.77217867 1.42508608 6.54230241 1.125 9.3125 C1.04636719 10.09818359 0.96773438 10.88386719 0.88671875 11.69335938 C0.80292969 12.45068359 0.71914063 13.20800781 0.6328125 13.98828125 C0.55949707 14.68477783 0.48618164 15.38127441 0.41064453 16.09887695 C0 18 0 18 -2 21 C-2.66 21 -3.32 21 -4 21 C-3.63419196 13.54508438 -2.79080349 6.95068039 0 0 Z " fill="#131313" transform="translate(264,263)"/>
<path d="M0 0 C-4.54431011 5.1711115 -10.15281368 8.44663108 -16 12 C-16.33 11.34 -16.66 10.68 -17 10 C-6.04511278 -2.01503759 -6.04511278 -2.01503759 0 0 Z " fill="#171717" transform="translate(305,293)"/>
<path d="M0 0 C1.12865035 3.32575637 0.8691177 5.12203171 -0.375 8.375 C-1.65514162 11.91146429 -2.51962722 15.25309231 -3 19 C-4.5625 17.9375 -4.5625 17.9375 -6 16 C-5.78703518 10.56939721 -4.12870232 5.93858937 -2 1 C-1.34 0.67 -0.68 0.34 0 0 Z " fill="#1B1B1B" transform="translate(200,218)"/>
<path d="M0 0 C3.79049707 1.42749981 7.27122456 3.16236542 10.8125 5.125 C12.27623047 5.93324219 12.27623047 5.93324219 13.76953125 6.7578125 C14.50558594 7.16773438 15.24164063 7.57765625 16 8 C15.01 9.485 15.01 9.485 14 11 C7.07 7.04 7.07 7.04 0 3 C0 2.01 0 1.02 0 0 Z " fill="#E0E4E9" transform="translate(125,352)"/>
<path d="M0 0 C0.66 0.33 1.32 0.66 2 1 C2 1.66 2 2.32 2 3 C-4.93 6.465 -4.93 6.465 -12 10 C-12.33 9.01 -12.66 8.02 -13 7 C-10.88002166 5.80266012 -8.75486324 4.61701287 -6.625 3.4375 C-6.02171875 3.09525391 -5.4184375 2.75300781 -4.796875 2.40039062 C-3.23021759 1.53872905 -1.61709138 0.76281817 0 0 Z " fill="#1B1B1B" transform="translate(231,246)"/>
<path d="M0 0 C0.33 0 0.66 0 1 0 C1 2.97 1 5.94 1 9 C-3.95 8.67 -8.9 8.34 -14 8 C-12.68 7.67 -11.36 7.34 -10 7 C-10 5.35 -10 3.7 -10 2 C-9.67 2 -9.34 2 -9 2 C-9 3.65 -9 5.3 -9 7 C-5.22356171 6.07687064 -3.44174195 5.63976421 -1.1875 2.375 C-0.795625 1.59125 -0.40375 0.8075 0 0 Z " fill="#4A6A95" transform="translate(220,470)"/>
<path d="M0 0 C0.33 0 0.66 0 1 0 C0.6298852 6.16857998 -0.75775103 8.75775103 -5 13 C-7.3125 14.375 -7.3125 14.375 -9 15 C-7.61951891 10.97359682 -5.69553115 8.26731048 -3 5 C-2.443125 4.071875 -1.88625 3.14375 -1.3125 2.1875 C-0.879375 1.465625 -0.44625 0.74375 0 0 Z " fill="#EAF0F8" transform="translate(118,384)"/>
<path d="M0 0 C0.66 0.33 1.32 0.66 2 1 C2 1.66 2 2.32 2 3 C-2.62 5.64 -7.24 8.28 -12 11 C-12.66 10.01 -13.32 9.02 -14 8 C-11.7136988 6.63597957 -9.42178251 5.28365726 -7.125 3.9375 C-6.47402344 3.54755859 -5.82304687 3.15761719 -5.15234375 2.75585938 C-3.46934275 1.77555467 -1.73703801 0.88101568 0 0 Z " fill="#E2E6EA" transform="translate(373,352)"/>
<path d="M0 0 C2.89932357 2.39509338 3.50168276 4.31245243 4 8 C2.88625 8.12375 1.7725 8.2475 0.625 8.375 C-3.03103677 8.6465813 -3.03103677 8.6465813 -5 11 C-4.125 6.25 -4.125 6.25 -3 4 C-2.34 4 -1.68 4 -1 4 C-0.67 2.68 -0.34 1.36 0 0 Z " fill="#8B9FBB" transform="translate(231,463)"/>
<path d="M0 0 C1.216875 0.33 2.43375 0.66 3.6875 1 C6.87210604 1.80322213 9.6972843 2.20641973 13 2 C13.33 2.66 13.66 3.32 14 4 C13.34 4 12.68 4 12 4 C12 4.66 12 5.32 12 6 C10.41532272 5.71572583 8.8322943 5.42225182 7.25 5.125 C6.36828125 4.96257812 5.4865625 4.80015625 4.578125 4.6328125 C2.13052256 4.03203736 0.19400143 3.22002883 -2 2 C-1.34 2 -0.68 2 0 2 C0 1.34 0 0.68 0 0 Z " fill="#CFD6E0" transform="translate(171,392)"/>
<path d="M0 0 C1.98 0 3.96 0 6 0 C5.67 7.26 5.34 14.52 5 22 C4.34 22.33 3.68 22.66 3 23 C3 16.07 3 9.14 3 2 C2.01 2 1.02 2 0 2 C0 1.34 0 0.68 0 0 Z " fill="#6580A5" transform="translate(288,453)"/>
<path d="M0 0 C0.33 1.32 0.66 2.64 1 4 C2.42892578 4.09087891 2.42892578 4.09087891 3.88671875 4.18359375 C5.14097656 4.26738281 6.39523438 4.35117187 7.6875 4.4375 C8.92886719 4.51871094 10.17023438 4.59992188 11.44921875 4.68359375 C14.38180337 4.94491317 17.13441617 5.34798379 20 6 C16.25 8 16.25 8 14 8 C14 7.34 14 6.68 14 6 C12.88625 6.350625 11.7725 6.70125 10.625 7.0625 C7 8 7 8 5 7 C5 6.34 5 5.68 5 5 C3.35 5 1.7 5 0 5 C0 3.35 0 1.7 0 0 Z " fill="#1E5287" transform="translate(189,435)"/>
<path d="M0 0 C0.66 0.33 1.32 0.66 2 1 C-0.81688617 4.12987352 -3.09119128 5.53419673 -7 7 C-8.36365283 7.95824253 -9.70794169 8.94721175 -11 10 C-10.64184704 7.403391 -10.26228751 6.24285881 -8.3125 4.4375 C-5.60192497 2.75254796 -2.92881739 1.27339887 0 0 Z M-6 7 C-5.34 7.33 -4.68 7.66 -4 8 C-4.99 8.66 -5.98 9.32 -7 10 C-6.67 9.01 -6.34 8.02 -6 7 Z " fill="#2161B7" transform="translate(357,364)"/>
<path d="M0 0 C0.99 0 1.98 0 3 0 C2.8125 2.375 2.8125 2.375 2 5 C-1.61315766 7.16789459 -4.85941364 7.19258541 -9 7 C-8.34 6.01 -7.68 5.02 -7 4 C-3.375 3.8125 -3.375 3.8125 0 4 C0 2.68 0 1.36 0 0 Z " fill="#0F498F" transform="translate(276,440)"/>
<path d="M0 0 C1.32 0 2.64 0 4 0 C4.33 1.65 4.66 3.3 5 5 C4.38125 5.061875 3.7625 5.12375 3.125 5.1875 C0.72238859 5.828919 0.72238859 5.828919 -0.25 8.5625 C-0.4975 9.366875 -0.745 10.17125 -1 11 C-3 9 -3 9 -3.125 6.375 C-3.08375 5.59125 -3.0425 4.8075 -3 4 C-2.01 4 -1.02 4 0 4 C0 2.68 0 1.36 0 0 Z " fill="#0E478B" transform="translate(295,419)"/>
<path d="M0 0 C0.33 0.99 0.66 1.98 1 3 C-1.92811859 5.49432325 -4.13263984 6.71702243 -8 7 C-10.8125 6.0625 -10.8125 6.0625 -13 5 C-13 4.34 -13 3.68 -13 3 C-8.545 3.99 -8.545 3.99 -4 5 C-4 4.01 -4 3.02 -4 2 C-2.68 2 -1.36 2 0 2 C0 1.34 0 0.68 0 0 Z " fill="#0C4891" transform="translate(180,430)"/>
<path d="M0 0 C1.15941038 3.47823115 0.70820884 5.45895578 0 9 C-3.96 8.67 -7.92 8.34 -12 8 C-12 7.67 -12 7.34 -12 7 C-10.14375 6.938125 -10.14375 6.938125 -8.25 6.875 C-4.40735288 6.43214173 -4.14481969 6.17740412 -1.5 2.9375 C-1.005 1.968125 -0.51 0.99875 0 0 Z " fill="#284F81" transform="translate(199,467)"/>
<path d="M0 0 C2.31 0 4.62 0 7 0 C6.36449219 0.24234375 5.72898438 0.4846875 5.07421875 0.734375 C2.85243673 1.80776456 2.85243673 1.80776456 2.20703125 3.953125 C2.07683594 4.71109375 1.94664062 5.4690625 1.8125 6.25 C1.66683594 7.04792969 1.52117187 7.84585937 1.37109375 8.66796875 C1.24863281 9.43753906 1.12617188 10.20710938 1 11 C0.79375 12.175625 0.5875 13.35125 0.375 14.5625 C0.25125 15.366875 0.1275 16.17125 0 17 C-0.33 17 -0.66 17 -1 17 C-1.12036664 11.22240116 -0.8320582 5.72040011 0 0 Z " fill="#184E89" transform="translate(240,422)"/>
<path d="M0 0 C1.65 0.33 3.3 0.66 5 1 C4.04663979 2.31611677 3.08714226 3.62778961 2.125 4.9375 C1.59132812 5.66839844 1.05765625 6.39929688 0.5078125 7.15234375 C-1 9 -1 9 -3 10 C-2.39009109 6.44219804 -1.4216319 3.3171411 0 0 Z " fill="#134A8A" transform="translate(133,408)"/>
<path d="M0 0 C0.33 2.64 0.66 5.28 1 8 C0.278125 7.195625 -0.44375 6.39125 -1.1875 5.5625 C-4.02515689 2.97707928 -5.27166147 2.31957187 -9 2 C-9.33 2.99 -9.66 3.98 -10 5 C-10 3.68 -10 2.36 -10 1 C-3.375 0 -3.375 0 0 0 Z " fill="#395D8C" transform="translate(314,450)"/>
<path d="M0 0 C2.64 0 5.28 0 8 0 C5 1.5 5 1.5 2 3 C1.67 4.32 1.34 5.64 1 7 C4.3 7 7.6 7 11 7 C11 7.33 11 7.66 11 8 C7.37 8 3.74 8 0 8 C0 5.36 0 2.72 0 0 Z " fill="#2D5B7E" transform="translate(261,433)"/>
<path d="M0 0 C2.91517292 1.07401108 4.77810176 1.77810176 7 4 C6.625 6.125 6.625 6.125 6 8 C4.02 8 2.04 8 0 8 C0 7.34 0 6.68 0 6 C1.32 6 2.64 6 4 6 C4 5.01 4 4.02 4 3 C2.68 2.34 1.36 1.68 0 1 C0 0.67 0 0.34 0 0 Z " fill="#DFE8F4" transform="translate(145,368)"/>
<path d="M0 0 C0.33 1.32 0.66 2.64 1 4 C1.66 4 2.32 4 3 4 C2.67 6.64 2.34 9.28 2 12 C1.01 12 0.02 12 -1 12 C-0.67 8.04 -0.34 4.08 0 0 Z " fill="#3D3D3D" transform="translate(261,272)"/>
<path d="M0 0 C0.66 0 1.32 0 2 0 C2.33 2.97 2.66 5.94 3 9 C1.02 9 -0.96 9 -3 9 C-2.34 8.01 -1.68 7.02 -1 6 C-0.60986284 4.0103005 -0.26797351 2.00980131 0 0 Z " fill="#3A5D8C" transform="translate(315,465)"/>
<path d="M0 0 C2.45823172 3.68734758 3.01242616 6.69699971 4 11 C3.01 11 2.02 11 1 11 C0.63743142 9.5437328 0.28520207 8.08488815 -0.0625 6.625 C-0.35833984 5.40683594 -0.35833984 5.40683594 -0.66015625 4.1640625 C-1 2 -1 2 0 0 Z " fill="#E2EAF5" transform="translate(380,378)"/>
<path d="M0 0 C2 1.0625 2 1.0625 4 3 C4.375 6.5625 4.375 6.5625 4 10 C3.34 10.66 2.68 11.32 2 12 C1.00946272 9.02838815 1 7.08528008 1 4 C0.70955086 2.65667272 0.39044206 1.31774196 0 0 Z " fill="#F8F9FA" transform="translate(152,367)"/>
<path d="M0 0 C0.33 0.66 0.66 1.32 1 2 C-1.97 2.66 -4.94 3.32 -8 4 C-8.33 3.01 -8.66 2.02 -9 1 C-3.375 -1.125 -3.375 -1.125 0 0 Z " fill="#D1D9E4" transform="translate(343,389)"/>
<path d="M0 0 C6.75 2.75 6.75 2.75 9 5 C9.125 7.625 9.125 7.625 9 10 C7 9 7 9 5.6875 6.5625 C3.72713571 3.58565053 2.35337589 2.99694959 -1 2 C-0.67 1.34 -0.34 0.68 0 0 Z " fill="#2060B7" transform="translate(145,366)"/>
<path d="M0 0 C0.33 0.99 0.66 1.98 1 3 C4.0745356 2.2236068 4.0745356 2.2236068 6 0 C6 2.97 6 5.94 6 9 C1.3125 5.484375 1.3125 5.484375 0 4 C0 2.68 0 1.36 0 0 Z " fill="#2E5485" transform="translate(211,462)"/>
<path d="M0 0 C2.3828125 -0.29296875 2.3828125 -0.29296875 5.125 -0.1875 C6.03507812 -0.16042969 6.94515625 -0.13335937 7.8828125 -0.10546875 C8.58148438 -0.07066406 9.28015625 -0.03585937 10 0 C9.67 0.66 9.34 1.32 9 2 C6.49609375 2.4140625 6.49609375 2.4140625 3.4375 2.625 C2.42558594 2.69976562 1.41367187 2.77453125 0.37109375 2.8515625 C-0.41136719 2.90054687 -1.19382812 2.94953125 -2 3 C-1.34 2.01 -0.68 1.02 0 0 Z " fill="#F4F7FB" transform="translate(364,369)"/>
<path d="M0 0 C0.33 0.99 0.66 1.98 1 3 C3.31 3 5.62 3 8 3 C6.625 5 6.625 5 5 7 C4.34 7 3.68 7 3 7 C3 6.34 3 5.68 3 5 C2.01 5 1.02 5 0 5 C0 3.35 0 1.7 0 0 Z " fill="#1E538B" transform="translate(305,436)"/>
<path d="M0 0 C0.99 0.33 1.98 0.66 3 1 C-1.625 5.875 -1.625 5.875 -5 7 C-3.75023244 3.34683329 -3.32901247 2.21934164 0 0 Z " fill="#1F1F1F" transform="translate(302,292)"/>
<path d="M0 0 C0.89377528 3.57510111 1.0258444 5.24917563 0.5625 8.75 C0.40974609 9.94882812 0.40974609 9.94882812 0.25390625 11.171875 C0.12822266 12.07679688 0.12822266 12.07679688 0 13 C-0.99 12.67 -1.98 12.34 -3 12 C-2.01 8.04 -1.02 4.08 0 0 Z " fill="#2F5C7F" transform="translate(165,415)"/>
<path d="M0 0 C1.65 0.33 3.3 0.66 5 1 C4.34 2.32 3.68 3.64 3 5 C2.01 5 1.02 5 0 5 C-0.33 4.34 -0.66 3.68 -1 3 C-0.67 2.01 -0.34 1.02 0 0 Z " fill="#154C8A" transform="translate(167,409)"/>
<path d="M0 0 C1.85776765 3.13498292 2.20140476 5.37471432 2 9 C1.34 8.34 0.68 7.68 0 7 C-1.31747324 6.30251417 -2.64914193 5.63040043 -4 5 C-3.01 4.67 -2.02 4.34 -1 4 C-0.26676204 1.98491642 -0.26676204 1.98491642 0 0 Z " fill="#284F82" transform="translate(310,458)"/>
<path d="M0 0 C2.475 0.99 2.475 0.99 5 2 C5.33 1.34 5.66 0.68 6 0 C6 2.97 6 5.94 6 9 C4 7 4 7 3 4.9375 C2.15410058 2.83134399 2.15410058 2.83134399 0 2 C0 1.34 0 0.68 0 0 Z " fill="#4F6E98" transform="translate(264,455)"/>
<path d="M0 0 C0.99 0 1.98 0 3 0 C1.125 4.75 1.125 4.75 0 7 C-0.66 7 -1.32 7 -2 7 C-1.125 1.125 -1.125 1.125 0 0 Z " fill="#124988" transform="translate(138,398)"/>
<path d="M0 0 C-2.35277269 2.72426311 -4.62496331 3.8141763 -8 5 C-8 4.01 -8 3.02 -8 2 C-3.71900826 -1.23966942 -3.71900826 -1.23966942 0 0 Z " fill="#DDE6F4" transform="translate(363,371)"/>
<path d="M0 0 C0.33 0.66 0.66 1.32 1 2 C-0.98 4.97 -0.98 4.97 -3 8 C-3.66 7.67 -4.32 7.34 -5 7 C-3.75023244 3.34683329 -3.32901247 2.21934164 0 0 Z " fill="#1B1B1B" transform="translate(287,200)"/>
<path d="M0 0 C1.5 1.3125 1.5 1.3125 3 3 C3 3.99 3 4.98 3 6 C1.35 6 -0.3 6 -2 6 C-1.34 4.02 -0.68 2.04 0 0 Z " fill="#F5F6F9" transform="translate(231,463)"/>
<path d="M0 0 C1.65 0 3.3 0 5 0 C5.125 2.875 5.125 2.875 5 6 C4.34 6.66 3.68 7.32 3 8 C2.690625 7.05125 2.38125 6.1025 2.0625 5.125 C1.12605258 2.13919592 1.12605258 2.13919592 0 0 Z " fill="#2D5384" transform="translate(217,455)"/>
<path d="M0 0 C1.98 0 3.96 0 6 0 C5.67 0.99 5.34 1.98 5 3 C2.4375 4.1875 2.4375 4.1875 0 5 C0 3.35 0 1.7 0 0 Z " fill="#0E478A" transform="translate(260,422)"/>
<path d="M0 0 C0.66 0.33 1.32 0.66 2 1 C2 1.66 2 2.32 2 3 C0.03533587 4.06775224 -1.96855359 5.06553465 -4 6 C-4.66 5.67 -5.32 5.34 -6 5 C-2.25 1.125 -2.25 1.125 0 0 Z " fill="#111111" transform="translate(231,246)"/>
<path d="M0 0 C0.99 0 1.98 0 3 0 C3 0.66 3 1.32 3 2 C4.98 1.67 6.96 1.34 9 1 C7.515 2.485 7.515 2.485 6 4 C4.02 3.34 2.04 2.68 0 2 C0 1.34 0 0.68 0 0 Z " fill="#00429A" transform="translate(200,441)"/>
<path d="M0 0 C-2.31 1.65 -4.62 3.3 -7 5 C-7 3.35 -7 1.7 -7 0 C-4 -1 -4 -1 0 0 Z " fill="#235481" transform="translate(301,434)"/>
<path d="M0 0 C-5.41538462 4.06153846 -5.41538462 4.06153846 -8.375 3.75 C-8.91125 3.5025 -9.4475 3.255 -10 3 C-9 1 -9 1 -5.5625 -0.1875 C-2 -1 -2 -1 0 0 Z " fill="#1C5188" transform="translate(366,423)"/>
<path d="M0 0 C-0.33 2.31 -0.66 4.62 -1 7 C-1.99 6.67 -2.98 6.34 -4 6 C-3.625 3.5625 -3.625 3.5625 -3 1 C-1 0 -1 0 0 0 Z " fill="#D0DEF0" transform="translate(121,379)"/>
</svg>
