<?xml version="1.0" encoding="UTF-8"?>
<svg version="1.1" xmlns="http://www.w3.org/2000/svg" width="2048" height="2048">
<path d="M0 0 C675.84 0 1351.68 0 2048 0 C2048 675.84 2048 1351.68 2048 2048 C1372.16 2048 696.32 2048 0 2048 C0 1372.16 0 696.32 0 0 Z " fill="#FDFDFD" transform="translate(0,0)"/>
<path d="M0 0 C675.84 0 1351.68 0 2048 0 C2048 675.84 2048 1351.68 2048 2048 C1372.16 2048 696.32 2048 0 2048 C0 1372.16 0 696.32 0 0 Z M955.39208984 187.69091797 C952.314683 187.97132657 949.23659739 188.24286974 946.15818787 188.51200867 C930.37024484 189.89706889 914.64652301 191.43252988 899 194 C897.71222656 194.21027832 896.42445313 194.42055664 895.09765625 194.63720703 C876.64183134 197.66680821 858.25604152 200.91728004 840 205 C838.83162598 205.25894043 837.66325195 205.51788086 836.45947266 205.78466797 C820.39117225 209.36632036 804.5278988 213.35543845 788.77978516 218.15478516 C785.98551165 219.00440529 783.18700994 219.83841617 780.38671875 220.66796875 C766.76318525 224.56708986 766.76318525 224.56708986 753.5 229.5 C750.94023367 230.59704271 748.49984458 231.52555761 745.86328125 232.37890625 C741.09318626 233.95083631 736.39133001 235.67882814 731.6875 237.4375 C724.50232473 240.10664206 717.29835832 242.65461938 710 245 C710 245.66 710 246.32 710 247 C709.15308594 247.11085937 708.30617188 247.22171875 707.43359375 247.3359375 C696.55573818 249.43973209 685.99246136 255.28004887 676.02685547 260.03955078 C673.8069219 261.09149232 671.57823029 262.12316598 669.34765625 263.15234375 C668.57147949 263.51215332 667.79530273 263.87196289 666.99560547 264.24267578 C665.4842635 264.94319413 663.97161216 265.64089611 662.45751953 266.33544922 C658.42349095 268.20915972 658.42349095 268.20915972 655 271 C653.60274949 271.60913194 652.18144325 272.16374345 650.75 272.6875 C639.38710449 277.10186228 628.68321561 283.16149845 618 289 C618 289.66 618 290.32 618 291 C616.8553125 291.309375 616.8553125 291.309375 615.6875 291.625 C600.20890369 297.39667998 585.43169491 307.82685606 571.83203125 317.08984375 C569.26588539 318.82066489 566.66899738 320.49215957 564.05371094 322.14746094 C557.10165789 326.54951808 550.36240767 331.20612629 543.68481445 336.01464844 C543.00249756 336.50352539 542.32018066 336.99240234 541.6171875 337.49609375 C541.01503418 337.93107178 540.41288086 338.3660498 539.79248047 338.81420898 C537.9252957 340.04941961 536.02022232 341.03937956 534 342 C534 342.66 534 343.32 534 344 C533.21109375 344.35384766 533.21109375 344.35384766 532.40625 344.71484375 C529.24626239 346.4025644 526.39575753 348.46603835 523.5 350.5625 C522.89140137 351.00142578 522.28280273 351.44035156 521.65576172 351.89257812 C519.76777961 353.25799813 517.8839001 354.6289557 516 356 C515.39833008 356.43425293 514.79666016 356.86850586 514.17675781 357.31591797 C512.48747361 358.53678847 510.80518899 359.76665349 509.125 361 C508.13757813 361.721875 507.15015625 362.44375 506.1328125 363.1875 C505.42898438 363.785625 504.72515625 364.38375 504 365 C504 365.66 504 366.32 504 367 C503.484375 367.226875 502.96875 367.45375 502.4375 367.6875 C499.10452995 369.48217618 495.85296329 371.49965015 493 374 C493 374.66 493 375.32 493 376 C491.92105469 376.35384766 491.92105469 376.35384766 490.8203125 376.71484375 C487.52490674 378.21648986 485.49310525 380.06553097 482.875 382.5625 C479.09873298 386.0944802 475.28773059 389.45064159 471.25 392.6875 C467.39805476 395.79106731 463.83556669 398.99638823 460.4375 402.58984375 C459 404 459 404 456 406 C456 406.66 456 407.32 456 408 C455.42765625 408.24363281 454.8553125 408.48726562 454.265625 408.73828125 C451.59566462 410.22517298 449.86170993 411.98083908 447.75 414.1875 C444.96139532 417.0442302 442.16693127 419.78998433 439.125 422.375 C433.79164088 426.94950442 428.9315056 432.00215128 424 437 C423.1853125 437.80824219 422.370625 438.61648438 421.53125 439.44921875 C418.69149467 442.31088578 415.92615814 445.2294567 413.1875 448.1875 C412.68541016 448.72052734 412.18332031 449.25355469 411.66601562 449.80273438 C408.87914293 452.46351418 408.87914293 452.46351418 408 456 C407.01 456.33 406.02 456.66 405 457 C403.41983233 458.52069973 403.41983233 458.52069973 401.875 460.4375 C399.18052344 463.61879375 396.43733361 466.73466636 393.625 469.8125 C389.72636603 474.13260791 386.02496142 478.58071381 382.3671875 483.10546875 C380.3158983 485.61372832 378.22532672 488.08138433 376.11254883 490.5378418 C369.61469023 498.10683996 363.57433247 505.98902442 357.56347656 513.94726562 C356.0674651 515.91142308 354.55116553 517.85732464 353.0234375 519.796875 C352.56396729 520.38275391 352.10449707 520.96863281 351.63110352 521.57226562 C350.3994156 523.13941233 349.16278347 524.70266965 347.92578125 526.265625 C346.13474506 528.80867841 345.00011757 531.06917419 344 534 C343.34 534 342.68 534 342 534 C340.51960822 536.00499018 340.51960822 536.00499018 339 538.625 C335.658346 544.06490185 332.02911317 549.21147735 328.20117188 554.31494141 C325.57896368 557.77919858 325.57896368 557.77919858 325 562 C324.34 562 323.68 562 323 562 C321.31214097 564.23799764 321.31214097 564.23799764 319.625 567.0625 C319.00753906 568.0628125 318.39007813 569.063125 317.75390625 570.09375 C317.17511719 571.0528125 316.59632813 572.011875 316 573 C315.55527344 573.7321875 315.11054688 574.464375 314.65234375 575.21875 C312.64351787 578.39336001 312.64351787 578.39336001 312 582 C311.34 582 310.68 582 310 582 C309.443125 582.99257813 308.88625 583.98515625 308.3125 585.0078125 C306.28898702 588.61216708 304.26130329 592.21415662 302.23144531 595.81494141 C301.45401227 597.19440725 300.67723148 598.57424107 299.90136719 599.95458984 C296.58679651 605.84663829 293.24814664 611.68180007 289.5 617.3125 C286.12903518 622.51451162 283.56517206 627.962857 280.98706055 633.58325195 C277.54534291 641.0718886 273.69860208 648.2999347 269.59375 655.44921875 C266.94090713 660.08360583 264.81761509 664.71600921 262.9140625 669.70703125 C262 672 262 672 260.25 675.375 C258.71337761 678.11733604 258.71337761 678.11733604 259 682 C258.34 682 257.68 682 257 682 C255.3225514 685.99553084 253.65879701 689.99669713 252 694 C251.66226563 694.81500977 251.32453125 695.63001953 250.9765625 696.46972656 C244.03675797 713.24707316 237.60252436 730.10868724 231.65625 747.26171875 C230.29774902 751.17206147 228.87436224 755.05520875 227.4375 758.9375 C224.45157523 767.27076718 222.13187855 775.78805004 219.75732422 784.31054688 C219.04429861 786.84268423 218.31057808 789.36748923 217.56640625 791.890625 C208.54166998 822.59561607 201.50510224 853.71228061 196.44775391 885.31103516 C196.02587872 887.8445866 195.5559468 890.36397196 195.07421875 892.88671875 C191.985481 909.88301099 190.1945822 926.99193248 188.69238281 944.19165039 C188.37622777 947.79849304 188.04807442 951.40410428 187.71875 955.00976562 C185.81430911 976.23812898 184.78278883 997.43608973 184.8125 1018.75 C184.81310425 1019.58084106 184.8137085 1020.41168213 184.81433105 1021.2677002 C184.86982457 1050.10132109 186.36275948 1078.84766007 188.9375 1107.5625 C189.05647644 1108.90785828 189.05647644 1108.90785828 189.17785645 1110.28039551 C190.15769556 1121.19680175 191.50898178 1131.98887821 193.31860352 1142.79931641 C193.98366003 1146.79365475 194.50753825 1150.79327974 195 1154.8125 C195.76062115 1160.70259932 196.9103104 1166.41718601 198.21875 1172.20703125 C199.12341411 1176.5991755 199.78364705 1181.00259459 200.4375 1185.4375 C201.47101475 1192.30328036 202.92134773 1198.86892447 204.82421875 1205.5546875 C206.83370703 1212.86223839 208.31057594 1220.31383678 209.89379883 1227.72265625 C210.13767334 1228.84800781 210.38154785 1229.97335937 210.6328125 1231.1328125 C210.84824707 1232.14230957 211.06368164 1233.15180664 211.28564453 1234.19189453 C211.98094038 1236.92507732 212.92641466 1239.39668345 214 1242 C214.49291802 1243.90213179 214.98283446 1245.8052347 215.44189453 1247.71582031 C216.51924416 1252.12513051 217.74200739 1256.49654594 218.9375 1260.875 C219.31551758 1262.26912109 219.31551758 1262.26912109 219.70117188 1263.69140625 C221.9445165 1271.9189157 224.2015024 1280.09844491 227.27197266 1288.06054688 C228.26591617 1290.70839639 229.1241636 1293.3934432 229.98974609 1296.08544922 C233.20143318 1306.04864646 236.98393934 1315.72547171 240.94580078 1325.41064453 C243.09556208 1330.69095216 245.19089914 1335.99322096 247.29833984 1341.29052734 C250.21440563 1348.59356794 253.34115655 1355.79949222 256.5 1363 C257.09401777 1364.35404923 257.6877699 1365.70821502 258.28125 1367.0625 C258.57443115 1367.73095947 258.8676123 1368.39941895 259.16967773 1369.08813477 C259.90004862 1370.76985615 260.60988422 1372.4604646 261.31640625 1374.15234375 C263.83723961 1380.03982734 266.65905062 1385.79353775 269.4375 1391.5625 C269.74480042 1392.20083771 270.05210083 1392.83917542 270.36871338 1393.49685669 C276.18752606 1405.55328161 282.42423287 1417.33793476 289 1429 C289.70057603 1430.25387541 290.40110212 1431.50777873 291.1015625 1432.76171875 C295.48804126 1440.53282618 300.07759761 1448.17915467 304.70117188 1455.81103516 C307.92335798 1461.14308813 311.01333087 1466.53250167 314 1472 C314.66 1472 315.32 1472 316 1472 C316.22558594 1472.66 316.45117188 1473.32 316.68359375 1474 C318.41662953 1477.94947027 320.69492839 1481.40424557 323.0625 1485 C323.55057129 1485.74677002 324.03864258 1486.49354004 324.54150391 1487.26293945 C332.12618733 1499.03892636 332.12618733 1499.03892636 340.62890625 1510.140625 C342.41071207 1512.28935953 343.79515816 1514.11623553 345.0625 1516.5625 C346.83956084 1519.71534988 348.72071888 1522.20511848 351 1525 C352.58899889 1527.03759382 354.17300739 1529.07817959 355.75 1531.125 C356.3987207 1531.96454224 356.3987207 1531.96454224 357.06054688 1532.82104492 C360.63982918 1537.47582009 364.0511893 1542.23131906 367.40625 1547.05078125 C367.9321875 1547.69402344 368.458125 1548.33726563 369 1549 C369.66 1549 370.32 1549 371 1549 C371.36931641 1550.09248047 371.36931641 1550.09248047 371.74609375 1551.20703125 C373.12973079 1554.28896422 374.76143151 1556.22773713 377.0625 1558.6875 C380.91780822 1562.83561644 380.91780822 1562.83561644 382 1565 C382.66 1565 383.32 1565 384 1565 C384.23332031 1565.55171875 384.46664062 1566.1034375 384.70703125 1566.671875 C386.34019284 1569.61255267 388.39339207 1571.79077251 390.6875 1574.25 C395.9628639 1579.95801964 401.10080281 1585.75792718 406.125 1591.6875 C407.84026755 1593.69694272 409.56482524 1595.56482524 411.4375 1597.4375 C413.56546656 1599.56546656 415.53295308 1601.72706241 417.5 1604 C420.90816239 1607.92455064 424.30405057 1611.69542352 428.4375 1614.875 C430.556554 1616.63226429 432.08214847 1618.21269503 433.8125 1620.3125 C436.55190507 1623.59560379 439.53504874 1626.33960967 442.78515625 1629.109375 C449.73015417 1635.03773302 456.37938103 1641.21098015 462.6875 1647.8125 C464.71162149 1650.22906662 464.71162149 1650.22906662 467 1650 C467 1650.66 467 1651.32 467 1652 C468.57286684 1653.41438406 470.21139996 1654.75604401 471.875 1656.0625 C476.66873086 1659.88636521 481.22849103 1663.87207022 485.7109375 1668.0546875 C488.02111828 1670.01794694 490.39547814 1671.46135507 493 1673 C494.66666667 1674.66666667 496.33333333 1676.33333333 498 1678 C498.825 1678.495 499.65 1678.99 500.5 1679.5 C503 1681 503 1681 505.16796875 1683.22265625 C508.49583109 1686.48625642 512.06272305 1689.18248984 515.8125 1691.9375 C517.17317708 1692.94661458 518.53385417 1693.95572917 519.89453125 1694.96484375 C520.56822754 1695.45968262 521.24192383 1695.95452148 521.93603516 1696.46435547 C523.35445903 1697.51970041 524.75983317 1698.59274222 526.15380859 1699.68017578 C527.19722412 1700.49010986 527.19722412 1700.49010986 528.26171875 1701.31640625 C529.19504028 1702.05225952 529.19504028 1702.05225952 530.1472168 1702.80297852 C532.1024447 1704.06618611 533.7255512 1704.57214584 536 1705 C536 1705.66 536 1706.32 536 1707 C537.67703883 1708.26004539 539.42099233 1709.43129522 541.1875 1710.5625 C542.28320312 1711.2740625 543.37890625 1711.985625 544.5078125 1712.71875 C545.3726123 1713.27949219 545.3726123 1713.27949219 546.25488281 1713.8515625 C549.0635064 1715.69987886 551.80832459 1717.63391674 554.5625 1719.5625 C560.28114071 1723.53415739 566.08148649 1727.3336642 572 1731 C572.93585938 1731.58265625 573.87171875 1732.1653125 574.8359375 1732.765625 C579.1271037 1735.78122429 579.1271037 1735.78122429 584 1737 C584 1737.66 584 1738.32 584 1739 C585.61305421 1740.2134676 585.61305421 1740.2134676 587.734375 1741.35546875 C588.53045166 1741.80962158 589.32652832 1742.26377441 590.14672852 1742.73168945 C591.4353479 1743.45231567 591.4353479 1743.45231567 592.75 1744.1875 C594.50397479 1745.18477529 596.25788114 1746.18217098 598.01171875 1747.1796875 C598.86942871 1747.66405273 599.72713867 1748.14841797 600.61083984 1748.64746094 C603.60935011 1750.34496215 606.58777139 1752.07366781 609.5625 1753.8125 C610.48933594 1754.35261719 611.41617187 1754.89273437 612.37109375 1755.44921875 C614.97142971 1756.9831465 617.54824624 1758.55186594 620.125 1760.125 C625.64647718 1763.45033408 631.33575624 1766.61385516 637.375 1768.8984375 C641.25636994 1770.52722667 644.79295446 1772.7308772 648.38867188 1774.90234375 C652.57754735 1777.36418565 656.84245829 1779.18832142 661.36987305 1780.94189453 C665.86615406 1782.7507576 670.2034172 1784.88611709 674.5625 1787 C684.68496335 1791.88721713 694.81563234 1796.39946092 705.33789062 1800.35546875 C709.77833255 1802.05181735 713.99250894 1803.96462325 718.22045898 1806.13427734 C720.42639569 1807.20743574 722.63307908 1807.92678982 725 1808.5625 C729.44178272 1809.77048483 733.70317113 1811.36152962 738 1813 C751.04316165 1817.90456048 764.11475692 1822.40232593 777.50146484 1826.2734375 C781.82171535 1827.52974642 786.12873412 1828.82997128 790.4375 1830.125 C791.2828833 1830.37709229 792.1282666 1830.62918457 792.99926758 1830.88891602 C797.45856342 1832.22094772 801.88850442 1833.61686365 806.3125 1835.0625 C815.12257664 1837.79158544 824.19687244 1839.50980681 833.21386719 1841.40625 C836.38477349 1842.0819987 839.54541643 1842.79679052 842.70581055 1843.51977539 C860.87842341 1847.66226346 879.19457706 1851.05742306 897.64941406 1853.65722656 C899.95600292 1853.99358414 902.25494704 1854.36202431 904.5546875 1854.7421875 C919.01322275 1857.10025145 933.5646543 1858.39459707 948.15039062 1859.66357422 C951.61671899 1859.96650423 955.081848 1860.2802615 958.546875 1860.59765625 C998.26273977 1864.17054321 1038.00227429 1863.57394032 1077.76312256 1861.13604736 C1079.90128617 1861.0060038 1082.0396674 1860.88074035 1084.17822266 1860.75732422 C1099.57783029 1859.85730993 1114.82688086 1858.47765074 1130.11035156 1856.38671875 C1133.03727941 1855.99501093 1135.96658097 1855.63404199 1138.8984375 1855.28125 C1148.81423143 1854.07403817 1158.58779273 1852.61218164 1168.36328125 1850.55102539 C1174.96415422 1849.16733049 1181.59058655 1848.06242304 1188.25 1847 C1196.9564358 1845.59040617 1205.41066879 1843.84719949 1213.93066406 1841.54736328 C1217.11513509 1840.70503388 1220.31532146 1839.9282366 1223.51416016 1839.14257812 C1231.11129233 1837.27277713 1238.65869957 1835.29788103 1246.16796875 1833.09765625 C1249.22702954 1832.22141152 1252.28925233 1831.3796542 1255.36328125 1830.55859375 C1268.07719095 1827.19606138 1268.07719095 1827.19606138 1280.5078125 1822.9296875 C1283.45245784 1821.83121479 1286.43023035 1820.91279479 1289.4375 1820 C1298.82232329 1817.14905486 1308.00071375 1814.12963603 1317.015625 1810.24609375 C1319.94077111 1809.02473039 1322.88735641 1807.9040828 1325.85839844 1806.80102539 C1329.58731426 1805.40629525 1333.29193396 1803.94905652 1337 1802.5 C1342.65167331 1800.29141094 1348.31416265 1798.11926665 1354 1796 C1354 1795.34 1354 1794.68 1354 1794 C1355.175625 1793.87625 1355.175625 1793.87625 1356.375 1793.75 C1366.00047957 1791.75852147 1374.66535985 1786.75144489 1383.36132812 1782.33105469 C1386.39452155 1780.80098709 1389.43876151 1779.29425436 1392.484375 1777.7890625 C1407.17426548 1770.51748519 1421.69425232 1763.00845198 1436 1755 C1436.69818848 1754.61086426 1437.39637695 1754.22172852 1438.11572266 1753.82080078 C1444.90746868 1750.02774471 1451.56165166 1746.07040186 1458.09375 1741.84375 C1461.50253628 1739.68118666 1464.96582447 1737.62189443 1468.4375 1735.5625 C1475.11034794 1731.59072678 1481.57310677 1727.35956149 1488 1723 C1490.04086999 1721.64463296 1492.08253877 1720.29046795 1494.125 1718.9375 C1498.8164171 1715.81400388 1503.44434725 1712.61153974 1508.0390625 1709.34765625 C1510 1708 1510 1708 1512 1707 C1512 1706.34 1512 1705.68 1512 1705 C1512.57878906 1704.7215625 1513.15757813 1704.443125 1513.75390625 1704.15625 C1527.77436428 1696.93876204 1540.03173167 1685.43411759 1552.1796875 1675.48828125 C1553.77261865 1674.18590621 1555.3702952 1672.88933968 1556.96875 1671.59375 C1568.08961434 1662.56622483 1578.9152702 1653.23208245 1589.40673828 1643.47998047 C1591.16249371 1641.84905963 1592.92289206 1640.22323539 1594.68359375 1638.59765625 C1595.93507327 1637.440296 1597.18637831 1636.28274705 1598.4375 1635.125 C1599.01693359 1634.5894751 1599.59636719 1634.0539502 1600.19335938 1633.50219727 C1602.75202327 1631.1278376 1605.26501742 1628.73422431 1607.73046875 1626.26171875 C1610 1624 1610 1624 1612.875 1621.6875 C1615.17020999 1619.80750388 1617.08327782 1617.82596589 1619 1615.5625 C1622.46177659 1611.4902762 1626.20216057 1607.75417469 1630 1604 C1634.21643474 1599.82298142 1638.33563801 1595.64310963 1642.171875 1591.109375 C1644.16155322 1588.81359244 1646.22245194 1586.59691547 1648.29638672 1584.37744141 C1653.28956767 1579.03212768 1658.0663642 1573.59348277 1662.6484375 1567.88671875 C1665.87660373 1563.92390339 1669.21891583 1560.0629563 1672.57617188 1556.20922852 C1675.92272565 1552.34163047 1679.09151318 1548.36123659 1682.21484375 1544.31152344 C1683.95031758 1542.06433167 1685.7042917 1539.83304508 1687.46484375 1537.60546875 C1693.25553494 1530.25088026 1698.87732658 1522.91305749 1703.953125 1515.0390625 C1706.45254769 1511.32808759 1709.15545115 1507.80101957 1711.875 1504.25 C1717.38690887 1497.02617757 1722.23567477 1489.50541783 1726.92578125 1481.72949219 C1727.99712851 1480.0046231 1729.12860558 1478.33539691 1730.28125 1476.6640625 C1732.18070896 1474.24829834 1732.18070896 1474.24829834 1732 1472 C1732.99 1471.67 1733.98 1471.34 1735 1471 C1735.33 1469.845 1735.66 1468.69 1736 1467.5 C1736.33 1466.345 1736.66 1465.19 1737 1464 C1737.99 1463.67 1738.98 1463.34 1740 1463 C1741.07657546 1461.04015682 1742.06061043 1459.02917403 1743 1457 C1743.68344542 1455.73699554 1744.37940625 1454.48070532 1745.0859375 1453.23046875 C1745.45726807 1452.57320801 1745.82859863 1451.91594727 1746.21118164 1451.23876953 C1746.5952417 1450.56185059 1746.97930176 1449.88493164 1747.375 1449.1875 C1748.17321865 1447.77215886 1748.97139599 1446.35679442 1749.76953125 1444.94140625 C1751.07385435 1442.63341944 1752.38359393 1440.32893108 1753.69921875 1438.02734375 C1754.14910156 1437.23457031 1754.59898438 1436.44179687 1755.0625 1435.625 C1755.63677734 1434.62339844 1755.63677734 1434.62339844 1756.22265625 1433.6015625 C1757.14555011 1431.99683009 1757.14555011 1431.99683009 1757 1430 C1757.66 1430 1758.32 1430 1759 1430 C1759.4846875 1429.030625 1759.969375 1428.06125 1760.46875 1427.0625 C1768.92578125 1410.1484375 1768.92578125 1410.1484375 1769.8659668 1408.26855469 C1770.50466972 1406.99081936 1771.14284107 1405.7128182 1771.78051758 1404.43457031 C1773.76557245 1400.4577332 1775.7643235 1396.48818056 1777.7734375 1392.5234375 C1784.23071007 1379.76002822 1784.23071007 1379.76002822 1789.8984375 1366.6328125 C1791.10378265 1363.75195212 1792.49692731 1361.0203321 1793.9375 1358.25 C1797.21651722 1351.80043178 1799.67867646 1345.12705779 1802.14208984 1338.34082031 C1803.78490997 1333.85836174 1805.48893393 1329.39906168 1807.1875 1324.9375 C1807.52056152 1324.05715088 1807.85362305 1323.17680176 1808.19677734 1322.26977539 C1809.5842873 1318.61962665 1810.99670358 1315.00757845 1812.5546875 1311.42578125 C1814.24153738 1307.42749114 1815.60025163 1303.37541342 1816.9375 1299.25 C1818.56022208 1294.29637472 1820.20198175 1289.370625 1822.0625 1284.5 C1824.09510194 1279.01787857 1825.60664327 1273.41340031 1827.13818359 1267.77587891 C1828.67014517 1262.13972947 1830.33310365 1256.55816812 1832.10546875 1250.9921875 C1832.96868755 1248.10473946 1833.72188463 1245.20302054 1834.43969727 1242.27636719 C1835.06745716 1239.72593875 1835.71671418 1237.18144718 1836.3671875 1234.63671875 C1839.15593031 1223.65955636 1841.7980994 1212.68367223 1844.04296875 1201.58203125 C1844.7483895 1198.10027598 1845.56663644 1194.65578533 1846.40234375 1191.203125 C1848.4919596 1182.18892985 1849.92876176 1173.07262377 1851.375 1163.9375 C1851.52585052 1162.98846802 1851.67670105 1162.03943604 1851.8321228 1161.06164551 C1856.73548103 1130.00736625 1860.33838586 1098.80240652 1861.83691406 1067.39257812 C1861.98572845 1064.29688245 1862.15722926 1061.20345971 1862.3359375 1058.109375 C1865.41546979 1001.31569295 1862.14855386 942.7156076 1851.859375 886.7578125 C1851.20618575 883.19593781 1850.6038287 879.62785595 1850.015625 876.0546875 C1846.74425211 856.52926889 1842.25956563 837.35651299 1837.52563477 818.14282227 C1837.02417462 816.09855117 1836.53073422 814.05250321 1836.0390625 812.00585938 C1833.63983713 802.10298678 1830.83766309 792.33800239 1827.90087891 782.58203125 C1827.12637347 780.00457074 1826.36174257 777.42431573 1825.59765625 774.84375 C1822.82659949 765.56149027 1819.81207853 756.4441967 1816.3046875 747.41333008 C1814.71256032 743.24799884 1813.3166549 739.03245732 1811.92578125 734.796875 C1809.42231946 727.23367398 1806.5830475 719.97093121 1803.21875 712.75 C1801.62532671 709.15458334 1800.34390892 705.47720462 1799.0390625 701.76953125 C1797.58976371 697.90655065 1795.84619417 694.1994801 1794.10546875 690.4609375 C1792.86363895 687.69644006 1791.86353004 684.90460103 1791 682 C1790.34 682 1789.68 682 1789 682 C1788.85498047 680.70835937 1788.85498047 680.70835937 1788.70703125 679.390625 C1787.9255699 675.64306451 1786.5918823 673.06126002 1784.6875 669.75 C1782.57035806 665.94857308 1780.5927744 662.2613386 1779.0625 658.1875 C1774.80349265 647.01662902 1768.84222613 636.47763098 1762.88208008 626.14013672 C1761.33387903 623.44482655 1759.98608218 620.95824655 1759 618 C1758.34 618 1757.68 618 1757 618 C1756.731875 617.13375 1756.46375 616.2675 1756.1875 615.375 C1755.02888013 612.08208036 1753.61790161 609.08872125 1752 606 C1751.34 606 1750.68 606 1750 606 C1749.90460938 605.29875 1749.80921875 604.5975 1749.7109375 603.875 C1748.86870599 600.46905279 1747.43843355 597.99943439 1745.625 595 C1745.01914063 593.989375 1744.41328125 592.97875 1743.7890625 591.9375 C1743.19867187 590.968125 1742.60828125 589.99875 1742 589 C1741.47148438 588.05125 1740.94296875 587.1025 1740.3984375 586.125 C1739.70621094 585.073125 1739.70621094 585.073125 1739 584 C1738.34 584 1737.68 584 1737 584 C1736.773125 583.18273437 1736.54625 582.36546875 1736.3125 581.5234375 C1734.69638687 577.18494332 1732.46795573 573.52437005 1730 569.625 C1729.54882812 568.88894531 1729.09765625 568.15289063 1728.6328125 567.39453125 C1728.19710938 566.69972656 1727.76140625 566.00492188 1727.3125 565.2890625 C1726.91675781 564.65693848 1726.52101563 564.02481445 1726.11328125 563.37353516 C1725.74589844 562.92026855 1725.37851563 562.46700195 1725 562 C1724.34 562 1723.68 562 1723 562 C1722.90976563 561.45601562 1722.81953125 560.91203125 1722.7265625 560.3515625 C1721.77538266 557.2730127 1720.19231601 555.03431571 1718.375 552.375 C1717.65828125 551.32570313 1716.9415625 550.27640625 1716.203125 549.1953125 C1715.11257813 547.61363281 1715.11257813 547.61363281 1714 546 C1713.33484375 545.00742187 1712.6696875 544.01484375 1711.984375 542.9921875 C1711.37078125 542.08726562 1710.7571875 541.18234375 1710.125 540.25 C1709.57070312 539.43015625 1709.01640625 538.6103125 1708.4453125 537.765625 C1707.96835938 537.18296875 1707.49140625 536.6003125 1707 536 C1706.34 536 1705.68 536 1705 536 C1704.64808594 534.69095703 1704.64808594 534.69095703 1704.2890625 533.35546875 C1702.83947254 529.58214215 1701.04090217 527.33743233 1698.375 524.3125 C1694.22252242 519.51532143 1690.42983124 514.56706266 1686.7421875 509.3984375 C1685.32405273 507.44611744 1683.87586254 505.58525168 1682.3125 503.75 C1680.10651565 501.12666725 1678.14565573 498.43745048 1676.2109375 495.61328125 C1675.04372579 493.97926704 1675.04372579 493.97926704 1673.62890625 492.62890625 C1671.43026213 490.43026213 1669.52261042 488.03795212 1667.5625 485.625 C1666.80066406 484.68914062 1666.03882813 483.75328125 1665.25390625 482.7890625 C1663.77726668 480.96181701 1662.309451 479.12739717 1660.8515625 477.28515625 C1659.02202399 474.94601216 1659.02202399 474.94601216 1656.8125 472.8125 C1653.49395563 469.49395563 1650.39580249 466.00935492 1647.28125 462.5 C1645.76171386 460.83475492 1644.19819074 459.20860385 1642.59375 457.625 C1638.99847932 453.98641281 1635.75350078 450.08283849 1632.4609375 446.171875 C1628.61479628 441.63540074 1624.7017039 437.37584571 1620.0625 433.625 C1617.8107339 431.79150089 1615.97067179 429.86581562 1614.125 427.625 C1611.40950528 424.36077837 1608.44236634 421.64114329 1605.21484375 418.890625 C1598.71600496 413.34311534 1592.39590387 407.61340953 1586.5 401.42578125 C1582.53624918 397.34275089 1578.33224357 393.79733687 1573.85546875 390.2890625 C1570.58294648 387.66567255 1567.41770602 384.9355639 1564.25 382.1875 C1558.32647517 377.06306453 1552.24647761 372.17547007 1546.05859375 367.375 C1544.08784247 365.84471037 1542.14012709 364.28404394 1540.22265625 362.6875 C1538.19962594 360.79843573 1538.19962594 360.79843573 1536 361 C1536 360.34 1536 359.68 1536 359 C1534.58782561 357.68418064 1534.58782561 357.68418064 1532.6875 356.375 C1531.95789062 355.84648437 1531.22828125 355.31796875 1530.4765625 354.7734375 C1529.65929688 354.18820312 1528.84203125 353.60296875 1528 353 C1527.12085938 352.35289062 1526.24171875 351.70578125 1525.3359375 351.0390625 C1520.45988442 347.45413333 1515.53332029 343.99539779 1510.4765625 340.671875 C1507.4596377 338.63521283 1504.51345033 336.5052964 1501.5625 334.375 C1489.8501445 325.96051676 1477.97077233 317.83795041 1465.30859375 310.9140625 C1462.67641892 309.39131673 1460.18754259 307.80942345 1457.671875 306.109375 C1453.16444623 303.07030761 1448.5322236 300.31911637 1443.8125 297.625 C1442.98516357 297.15022217 1442.15782715 296.67544434 1441.30541992 296.1862793 C1439.64177256 295.23192273 1437.97748044 294.27868912 1436.3125 293.32666016 C1434.27558818 292.15810243 1432.24547821 290.97906538 1430.21875 289.79296875 C1417.63129404 282.4743447 1404.57656794 276.19487304 1391.38208008 270.05688477 C1387.44867319 268.21606203 1383.69347601 266.29629419 1380 264 C1367.58467573 256.9299153 1367.58467573 256.9299153 1354 254 C1354 253.34 1354 252.68 1354 252 C1352.90300781 251.59007812 1351.80601563 251.18015625 1350.67578125 250.7578125 C1349.22134314 250.21357114 1347.76691667 249.66929867 1346.3125 249.125 C1345.59126953 248.85558594 1344.87003906 248.58617187 1344.12695312 248.30859375 C1343.06831055 247.91220703 1343.06831055 247.91220703 1341.98828125 247.5078125 C1341.29943848 247.25032227 1340.6105957 246.99283203 1339.90087891 246.72753906 C1338.31051759 246.11884696 1336.73682015 245.46685099 1335.16796875 244.8046875 C1332.91666301 243.82601277 1332.91666301 243.82601277 1330 244 C1330 243.34 1330 242.68 1330 242 C1329.23816406 241.74605469 1328.47632813 241.49210937 1327.69140625 241.23046875 C1326.65886719 240.88628906 1325.62632813 240.54210937 1324.5625 240.1875 C1322.92667969 239.64416016 1322.92667969 239.64416016 1321.2578125 239.08984375 C1319.27021284 238.42492732 1317.28511785 237.7523814 1315.3046875 237.06640625 C1314.52351563 236.79699219 1313.74234375 236.52757812 1312.9375 236.25 C1312.24527344 236.00765625 1311.55304688 235.7653125 1310.83984375 235.515625 C1308.83700507 234.8650713 1308.83700507 234.8650713 1306 235 C1306 234.34 1306 233.68 1306 233 C1304.97261719 232.68546875 1303.94523437 232.3709375 1302.88671875 232.046875 C1290.30869842 228.17026541 1290.30869842 228.17026541 1284.8125 226.0625 C1276.91337734 223.12108496 1268.74432522 220.99578131 1260.63085938 218.73486328 C1258.24653146 218.06886226 1255.86501382 217.39388859 1253.484375 216.71484375 C1242.9378645 213.72270571 1232.32393953 211.03155888 1221.6796875 208.41015625 C1218.36381272 207.59294016 1215.05552872 206.75869282 1211.7578125 205.87109375 C1203.0600424 203.56555178 1194.36556752 201.94855898 1185.4765625 200.56982422 C1179.96864929 199.70589362 1174.51207671 198.70484384 1169.0554657 197.56600952 C1157.89816006 195.24761009 1146.75374989 193.67697368 1135.4375 192.375 C1133.71410938 192.16997005 1131.99080176 191.96424118 1130.26757812 191.7578125 C1125.18053421 191.15241348 1120.09104613 190.5706878 1115 190 C1114.17843414 189.90756012 1113.35686829 189.81512024 1112.51040649 189.71987915 C1101.78667353 188.52280943 1091.08631113 187.56796948 1080.3125 186.9375 C1079.62768555 186.89675354 1078.94287109 186.85600708 1078.23730469 186.81402588 C1073.49210983 186.53193159 1068.74621161 186.26439079 1064 186 C1062.96278809 185.93925293 1061.92557617 185.87850586 1060.85693359 185.81591797 C1025.76436686 183.79841156 990.38280948 184.48628209 955.39208984 187.69091797 Z " fill="#FDFDFD" transform="translate(0,0)"/>
<path d="M0 0 C1.06089844 0.18175781 2.12179687 0.36351562 3.21484375 0.55078125 C22.29823258 3.8483568 41.40207467 7.15036733 60.16015625 12.0078125 C63.99469841 12.99863011 67.83967808 13.93726294 71.6875 14.875 C79.70046091 16.86014388 87.62696865 19.13077827 95.5546875 21.4296875 C99.17842389 22.48047991 102.80791823 23.50533984 106.4453125 24.5078125 C115.98245022 27.1505922 125.26065421 30.03640232 134.45703125 33.703125 C138.28279479 35.10351474 142.03551782 36.0753903 146 37 C146 37.66 146 38.32 146 39 C146.59425781 39.09796875 147.18851563 39.1959375 147.80078125 39.296875 C154.51435365 40.5080327 160.64391148 42.55697763 167 45 C167.99 45.33 168.98 45.66 170 46 C170 46.66 170 47.32 170 48 C170.85464844 48.11472656 171.70929688 48.22945312 172.58984375 48.34765625 C176.14077962 49.02693035 179.20644139 50.10220868 182.5625 51.4375 C183.65691406 51.86933594 184.75132813 52.30117187 185.87890625 52.74609375 C186.90886719 53.15988281 187.93882813 53.57367188 189 54 C189.95777344 54.38285156 190.91554688 54.76570313 191.90234375 55.16015625 C192.59457031 55.43730469 193.28679687 55.71445313 194 56 C194 56.66 194 57.32 194 58 C195.1446875 58.0928125 195.1446875 58.0928125 196.3125 58.1875 C201.58505661 59.34924976 206.14058185 61.68896566 211 64 C213.06213675 64.93829873 215.12464955 65.87577138 217.1875 66.8125 C228.61957219 72.10337638 239.80682974 77.85181826 250.91821289 83.78222656 C254.97668516 85.94462328 259.05747774 88.03862455 263.1875 90.0625 C278.12931781 97.4723388 292.45553411 106.38301974 306.47265625 115.3984375 C308.87259771 116.91926594 311.30079837 118.37273944 313.75 119.8125 C323.33868793 125.53233441 332.53646544 131.89705358 341.625 138.375 C342.19250977 138.77944336 342.76001953 139.18388672 343.34472656 139.60058594 C345.84352239 141.3965487 348.28529743 143.23040055 350.6796875 145.1640625 C352.59132263 146.67663575 354.35701511 147.86785704 356.5 149 C359.64337527 150.66065109 362.23477602 152.7698489 365 155 C367.91139674 157.08237554 370.83731511 159.14237386 373.76953125 161.1953125 C374.87361328 162.08863281 374.87361328 162.08863281 376 163 C376 163.66 376 164.32 376 165 C376.53753906 165.23847656 377.07507812 165.47695313 377.62890625 165.72265625 C386.83061943 170.67975709 394.95638536 178.56461052 402.87890625 185.34765625 C405.73111869 187.78551219 408.63947753 190.14732338 411.5625 192.5 C418.52761645 198.16999231 425.20433175 204.19851908 431.55078125 210.5546875 C433.90919638 212.90934121 436.32950838 215.15274256 438.8125 217.375 C439.67875 218.15230469 440.545 218.92960938 441.4375 219.73046875 C443.70861376 221.74192773 446.00579215 223.71718704 448.3125 225.6875 C451.58707843 228.52983408 454.22944301 231.66112362 457 235 C458.67810993 236.5262624 460.39692294 237.97862834 462.15625 239.41015625 C467.30638935 243.85106031 471.57410134 248.96761254 475.89453125 254.18359375 C479.32557563 258.29118209 482.98477961 262.06163124 486.84375 265.7734375 C490.28060838 269.09681471 493.13890926 272.45338999 495.8359375 276.39453125 C497.62645179 278.86399894 499.82057382 280.87010623 502 283 C503.57474627 284.67607777 505.1361706 286.36472511 506.6875 288.0625 C507.45449219 288.89910156 508.22148438 289.73570312 509.01171875 290.59765625 C510.76377599 292.71458199 511.82673509 294.54964142 513 297 C513.804375 297.804375 514.60875 298.60875 515.4375 299.4375 C517.86719888 301.86719888 519.24856961 304.08094935 521 307 C522.15242188 308.14275391 522.15242188 308.14275391 523.328125 309.30859375 C525.92737329 311.92684239 528.06785507 314.59235829 530.25 317.5625 C531.40242188 319.12677734 531.40242188 319.12677734 532.578125 320.72265625 C532.97322266 321.26035645 533.36832031 321.79805664 533.77539062 322.35205078 C535.01419031 324.01909581 536.27619083 325.66575285 537.546875 327.30859375 C537.95776367 327.84347412 538.36865234 328.37835449 538.79199219 328.92944336 C539.94159955 330.42407233 541.09568209 331.91525603 542.25 333.40625 C543.8203306 335.73370428 544.58660364 337.26124909 545 340 C545.66 340 546.32 340 547 340 C548.37280273 341.68066406 548.37280273 341.68066406 549.93359375 344.015625 C550.50013672 344.85480469 551.06667969 345.69398438 551.65039062 346.55859375 C552.24013672 347.44675781 552.82988281 348.33492187 553.4375 349.25 C554.60217394 350.98483886 555.76751591 352.71922946 556.93359375 354.453125 C557.44978271 355.22817383 557.96597168 356.00322266 558.49780273 356.80175781 C559.9746888 359.02535513 559.9746888 359.02535513 561.69165039 361.09667969 C563 363 563 363 563 366 C563.66 366 564.32 366 565 366 C566.38708748 367.99656531 567.64408132 369.97238415 568.875 372.0625 C569.23142578 372.65651611 569.58785156 373.25053223 569.95507812 373.86254883 C570.9770369 375.57087342 571.98876875 377.28530353 573 379 C573.46664063 379.77601563 573.93328125 380.55203125 574.4140625 381.3515625 C577 385.72347122 577 385.72347122 577 388 C577.66 388 578.32 388 579 388 C580.12915039 389.48120117 580.12915039 389.48120117 581.34765625 391.54296875 C581.78787109 392.28740234 582.22808594 393.03183594 582.68164062 393.79882812 C583.13732422 394.58708984 583.59300781 395.37535156 584.0625 396.1875 C584.52205078 396.95642578 584.98160156 397.72535156 585.45507812 398.51757812 C587.66380217 402.29608548 589.56371566 405.55702277 590 410 C590.66 410 591.32 410 592 410 C592.83819158 411.62249941 593.6704116 413.24808497 594.5 414.875 C595.19609375 416.23238281 595.19609375 416.23238281 595.90625 417.6171875 C597 420 597 420 597 422 C597.66 422 598.32 422 599 422 C599.67095703 423.35931641 599.67095703 423.35931641 600.35546875 424.74609375 C604.24743424 432.63870121 604.24743424 432.63870121 608.4375 440.375 C613.44465405 449.22870948 617.99234179 458.4263531 621.9921875 467.77734375 C623.7708812 471.70012171 625.81717856 475.49292475 627.828125 479.30078125 C629 482 629 482 629 486 C629.66 486 630.32 486 631 486 C631.38671875 487.0621875 631.7734375 488.124375 632.171875 489.21875 C635.70168879 498.88173179 635.70168879 498.88173179 640.078125 508.1796875 C642.00991797 511.99416006 643.47337829 516.01057043 645 520 C645.44214844 521.15242187 645.88429688 522.30484375 646.33984375 523.4921875 C650.43682693 534.25455663 654.26378458 545.10779398 658 556 C658.35497559 557.03092773 658.70995117 558.06185547 659.07568359 559.12402344 C664.6167249 575.27275137 669.6286577 591.49545831 674 608 C674.19400391 608.73154297 674.38800781 609.46308594 674.58789062 610.21679688 C675.7900804 614.79592424 676.91123513 619.39285712 678 624 C678.22010742 624.92828613 678.44021484 625.85657227 678.66699219 626.81298828 C683.47143532 647.15650147 688.10217097 667.53670394 691.38671875 688.1875 C691.87805666 691.24193185 692.41623253 694.27501073 693 697.3125 C695.89530782 713.11471774 697.65692823 729.06867804 699.0625 745.0625 C699.14649048 746.00710083 699.23048096 746.95170166 699.3170166 747.92492676 C704.36171053 804.97647952 704.50495842 862.03052128 698 919 C697.91727844 919.72926697 697.83455688 920.45853394 697.74932861 921.2098999 C695.50386072 940.89101311 692.73377281 960.46728399 689.4375 980 C689.29574341 980.85036835 689.15398682 981.70073669 689.00793457 982.57687378 C687.40814606 992.10985533 685.49256709 1001.4137613 682.89477539 1010.72558594 C681.72886666 1014.99220748 680.84280731 1019.28550008 680 1023.625 C678.68517346 1030.12999994 677.05587159 1036.38754157 674.99609375 1042.703125 C673.83065021 1046.5605146 672.94150913 1050.44451069 672.0625 1054.375 C670.516911 1061.22511789 668.51877604 1067.75193866 666.21484375 1074.390625 C665.03947351 1077.88272178 664.03146521 1081.38328737 663.0625 1084.9375 C661.40885581 1090.87314153 659.35621411 1096.56892956 657.14306641 1102.3112793 C655.75565144 1105.92623176 654.48854818 1109.52355646 653.4375 1113.25 C651.97324988 1118.33722327 649.93513223 1123.10999178 647.85546875 1127.97216797 C645.98686352 1132.40157295 644.18882277 1136.86045625 642.375 1141.3125 C638.58501018 1150.61505782 634.64073879 1159.84076135 630.60546875 1169.0390625 C630.31285156 1169.70679688 630.02023437 1170.37453125 629.71875 1171.0625 C629.27885742 1172.06543091 629.27885742 1172.06543091 628.83007812 1173.08862305 C628.10096083 1174.76752284 627.39253782 1176.45537815 626.6875 1178.14453125 C624.1474062 1184.07756036 621.29921914 1189.87370135 618.5 1195.6875 C618.19341461 1196.32540466 617.88682922 1196.96330933 617.57095337 1197.62054443 C612.38478722 1208.38801321 606.85858834 1218.91935193 600.90112305 1229.28369141 C599.85716533 1231.16013688 599.85716533 1231.16013688 599 1234 C598.34 1234 597.68 1234 597 1234 C596.76796875 1234.82113281 596.5359375 1235.64226562 596.296875 1236.48828125 C594.7318671 1240.72605866 592.59173252 1244.34012084 590.25 1248.1875 C589.35019771 1249.68928729 588.45176064 1251.1918934 587.5546875 1252.6953125 C586.90064941 1253.79020996 586.90064941 1253.79020996 586.23339844 1254.90722656 C583.70063743 1259.20469833 581.34033186 1263.59522906 579 1268 C578.34 1268 577.68 1268 577 1268 C576.5978125 1269.7015625 576.5978125 1269.7015625 576.1875 1271.4375 C575.795625 1272.613125 575.40375 1273.78875 575 1275 C574.01 1275.33 573.02 1275.66 572 1276 C571.29814412 1277.65215633 570.64108137 1279.32332564 570 1281 C568.47979195 1283.65100321 566.80156928 1286.19575769 565.125 1288.75 C564.40123169 1289.86012451 564.40123169 1289.86012451 563.6628418 1290.99267578 C558.31282218 1299.13943343 552.68880452 1307.08759945 547 1315 C546.30261719 1315.97324219 545.60523438 1316.94648437 544.88671875 1317.94921875 C542.94046041 1320.64496787 540.97495461 1323.32520062 539 1326 C538.57283691 1326.58040039 538.14567383 1327.16080078 537.70556641 1327.75878906 C527.90874648 1341.0459602 517.58934888 1353.86515022 506.87597656 1366.4230957 C504.08670498 1369.69536023 501.37276651 1373.01718055 498.6875 1376.375 C493.34710544 1382.93823982 487.51595451 1389.02786319 481.71044922 1395.17626953 C479.17277436 1397.88201192 476.68091978 1400.62854725 474.1875 1403.375 C470.19401312 1407.7513433 466.07357716 1411.95840109 461.8515625 1416.11328125 C459.88248964 1418.05067358 459.88248964 1418.05067358 457.9375 1420.625 C455.59246607 1423.49955772 452.92871959 1425.76982683 450.09765625 1428.15625 C447.61949428 1430.33444823 445.32970867 1432.66350906 443 1435 C440.68410122 1437.20625994 438.34278544 1439.38484882 436 1441.5625 C435.34354492 1442.17311279 434.68708984 1442.78372559 434.01074219 1443.4128418 C432.66053283 1444.66821114 431.30994717 1445.92317587 429.95898438 1447.17773438 C428.14042524 1448.86937513 426.32725478 1450.5665706 424.515625 1452.265625 C418.76973934 1457.6375181 412.93731152 1462.8017071 406.80078125 1467.73046875 C404.27273562 1469.77899666 401.78993226 1471.8677837 399.31713867 1473.98193359 C386.9722829 1484.53470468 374.06686319 1494.36158834 361 1504 C360.35401855 1504.48243164 359.70803711 1504.96486328 359.04248047 1505.46191406 C354.2301366 1509 354.2301366 1509 352 1509 C352 1509.66 352 1510.32 352 1511 C349.9453125 1512.48046875 349.9453125 1512.48046875 347.125 1514.1875 C343.42623145 1516.47452483 339.79521047 1518.79384879 336.25 1521.3125 C325.95859948 1528.5798871 315.46409612 1535.43346586 304.62109375 1541.84765625 C301.19741269 1543.87309905 297.81566629 1545.96189478 294.4375 1548.0625 C288.2921199 1551.85640825 282.04390684 1555.4482976 275.75732422 1559 C274.02037055 1559.9884082 272.29329995 1560.9941188 270.56640625 1562 C262.73588365 1566.5507691 254.76221679 1570.70339774 246.63574219 1574.69824219 C241.54181393 1577.21406522 236.46458386 1579.7635143 231.38433838 1582.30682373 C227.25886084 1584.37176735 223.13226528 1586.43447272 219.00463867 1588.49511719 C217.19469699 1589.40163222 215.38687209 1590.31241713 213.58325195 1591.23144531 C209.84830111 1593.13139665 206.13022235 1594.82858937 202.1875 1596.25 C200.81658203 1596.75273437 200.81658203 1596.75273437 199.41796875 1597.265625 C197 1598 197 1598 194 1598 C194 1598.66 194 1599.32 194 1600 C188.77451181 1602.03506667 183.54818181 1604.0679447 178.32080078 1606.09814453 C176.34749673 1606.86496392 174.37484958 1607.6334734 172.40234375 1608.40234375 C165.68606379 1611.00729496 158.93003994 1613.47511249 152.140625 1615.8828125 C147.43377661 1617.55713917 142.75923904 1619.29582698 138.12109375 1621.15234375 C131.37918576 1623.82152272 124.65124141 1626.04871775 117.66015625 1627.96875 C113.78421475 1629.06079755 109.95871155 1630.27038045 106.125 1631.5 C100.17786309 1633.39093598 94.20525057 1635.01182216 88.14111328 1636.48046875 C83.0624357 1637.71525542 78.03033073 1639.08179484 73 1640.5 C44.70543066 1648.42295959 16.00225829 1653.72150446 -13.05566406 1657.96142578 C-17.26884618 1658.57733977 -21.4623155 1659.2556985 -25.65625 1659.9921875 C-32.65802663 1661.16579963 -39.68228693 1661.8567646 -46.75 1662.5 C-47.43408936 1662.56314392 -48.11817871 1662.62628784 -48.82299805 1662.69134521 C-64.52936323 1664.13493831 -80.25174041 1665.14225166 -96 1666 C-97.01835938 1666.05929687 -98.03671875 1666.11859375 -99.0859375 1666.1796875 C-141.32034814 1668.6096125 -183.94351593 1667.2388355 -225.95117188 1662.34814453 C-228.8249975 1662.01998347 -231.69981738 1661.71945307 -234.578125 1661.43359375 C-235.43043701 1661.34851562 -236.28274902 1661.2634375 -237.16088867 1661.17578125 C-238.6634638 1661.02669989 -240.16620689 1660.87929115 -241.66918945 1660.734375 C-246.78330577 1660.21080013 -251.82481099 1659.38590276 -256.89135742 1658.51977539 C-259.85835577 1658.02368339 -262.82772318 1657.5724368 -265.8046875 1657.140625 C-290.29587424 1653.56794469 -314.42160626 1648.57875037 -338.43823242 1642.61914062 C-340.79902546 1642.04857252 -343.16422034 1641.52390345 -345.5390625 1641.015625 C-350.61341656 1639.90137181 -355.58051972 1638.46766217 -360.5625 1637 C-362.08617187 1636.5524939 -362.08617187 1636.5524939 -363.640625 1636.09594727 C-403.92394673 1624.18120433 -403.92394673 1624.18120433 -422 1617 C-426.62946567 1615.2173566 -431.26911649 1613.56018459 -436 1612.0625 C-439.39393048 1610.94385376 -442.59689793 1609.80618938 -445.75 1608.125 C-450.29201763 1605.70639942 -455.09622575 1604.02589947 -459.92675781 1602.28173828 C-468.66314813 1599.10113943 -477.00006102 1595.08262354 -485.375 1591.0625 C-490.89209262 1588.42049172 -496.40556841 1585.78791221 -502 1583.3125 C-506.96003243 1581.08554667 -511.69670006 1578.50308662 -516.46484375 1575.89453125 C-520.34555779 1573.79151287 -524.29450695 1571.83268544 -528.25 1569.875 C-533.92256859 1567.05964647 -539.50764468 1564.15577704 -545 1561 C-546.51207031 1560.14341797 -546.51207031 1560.14341797 -548.0546875 1559.26953125 C-551.0307451 1557.57904955 -554.00031729 1555.8783028 -556.96582031 1554.16943359 C-558.40622479 1553.34135661 -559.84846966 1552.51647713 -561.29199219 1551.69384766 C-563.65724691 1550.34483019 -566.01654198 1548.98585795 -568.375 1547.625 C-569.13103516 1547.19614502 -569.88707031 1546.76729004 -570.66601562 1546.32543945 C-572.47786885 1545.27321283 -574.24433606 1544.14351961 -576 1543 C-576 1542.34 -576 1541.68 -576 1541 C-576.84175781 1540.76667969 -577.68351562 1540.53335937 -578.55078125 1540.29296875 C-582.5623898 1538.78918344 -585.69053821 1536.7454839 -589.1875 1534.3125 C-590.52275134 1533.40133741 -591.85869306 1532.49118573 -593.1953125 1531.58203125 C-593.84532227 1531.13811035 -594.49533203 1530.69418945 -595.16503906 1530.23681641 C-597.59490308 1528.59901823 -600.07404916 1527.04697463 -602.5625 1525.5 C-607.65639364 1522.2933019 -612.53645579 1518.82051467 -617.40649414 1515.28710938 C-620.58817071 1512.95937327 -620.58817071 1512.95937327 -624 1511 C-624 1510.34 -624 1509.68 -624 1509 C-624.88429688 1508.75378906 -625.76859375 1508.50757813 -626.6796875 1508.25390625 C-630.21165237 1506.9200701 -632.28549343 1505.39927404 -635.125 1502.9375 C-639.09982744 1499.57001317 -643.1276792 1496.35352549 -647.3125 1493.25 C-650.37218514 1490.9788935 -653.41039116 1488.71987986 -656.3125 1486.25 C-658.88299878 1484.09795451 -661.51808706 1482.1884339 -664.2890625 1480.30859375 C-666.38223051 1478.70765475 -668.13683787 1476.86316213 -670 1475 C-671.69297668 1473.58558018 -673.4025922 1472.1909284 -675.125 1470.8125 C-679.90299035 1466.94521385 -684.48440259 1462.91517457 -689.00390625 1458.75 C-690.88450675 1456.95218021 -690.88450675 1456.95218021 -693 1456 C-693 1455.34 -693 1454.68 -693 1454 C-693.88365234 1453.59201172 -693.88365234 1453.59201172 -694.78515625 1453.17578125 C-700.2718469 1450.26309362 -704.70090927 1445.4039466 -709 1441 C-712.96398535 1436.9502141 -716.94017724 1432.99631498 -721.25 1429.3125 C-724.22822894 1426.75642778 -726.55545481 1424.07539557 -729 1421 C-730.12921224 1420.00171091 -731.27677101 1419.02396221 -732.4375 1418.0625 C-735.75567403 1415.30325081 -738.28863325 1412.35353256 -741 1409 C-743.37852222 1406.56201472 -745.80804867 1404.18661934 -748.25 1401.8125 C-751.42179785 1398.56861584 -754.4377565 1395.2063393 -757.4609375 1391.82421875 C-761.07744133 1387.80155372 -764.75019407 1383.83166139 -768.421875 1379.859375 C-776 1371.45454545 -776 1371.45454545 -776 1369 C-776.66 1369 -777.32 1369 -778 1369 C-779.5859375 1367.20703125 -779.5859375 1367.20703125 -781.375 1364.8125 C-783.35603259 1362.18215193 -785.3338294 1359.59769278 -787.4375 1357.0625 C-789 1355 -789 1355 -789 1353 C-789.66 1353 -790.32 1353 -791 1353 C-792.42188405 1351.30456109 -793.76143179 1349.53982929 -795.0625 1347.75 C-795.8735526 1346.64442463 -796.68475473 1345.53895895 -797.49609375 1344.43359375 C-797.91101074 1343.86366699 -798.32592773 1343.29374023 -798.75341797 1342.70654297 C-800.6879645 1340.05819196 -802.65667928 1337.43580223 -804.625 1334.8125 C-805.36234375 1333.82765625 -806.0996875 1332.8428125 -806.859375 1331.828125 C-809.3580338 1328.52697724 -811.91047517 1325.27165069 -814.4921875 1322.03515625 C-816.16585748 1319.77613537 -817.55555614 1317.41111013 -819 1315 C-820.15031712 1313.4047489 -821.31835601 1311.82218734 -822.5 1310.25 C-827.08729248 1304.00383422 -831.25723153 1297.51370923 -835.43359375 1290.98828125 C-837.90501472 1287.12844189 -840.4592112 1283.33054388 -843.07421875 1279.56640625 C-844 1278 -844 1278 -844 1276 C-844.99 1275.67 -845.98 1275.34 -847 1275 C-847.9128734 1273.24447422 -848.80992719 1271.47973577 -849.6484375 1269.6875 C-851.34624815 1266.31150657 -853.28757822 1263.1009496 -855.25 1259.875 C-866.624076 1241.08375467 -877.29001898 1221.83654745 -886.95654297 1202.11035156 C-888.13374135 1199.72951329 -889.33303319 1197.36053595 -890.53515625 1194.9921875 C-894.58877503 1186.99103433 -898.54348271 1179.0433908 -901.86328125 1170.703125 C-903.08400267 1167.80024106 -904.48471825 1165.04352378 -905.9375 1162.25 C-909.22001805 1155.79354593 -911.68455533 1149.11232296 -914.15087891 1142.31884766 C-915.7511658 1137.94865647 -917.40762376 1133.59975061 -919.0625 1129.25 C-919.40490723 1128.34773682 -919.74731445 1127.44547363 -920.10009766 1126.51586914 C-921.89741008 1121.80344589 -923.75772339 1117.13434189 -925.75 1112.5 C-927.88929065 1107.47016277 -929.49426874 1102.35952526 -931.04296875 1097.12109375 C-931.8894146 1094.36064381 -932.84078719 1091.69406054 -933.875 1089 C-936.83166865 1081.03438682 -938.9860237 1072.80961924 -941.26513672 1064.63085938 C-941.93113774 1062.24653146 -942.60611141 1059.86501382 -943.28515625 1057.484375 C-948.18957807 1040.20343141 -952.54135442 1022.78867537 -956.1328125 1005.1875 C-956.87722882 1001.54594027 -957.70274474 997.92879018 -958.5625 994.3125 C-960.13711519 987.60327007 -961.37761876 980.84817747 -962.60791016 974.06884766 C-962.88393535 972.61241085 -963.17684741 971.15912372 -963.48193359 969.70849609 C-964.85589205 963.170124 -965.7428985 956.6359535 -966.5 950 C-966.62890625 948.89479004 -966.7578125 947.78958008 -966.890625 946.65087891 C-967.26436719 943.43436016 -967.63243597 940.21722946 -968 937 C-968.17677901 935.48694358 -968.35382305 933.97391808 -968.53125 932.4609375 C-968.94943819 928.85577823 -969.33912415 925.24808327 -969.71875 921.63867188 C-969.92185422 919.73315934 -970.130935 917.82828057 -970.34375 915.92382812 C-979.11811252 836.90886563 -977.17871832 754.62217384 -961.5 676.56542969 C-960.96933926 673.84268403 -960.47956247 671.11500726 -960 668.3828125 C-959.83242188 667.43140381 -959.66484375 666.47999512 -959.4921875 665.49975586 C-959.1807114 663.72004693 -958.87294518 661.9396813 -958.5703125 660.15844727 C-957.25838965 652.72925259 -955.4089539 645.45322091 -953.54400635 638.14889526 C-952.63590141 634.56176358 -951.76341319 630.96600375 -950.88671875 627.37109375 C-946.73244859 610.42204871 -942.41407734 593.59982461 -937 577 C-936.57122559 575.67838867 -936.57122559 575.67838867 -936.13378906 574.33007812 C-925.6390722 542.1088404 -925.6390722 542.1088404 -920.0078125 528.50390625 C-918.9658349 525.91511695 -918.00271852 523.3019315 -917.04394531 520.68139648 C-913.35594888 510.62803637 -909.13738181 500.82245093 -904.84448242 491.0144043 C-904.15592337 489.37193516 -903.56318899 487.68956698 -903 486 C-902.34 486 -901.68 486 -901 486 C-900.9071875 484.824375 -900.9071875 484.824375 -900.8125 483.625 C-899.88022363 479.46561312 -898.22329144 476.20936812 -896.26171875 472.44921875 C-894.67392392 469.36702879 -893.35827893 466.18900272 -892 463 C-889.23361108 457.26230446 -886.21987726 451.66425685 -883.2043457 446.05493164 C-880.71029879 441.39254649 -878.33547495 436.68093017 -876 431.9375 C-872.29375186 424.43986507 -868.21085191 417.22562526 -864 410 C-862.96219013 408.18456912 -861.92925696 406.36642901 -860.89697266 404.54785156 C-859.27420331 401.69308008 -857.63647712 398.84692921 -856 396 C-855.41734375 394.97648437 -854.8346875 393.95296875 -854.234375 392.8984375 C-853.70328125 391.98320313 -853.1721875 391.06796875 -852.625 390.125 C-852.16351562 389.32320312 -851.70203125 388.52140625 -851.2265625 387.6953125 C-850.82179688 387.13585937 -850.41703125 386.57640625 -850 386 C-849.34 386 -848.68 386 -848 386 C-847.7628125 385.16210938 -847.525625 384.32421875 -847.28125 383.4609375 C-845.80010399 379.46003701 -843.82324849 376.18038667 -841.5 372.625 C-841.09652344 371.98433594 -840.69304687 371.34367187 -840.27734375 370.68359375 C-839.2433319 369.08309356 -838.12773229 367.53590405 -837 366 C-836.34 366 -835.68 366 -835 366 C-834.92007813 365.46503906 -834.84015625 364.93007813 -834.7578125 364.37890625 C-833.711298 361.09371384 -831.88164515 358.73659993 -829.875 355.9375 C-826.16795181 350.72978516 -822.71462361 345.42541643 -819.41015625 339.94921875 C-818.94480469 339.30597656 -818.47945312 338.66273438 -818 338 C-817.34 338 -816.68 338 -816 338 C-815.80277344 337.34902344 -815.60554687 336.69804688 -815.40234375 336.02734375 C-813.40239535 331.70990639 -810.51992927 328.26839752 -807.5625 324.5625 C-806.93577393 323.7677124 -806.30904785 322.9729248 -805.66333008 322.15405273 C-804.38565758 320.53443357 -803.10563697 318.91666394 -801.82324219 317.30078125 C-800.18877652 315.23822039 -798.56404727 313.16866385 -796.9453125 311.09375 C-785.14590544 295.9721 -772.84380884 281.30704614 -759.90234375 267.1484375 C-758.49757773 265.5619461 -757.16620418 263.90976973 -755.87890625 262.2265625 C-755.25886719 261.49179687 -754.63882813 260.75703125 -754 260 C-753.34 260 -752.68 260 -752 260 C-751.77957031 259.46246094 -751.55914063 258.92492187 -751.33203125 258.37109375 C-749.54948697 255.19806038 -747.1640849 252.69695486 -744.6875 250.0625 C-744.21376953 249.55009766 -743.74003906 249.03769531 -743.25195312 248.50976562 C-740.2389992 245.26599717 -737.14314634 242.11835812 -734 239 C-733.13761719 238.12601563 -732.27523437 237.25203125 -731.38671875 236.3515625 C-726.7261025 231.64373306 -722.03708233 227.06015669 -716.984375 222.76953125 C-713.78655636 219.91793313 -710.84605015 216.81495477 -707.8828125 213.72265625 C-706 212 -706 212 -704 212 C-703.67 211.01 -703.34 210.02 -703 209 C-701.50390625 207.4921875 -701.50390625 207.4921875 -699.5625 205.875 C-696.35814273 203.16186327 -693.22325844 200.39645203 -690.125 197.5625 C-685.96310257 193.80398647 -681.67348835 190.26217638 -677.265625 186.796875 C-675.30189536 185.23943425 -673.39600386 183.63829459 -671.5 182 C-669 180 -669 180 -667 180 C-667 179.34 -667 178.68 -667 178 C-665.1015625 176.2734375 -665.1015625 176.2734375 -662.625 174.375 C-661.81289063 173.74335938 -661.00078125 173.11171875 -660.1640625 172.4609375 C-658 171 -658 171 -656 171 C-656 170.34 -656 169.68 -656 169 C-654.38916948 167.63933634 -652.70627899 166.36386746 -651 165.125 C-649.90843542 164.32739568 -648.8173141 163.52918448 -647.7265625 162.73046875 C-646.83565918 162.08150635 -646.83565918 162.08150635 -645.92675781 161.41943359 C-643.83786024 159.88055239 -641.77308923 158.3128056 -639.7109375 156.73828125 C-638.99164062 156.19091309 -638.27234375 155.64354492 -637.53125 155.07958984 C-636.1044986 153.99304886 -634.67997859 152.90357096 -633.2578125 151.81103516 C-632.60296875 151.31522949 -631.948125 150.81942383 -631.2734375 150.30859375 C-630.68997559 149.86314209 -630.10651367 149.41769043 -629.50537109 148.95874023 C-628 148 -628 148 -626 148 C-626 147.34 -626 146.68 -626 146 C-623.90236764 144.51594022 -621.8122817 143.15261289 -619.625 141.8125 C-618.3283937 141.00034539 -617.03282526 140.18653155 -615.73828125 139.37109375 C-615.09842285 138.96874512 -614.45856445 138.56639648 -613.79931641 138.15185547 C-611.41985029 136.62860972 -609.11329316 135.01417574 -606.8125 133.375 C-602.57586843 130.36858119 -598.23300775 127.57369815 -593.8359375 124.80859375 C-590.9396282 122.96149843 -588.09459586 121.05063125 -585.25 119.125 C-575.58305996 112.65961098 -565.53507822 106.8246795 -555.4375 101.0625 C-554.78297852 100.68488525 -554.12845703 100.30727051 -553.45410156 99.91821289 C-549.72417505 97.8116019 -546.13493964 96.21690828 -542 95 C-542 94.34 -542 93.68 -542 93 C-512.65897191 77.44464263 -512.65897191 77.44464263 -506.5859375 75.046875 C-503.12358421 73.64519723 -499.8259793 71.94294263 -496.5 70.25 C-484.20146729 64.05168526 -471.65351494 58.4309334 -459 53 C-457.65421875 52.40445313 -457.65421875 52.40445313 -456.28125 51.796875 C-454 51 -454 51 -450 51 C-450 50.34 -450 49.68 -450 49 C-449.25951416 48.74831055 -448.51902832 48.49662109 -447.75610352 48.23730469 C-444.35675859 47.07915485 -440.95963122 45.91462639 -437.5625 44.75 C-436.39783203 44.35425781 -435.23316406 43.95851562 -434.03320312 43.55078125 C-428.20721031 41.54860907 -422.50017813 39.47555949 -416.91918945 36.8605957 C-410.86023738 34.14366324 -404.37835274 32.50549886 -397.96875 30.84375 C-392.56406594 29.3076819 -387.26656367 27.43962345 -381.95703125 25.60546875 C-361.67436534 18.62963857 -340.9279579 13.62388015 -320 9 C-319.03433105 8.7848877 -318.06866211 8.56977539 -317.07373047 8.34814453 C-298.50170109 4.23991286 -279.76732814 1.06448489 -261 -2 C-259.97777344 -2.16773926 -258.95554687 -2.33547852 -257.90234375 -2.50830078 C-242.63000576 -4.97310497 -227.23645581 -6.31692555 -211.83349609 -7.66357422 C-208.37391353 -7.96718553 -204.91543087 -8.28091765 -201.45703125 -8.59765625 C-134.90983913 -14.58093639 -65.86149429 -11.28773747 0 0 Z M-275.50390625 47.14453125 C-278.85839664 47.79588119 -282.22015441 48.38186446 -285.58984375 48.94921875 C-324.57491978 55.64257753 -362.9173502 66.46809427 -400.0168457 80.10229492 C-405.35808538 82.06045114 -410.7139758 83.93209362 -416.125 85.6875 C-425.3386944 88.71485673 -434.10284611 92.57343274 -442.90234375 96.625 C-446.65330289 98.28999069 -450.44774162 99.83174042 -454.25 101.375 C-477.60713185 110.89919212 -499.92930607 122.83800767 -522 135 C-523.36977527 135.74612384 -524.73956846 136.49221481 -526.109375 137.23828125 C-535.05774121 142.13550799 -543.80105389 147.25664935 -552.40625 152.734375 C-556.32550852 155.22655743 -560.33283282 157.55673436 -564.375 159.84375 C-564.91125 160.2253125 -565.4475 160.606875 -566 161 C-566 161.66 -566 162.32 -566 163 C-566.78375 163.185625 -567.5675 163.37125 -568.375 163.5625 C-572.7097959 165.28147079 -576.07497503 167.70615604 -579.828125 170.44140625 C-582 172 -582 172 -584 173 C-584 173.66 -584 174.32 -584 175 C-584.64324219 175.20625 -585.28648437 175.4125 -585.94921875 175.625 C-590.27283051 177.57367009 -593.95646664 180.25908107 -597.8125 183 C-598.99489258 183.81984375 -598.99489258 183.81984375 -600.20117188 184.65625 C-600.94560547 185.1821875 -601.69003906 185.708125 -602.45703125 186.25 C-603.13741455 186.72953125 -603.81779785 187.2090625 -604.51879883 187.703125 C-605.00759521 188.13109375 -605.4963916 188.5590625 -606 189 C-606 189.66 -606 190.32 -606 191 C-606.70640625 191.24363281 -607.4128125 191.48726562 -608.140625 191.73828125 C-611.41472383 193.18299972 -613.91333244 195.00746845 -616.75 197.1875 C-618.31234375 198.38632812 -618.31234375 198.38632812 -619.90625 199.609375 C-621.43765625 200.79273438 -621.43765625 200.79273438 -623 202 C-623.9178125 202.68578125 -624.835625 203.3715625 -625.78125 204.078125 C-626.5959375 204.69171875 -627.410625 205.3053125 -628.25 205.9375 C-628.97703125 206.48277344 -629.7040625 207.02804687 -630.453125 207.58984375 C-630.96359375 208.05519531 -631.4740625 208.52054688 -632 209 C-632 209.66 -632 210.32 -632 211 C-633.03060547 211.32097656 -633.03060547 211.32097656 -634.08203125 211.6484375 C-637.87444547 213.40503097 -640.58992728 215.85617709 -643.6875 218.625 C-644.92185715 219.70983703 -646.15754365 220.7931633 -647.39453125 221.875 C-648.00119629 222.40609375 -648.60786133 222.9371875 -649.23291016 223.484375 C-652.48928606 226.27735395 -655.89292991 228.87660575 -659.3046875 231.4765625 C-659.86414063 231.97929687 -660.42359375 232.48203125 -661 233 C-661 233.66 -661 234.32 -661 235 C-661.55171875 235.2371875 -662.1034375 235.474375 -662.671875 235.71875 C-665.56774711 237.31245143 -667.79512037 239.28917273 -670.25 241.5 C-671.58804688 242.69109375 -671.58804688 242.69109375 -672.953125 243.90625 C-675.233019 245.75034671 -675.233019 245.75034671 -675 248 C-675.87785156 248.38478516 -675.87785156 248.38478516 -676.7734375 248.77734375 C-679.19234608 250.10562162 -680.73198872 251.56524801 -682.625 253.5625 C-685.80555556 256.90277778 -685.80555556 256.90277778 -688 258 C-688 258.66 -688 259.32 -688 260 C-688.5775 260.2475 -689.155 260.495 -689.75 260.75 C-692.32939979 262.18299988 -694.06121592 263.78424676 -696 266 C-696 266.66 -696 267.32 -696 268 C-696.5775 268.2475 -697.155 268.495 -697.75 268.75 C-700.32939979 270.18299988 -702.06121592 271.78424676 -704 274 C-704 274.66 -704 275.32 -704 276 C-704.99 276.33 -705.98 276.66 -707 277 C-708.61532622 278.57689006 -708.61532622 278.57689006 -710.19140625 280.5390625 C-712.71016723 283.50909321 -715.27530933 286.39420873 -717.96484375 289.2109375 C-718.61904297 289.89800781 -719.27324219 290.58507812 -719.94726562 291.29296875 C-721.29885345 292.70689674 -722.6531172 294.11827064 -724.00976562 295.52734375 C-724.65494141 296.20667969 -725.30011719 296.88601563 -725.96484375 297.5859375 C-726.5487085 298.1948584 -727.13257324 298.8037793 -727.73413086 299.43115234 C-729.20931788 300.92343958 -729.20931788 300.92343958 -729 303 C-729.66 303 -730.32 303 -731 303 C-732.35382149 304.48738235 -733.63139886 306.04430551 -734.875 307.625 C-737.61592732 311.06345532 -740.37456665 314.46046025 -743.26171875 317.77734375 C-744.082771 318.7206958 -744.082771 318.7206958 -744.92041016 319.68310547 C-746.00643469 320.92607556 -747.09590535 322.1660439 -748.18896484 323.40283203 C-751.04512576 326.2804915 -751.04512576 326.2804915 -752 330 C-752.66 330 -753.32 330 -754 330 C-755.2530313 331.55351843 -756.42642947 333.17150923 -757.5625 334.8125 C-760.40271281 338.8288588 -763.33375516 342.67312571 -766.5 346.4375 C-774.74800732 355.43860251 -774.74800732 355.43860251 -779 366 C-779.87398437 366.309375 -779.87398437 366.309375 -780.765625 366.625 C-783.86200448 368.5304643 -784.97844085 370.85056151 -786.75 374 C-787.67039062 375.60875 -787.67039062 375.60875 -788.609375 377.25 C-790.15042177 379.78386113 -790.15042177 379.78386113 -790 382 C-790.66 382 -791.32 382 -792 382 C-793.6366755 384.26298453 -795.14565511 386.51267112 -796.625 388.875 C-797.04523438 389.52597656 -797.46546875 390.17695312 -797.8984375 390.84765625 C-800.21126526 394.16247502 -800.21126526 394.16247502 -801 398 C-801.66 398 -802.32 398 -803 398 C-804.32708554 399.90693823 -805.56079518 401.879164 -806.75 403.875 C-807.40484375 404.96554687 -808.0596875 406.05609375 -808.734375 407.1796875 C-809.26708008 408.07917114 -809.26708008 408.07917114 -809.81054688 408.99682617 C-811.1596509 411.26887021 -812.52566436 413.53041747 -813.890625 415.79296875 C-816.99677492 420.9685788 -820.01139599 426.19331846 -823 431.4375 C-823.52762939 432.36272461 -824.05525879 433.28794922 -824.59887695 434.24121094 C-828.13678189 440.4570563 -831.63550722 446.68824706 -835 453 C-835.32532715 453.6069873 -835.6506543 454.21397461 -835.98583984 454.83935547 C-842.91173824 467.76832058 -849.74456838 480.75470744 -855.71875 494.15625 C-856.99335591 496.98525336 -858.31013852 499.79113437 -859.63525391 502.59667969 C-862.26683013 508.17578757 -864.81697663 513.76186636 -867.03930664 519.51928711 C-869.29641223 525.34760982 -871.64818976 531.13905696 -874 536.9296875 C-874.33 537.74566406 -874.66 538.56164062 -875 539.40234375 C-875.66395215 541.04406918 -876.33059838 542.68470775 -877 544.32421875 C-879.18962792 549.75552237 -881.11879966 555.23531698 -882.94189453 560.79980469 C-884.06121029 564.18512794 -885.22608293 567.55202447 -886.40234375 570.91796875 C-893.18861961 590.30494521 -893.18861961 590.30494521 -899 610 C-899.43626709 611.62615234 -899.43626709 611.62615234 -899.88134766 613.28515625 C-903.63348233 627.36079224 -907.20243789 641.46842635 -910.375 655.6875 C-910.613396 656.75403809 -910.85179199 657.82057617 -911.09741211 658.91943359 C-912.46115273 665.15747574 -913.59939677 671.39666646 -914.55712891 677.71020508 C-915 680 -915 680 -916 681 C-916.47212835 683.45349432 -916.88804472 685.89519775 -917.26953125 688.36328125 C-917.39053696 689.12975983 -917.51154266 689.8962384 -917.63621521 690.6859436 C-918.03430258 693.22723983 -918.42434461 695.76966866 -918.8125 698.3125 C-918.94628052 699.18335236 -919.08006104 700.05420471 -919.21789551 700.95144653 C-923.22259625 727.15240776 -926.25649048 753.54806266 -928 780 C-928.05784668 780.86625 -928.11569336 781.7325 -928.17529297 782.625 C-932.07348496 844.81099442 -928.24656992 908.68141384 -916.41723633 969.84063721 C-915.97943658 972.10642384 -915.54705365 974.37320317 -915.11523438 976.64013672 C-914.21617598 981.3462693 -913.30009397 986.04892092 -912.375 990.75 C-912.23483459 991.46539948 -912.09466919 992.18079895 -911.95025635 992.9178772 C-910.23346036 1001.62531582 -908.22357031 1010.18841844 -905.87939453 1018.74853516 C-904.88629196 1022.42042302 -904.05331249 1026.09513047 -903.25 1029.8125 C-900.01818614 1044.12260715 -895.35949507 1058.16266495 -890.63989258 1072.04345703 C-889.95413595 1074.14023445 -889.34636223 1076.2512177 -888.75 1078.375 C-885.29004041 1090.04781102 -880.65484096 1101.42930887 -876.23828125 1112.765625 C-875.33543986 1115.12383531 -874.45923336 1117.48358041 -873.60546875 1119.859375 C-870.78780213 1127.65166117 -867.59633025 1134.95388185 -863.7734375 1142.32421875 C-861.76882351 1146.3323537 -860.24023931 1150.48839618 -858.6875 1154.6875 C-855.52875431 1163.18270886 -851.47584236 1171.0427688 -847.13671875 1178.98828125 C-845.96180991 1181.14678896 -844.92406675 1183.19210205 -844.01953125 1185.48046875 C-842.38635553 1189.5164777 -840.13910291 1193.21379545 -838 1197 C-837.12631648 1198.58581554 -836.25523383 1200.17306669 -835.38671875 1201.76171875 C-830.50117418 1210.67797185 -825.57941518 1219.56267721 -820.4609375 1228.34765625 C-819 1231 -819 1231 -818 1234 C-817.34 1234 -816.68 1234 -816 1234 C-815.6596875 1235.2375 -815.6596875 1235.2375 -815.3125 1236.5 C-813.97517311 1240.06620505 -812.3018544 1242.90755034 -810.21875 1246.0703125 C-809 1248 -809 1248 -807.96875 1250.1796875 C-807.13230629 1252.17529426 -807.13230629 1252.17529426 -805 1253 C-804.27840576 1254.64363134 -803.60648579 1256.31050386 -803 1258 C-802.34 1258 -801.68 1258 -801 1258 C-800.74347656 1258.70769531 -800.48695313 1259.41539063 -800.22265625 1260.14453125 C-798.89900479 1263.2358706 -797.27604128 1265.87403286 -795.4375 1268.6875 C-792.06726457 1273.86547085 -792.06726457 1273.86547085 -791 1276 C-790.34 1276 -789.68 1276 -789 1276 C-788.7525 1276.515625 -788.505 1277.03125 -788.25 1277.5625 C-787.8375 1278.366875 -787.425 1279.17125 -787 1280 C-786.484375 1281.010625 -785.96875 1282.02125 -785.4375 1283.0625 C-782.91484981 1287.46072654 -779.62620534 1291.20000186 -776.38671875 1295.08203125 C-766.9410662 1306.63015311 -766.9410662 1306.63015311 -764 1313 C-760.81083342 1311.40541671 -760.18003066 1308.09563749 -758.875 1304.9375 C-755.25592902 1296.43844059 -751.22548995 1288.21130272 -747 1280 C-746.62504395 1279.26410645 -746.25008789 1278.52821289 -745.86376953 1277.77001953 C-738.91544731 1264.15408614 -731.27519849 1251.00317053 -723.15234375 1238.0546875 C-721.83694711 1236.10189618 -721.83694711 1236.10189618 -722 1234 C-721.34 1234 -720.68 1234 -720 1234 C-719.731875 1233.47792969 -719.46375 1232.95585938 -719.1875 1232.41796875 C-713.64970953 1222.01639521 -706.35902706 1211.35902706 -698 1203 C-698 1202.01 -698 1201.02 -698 1200 C-697.34 1200 -696.68 1200 -696 1200 C-695.8453125 1199.0409375 -695.8453125 1199.0409375 -695.6875 1198.0625 C-695.3471875 1197.0415625 -695.3471875 1197.0415625 -695 1196 C-694.01 1195.67 -693.02 1195.34 -692 1195 C-690.48029381 1193.35169177 -690.48029381 1193.35169177 -689 1191.25 C-680.26693892 1179.67319003 -670.62561528 1168.35100863 -660.1796875 1158.28125 C-657.76972366 1156.2848567 -657.76972366 1156.2848567 -658 1154 C-657.13375 1153.62875 -657.13375 1153.62875 -656.25 1153.25 C-653.67060021 1151.81700012 -651.93878408 1150.21575324 -650 1148 C-650 1147.34 -650 1146.68 -650 1146 C-649.13375 1145.62875 -649.13375 1145.62875 -648.25 1145.25 C-645.67060021 1143.81700012 -643.93878408 1142.21575324 -642 1140 C-642 1139.34 -642 1138.68 -642 1138 C-641.44828125 1137.76796875 -640.8965625 1137.5359375 -640.328125 1137.296875 C-637.37489769 1135.65178865 -635.20887779 1133.56837049 -632.75 1131.25 C-628.79110588 1127.57274533 -624.81020129 1124.22186221 -620.36328125 1121.15625 C-619.68845703 1120.58390625 -619.68845703 1120.58390625 -619 1120 C-619 1119.34 -619 1118.68 -619 1118 C-617 1117 -615 1116 -613 1115 C-613 1114.34 -613 1113.68 -613 1113 C-612.12142334 1112.58439819 -612.12142334 1112.58439819 -611.22509766 1112.16040039 C-609.11176687 1111.05828702 -607.30542719 1109.85724861 -605.3984375 1108.43359375 C-604.41617188 1107.7055957 -604.41617188 1107.7055957 -603.4140625 1106.96289062 C-602.40472656 1106.20782227 -602.40472656 1106.20782227 -601.375 1105.4375 C-600.02964597 1104.43485453 -598.68333544 1103.43349084 -597.3359375 1102.43359375 C-596.74345215 1101.99072021 -596.1509668 1101.54784668 -595.54052734 1101.09155273 C-594 1100 -594 1100 -592 1099 C-592 1098.34 -592 1097.68 -592 1097 C-591.4534375 1096.74476562 -590.906875 1096.48953125 -590.34375 1096.2265625 C-587.58913635 1094.78498136 -585.07751275 1093.11412823 -582.5 1091.375 C-581.44683594 1090.66730469 -580.39367187 1089.95960937 -579.30859375 1089.23046875 C-577.67083984 1088.12638672 -577.67083984 1088.12638672 -576 1087 C-573.85529195 1085.56082165 -571.7095002 1084.12325662 -569.5625 1082.6875 C-568.61503906 1082.05199219 -567.66757812 1081.41648437 -566.69140625 1080.76171875 C-564.9512261 1079.62264582 -563.19016783 1078.51458855 -561.40625 1077.4453125 C-559.1780262 1076.10693132 -557.06655662 1074.67660896 -554.9375 1073.1875 C-550.5786245 1070.26246513 -546.05359112 1067.97112101 -541.3359375 1065.68359375 C-537.66406077 1063.8304569 -534.12318744 1061.80543927 -530.5625 1059.75 C-520.98410328 1054.26340247 -511.01088556 1049.63458984 -501 1045 C-499.86820313 1044.47148438 -498.73640625 1043.94296875 -497.5703125 1043.3984375 C-491.78760357 1040.72823479 -485.93193135 1038.31642702 -480 1036 C-478.67945781 1035.46932121 -477.35916613 1034.9380188 -476.0390625 1034.40625 C-465.99237443 1030.39093113 -455.86052911 1026.90012801 -445.5065918 1023.76464844 C-443.68504249 1023.20897566 -441.86657408 1022.64317204 -440.05004883 1022.07128906 C-409.16576798 1012.39187842 -377.49785944 1006.34509611 -345.375 1002.6875 C-344.32318542 1002.56526062 -344.32318542 1002.56526062 -343.25012207 1002.44055176 C-319.81628033 999.76306981 -296.22801121 999.84460136 -272.67402136 999.83995724 C-268.54485761 999.83807366 -264.41570304 999.83051097 -260.2865448 999.82382202 C-251.29816636 999.81037175 -242.30979246 999.80423541 -233.32140565 999.79981136 C-227.68528989 999.79702697 -222.04917578 999.792786 -216.41306114 999.78830719 C-200.7386438 999.77613341 -185.06422776 999.76582945 -169.38980579 999.7624321 C-168.39109822 999.76221253 -167.39239065 999.76199297 -166.36341922 999.76176675 C-165.3626435 999.76154847 -164.36186779 999.76133019 -163.33076555 999.7611053 C-161.30359956 999.76066187 -159.27643357 999.76021531 -157.24926758 999.75976562 C-156.24377362 999.7595442 -155.23827966 999.75932277 -154.20231619 999.75909463 C-137.93963698 999.75515338 -121.67700276 999.73771138 -105.41434089 999.7144061 C-88.62706646 999.69054757 -71.83981446 999.67822377 -55.05252284 999.67706418 C-45.6636046 999.67615567 -36.27474508 999.67061458 -26.88584328 999.65224457 C-18.88681603 999.63664625 -10.88786566 999.63183686 -2.88882605 999.63998267 C1.17259188 999.64382049 5.233856 999.64330907 9.29525375 999.62892532 C40.39466986 999.52534739 72.16391575 1000.66781653 102.75 1006.75 C103.61085205 1006.91846436 104.4717041 1007.08692871 105.35864258 1007.26049805 C108.24109836 1007.83079092 111.120721 1008.41388604 114 1009 C115.07362793 1009.21672363 116.14725586 1009.43344727 117.25341797 1009.65673828 C144.8617682 1015.26883648 171.74760408 1022.42962147 198.0625 1032.50390625 C200.71917955 1033.52066832 203.38476197 1034.50493622 206.0625 1035.46484375 C215.82504454 1038.98806256 225.07734928 1043.10916711 234.140625 1048.203125 C236.27560673 1049.26261287 236.27560673 1049.26261287 240 1049 C240 1049.66 240 1050.32 240 1051 C241.19882813 1051.50917969 242.39765625 1052.01835938 243.6328125 1052.54296875 C249.58118728 1055.18914642 255.30658739 1058.24487914 261.03759766 1061.32592773 C262.86200228 1062.30552102 264.69053779 1063.27705424 266.51953125 1064.24804688 C273.89310132 1068.18559696 281.0058964 1072.41720346 288 1077 C289.43247738 1077.91451145 290.8659961 1078.82739476 292.30078125 1079.73828125 C302.05968227 1085.98616931 311.58103674 1092.48294014 320.88183594 1099.39941406 C324.10175195 1102.06891211 324.10175195 1102.06891211 328 1103 C328 1103.66 328 1104.32 328 1105 C331.63323689 1107.96235695 331.63323689 1107.96235695 336 1109 C336.33 1109.99 336.66 1110.98 337 1112 C338.81509511 1113.69098541 338.81509511 1113.69098541 341.0625 1115.3125 C341.87332031 1115.92480469 342.68414063 1116.53710938 343.51953125 1117.16796875 C345.07767287 1118.31878516 346.63734399 1119.46753654 348.19921875 1120.61328125 C352.12530239 1123.50736577 355.62984908 1126.44767876 359 1130 C363.21307073 1134.33801968 363.21307073 1134.33801968 368 1138 C368.66 1138 369.32 1138 370 1138 C370.2475 1138.5775 370.495 1139.155 370.75 1139.75 C372.18299988 1142.32939979 373.78424676 1144.06121592 376 1146 C376.66 1146 377.32 1146 378 1146 C378.226875 1146.556875 378.45375 1147.11375 378.6875 1147.6875 C380.38143236 1150.67204749 382.51614698 1152.62654045 385 1155 C385.598125 1155.61875 386.19625 1156.2375 386.8125 1156.875 C387.43125 1157.514375 388.05 1158.15375 388.6875 1158.8125 C389.55955078 1159.71935547 389.55955078 1159.71935547 390.44921875 1160.64453125 C391.90769892 1162.21936724 391.90769892 1162.21936724 394 1162 C394.27602051 1162.59514404 394.55204102 1163.19028809 394.83642578 1163.8034668 C395.9376127 1165.8822286 397.05651274 1167.3990036 398.6171875 1169.14453125 C399.13635742 1169.73210205 399.65552734 1170.31967285 400.19042969 1170.92504883 C400.74633789 1171.54790771 401.30224609 1172.1707666 401.875 1172.8125 C406.62849811 1178.21414146 411.25875353 1183.69054687 415.75 1189.3125 C416.26288574 1189.95227783 416.77577148 1190.59205566 417.30419922 1191.2512207 C420.86729538 1195.73459077 420.86729538 1195.73459077 422 1198 C422.66 1198 423.32 1198 424 1198 C424.25652344 1198.556875 424.51304688 1199.11375 424.77734375 1199.6875 C426.16822769 1202.31818144 427.79737161 1204.60370448 429.5625 1207 C430.26632812 1207.9590625 430.97015625 1208.918125 431.6953125 1209.90625 C433.28454595 1212.03959389 434.88096865 1214.16472282 436.4921875 1216.28125 C436.90009521 1216.81878906 437.30800293 1217.35632812 437.72827148 1217.91015625 C438.88638556 1219.43279684 440.05048009 1220.95088313 441.21484375 1222.46875 C443 1225 443 1225 444 1228 C444.66 1228 445.32 1228 446 1228 C446.309375 1228.94875 446.61875 1229.8975 446.9375 1230.875 C447.87394742 1233.86080408 447.87394742 1233.86080408 449 1236 C449.66 1236 450.32 1236 451 1236 C451.25007813 1236.69222656 451.50015625 1237.38445312 451.7578125 1238.09765625 C453.17630492 1241.41193256 454.97716236 1244.38583723 456.875 1247.4375 C466.0587585 1262.48987631 474.35206912 1278.11489808 482 1294 C482.3290332 1294.68271973 482.65806641 1295.36543945 482.99707031 1296.06884766 C483.9839789 1298.12609914 484.96288724 1300.18689788 485.9375 1302.25 C486.37993042 1303.18090454 486.37993042 1303.18090454 486.83129883 1304.13061523 C488.19248737 1307.04848862 489.38045166 1309.83167684 490 1313 C493.67490899 1311.77503034 493.85532855 1310.96242942 495.75 1307.6875 C499.97007642 1300.78440086 504.85216634 1294.42285426 509.75683594 1287.99487305 C510.38879883 1287.16383057 511.02076172 1286.33278809 511.671875 1285.4765625 C512.2400293 1284.73486816 512.80818359 1283.99317383 513.39355469 1283.22900391 C516.72351588 1278.99548446 516.72351588 1278.99548446 518 1274 C518.66 1274 519.32 1274 520 1274 C521.45062773 1271.92047027 522.7705499 1269.86232119 524.0625 1267.6875 C524.42666016 1267.09259766 524.79082031 1266.49769531 525.16601562 1265.88476562 C526.74076739 1263.2795848 528.03422901 1260.89731298 529 1258 C529.66 1258 530.32 1258 531 1258 C531.7115625 1256.453125 531.7115625 1256.453125 532.4375 1254.875 C535.12736475 1249.47612555 538.47768199 1244.50384288 541.76171875 1239.45703125 C546.24708721 1232.55834979 550.34010512 1225.47281537 554.2421875 1218.23046875 C555.58440995 1215.76376216 556.94357125 1213.31063606 558.3203125 1210.86328125 C562.7190453 1203.03582325 566.99486383 1195.18455908 570.95166016 1187.1237793 C573.60633969 1181.72958272 576.41822922 1176.42796483 579.25 1171.125 C582.23089042 1165.52399933 585.01732498 1159.9895365 587.21875 1154.02734375 C587.98119119 1152.04880885 588.87794115 1150.24448535 589.875 1148.375 C592.13981977 1143.96825766 593.79528956 1139.34867525 595.50073242 1134.70654297 C597.94024273 1128.08729278 600.5539736 1121.54349177 603.19628906 1115.00292969 C604.93880952 1110.68252971 606.63053969 1106.35071874 608.25170898 1101.98339844 C609.03677911 1099.90251436 609.85553885 1097.83757435 610.68359375 1095.7734375 C614.06625515 1087.31869296 617.05316641 1078.93364498 619.41503906 1070.12841797 C620.67403346 1065.54748594 622.03720988 1060.99589595 623.375 1056.4375 C623.9847745 1054.34516847 624.59414857 1052.2527202 625.203125 1050.16015625 C626.32997477 1046.29038041 627.46561352 1042.42340067 628.609375 1038.55859375 C631.98463758 1027.06936767 634.84195202 1015.52795488 637.38232422 1003.82666016 C638.0137015 1000.93729804 638.66338414 998.05251012 639.31640625 995.16796875 C641.86895154 983.80166813 643.99826984 972.45388755 645.70458984 960.93164062 C646.08499996 958.44419858 646.53353659 955.97263534 647 953.5 C654.43658975 913.05970199 656.37187711 872.22678681 656.31567383 831.19262695 C656.31104179 827.52778857 656.31799225 823.86328211 656.33618164 820.19848633 C656.44953773 797.1418779 655.7213431 774.41913103 653.3568573 751.47789001 C652.94272535 747.44180789 652.57211223 743.40279835 652.21142578 739.36164856 C651.24399108 728.84128488 649.67965615 718.42670847 648 708 C647.73896484 706.34846924 647.73896484 706.34846924 647.47265625 704.66357422 C643.63507606 680.45042817 639.2884646 656.33590355 632.73339844 632.6953125 C631.87007626 629.5225173 631.04775258 626.34020817 630.2265625 623.15625 C623.79032008 598.33051192 616.10344229 573.98521978 607 550 C606.62842773 549.02095703 606.25685547 548.04191406 605.87402344 547.03320312 C601.94748315 536.74045857 597.95669774 526.53795532 593.20703125 516.59375 C592.12785477 514.27474293 591.18645144 511.96474601 590.3125 509.5625 C589.10583021 506.0851243 589.10583021 506.0851243 587.625 503.25 C586.20117879 500.40235759 585.00130635 497.5751482 583.8125 494.625 C575.74353547 475.10098761 564.9564172 456.60570699 555 438 C554.34 438 553.68 438 553 438 C552.690625 436.8553125 552.690625 436.8553125 552.375 435.6875 C550.44026741 430.49889897 547.74545708 425.79931047 545 421 C544.48308594 420.06285156 543.96617188 419.12570312 543.43359375 418.16015625 C542.96050781 417.44730469 542.48742188 416.73445313 542 416 C541.34 416 540.68 416 540 416 C539.82791016 415.15115234 539.82791016 415.15115234 539.65234375 414.28515625 C538.9269873 411.74423695 537.87029081 409.73098478 536.5625 407.4375 C535.91474609 406.29087891 535.91474609 406.29087891 535.25390625 405.12109375 C534.22469183 403.38008618 533.12186516 401.68279774 532 400 C531.34 400 530.68 400 530 400 C529.90332031 399.45214844 529.80664062 398.90429688 529.70703125 398.33984375 C528.81280759 395.38050689 527.36716314 393.15572725 525.6875 390.5625 C524.79611328 389.17224609 524.79611328 389.17224609 523.88671875 387.75390625 C522.05444045 385.00201785 522.05444045 385.00201785 520.03125 382.5625 C517.72567619 379.65392996 515.77174492 376.58200496 513.8125 373.4375 C507.92109859 364.13134508 501.22295054 355.48871026 494.41015625 346.83984375 C493.20961008 345.27348019 492.0947154 343.64207311 491 342 C490.34 342 489.68 342 489 342 C488.66162109 340.95199219 488.66162109 340.95199219 488.31640625 339.8828125 C486.71378537 336.37321544 484.46612016 333.73737733 481.9375 330.875 C480.94576233 329.72990422 479.95489115 328.5840575 478.96484375 327.4375 C478.46839355 326.86515625 477.97194336 326.2928125 477.46044922 325.703125 C474.52334035 322.27797096 471.70867133 318.75302294 468.875 315.2421875 C466.57483152 312.48587911 466.57483152 312.48587911 464 310 C463.34 310 462.68 310 462 310 C461.78085938 309.29875 461.56171875 308.5975 461.3359375 307.875 C459.6795339 304.31034195 457.320196 301.79381635 454.625 299 C453.5427272 297.85439481 452.46070338 296.70855437 451.37890625 295.5625 C450.82219238 294.97726562 450.26547852 294.39203125 449.69189453 293.7890625 C446.45335034 290.364524 443.28280363 286.87690346 440.09814453 283.40234375 C437.87683496 280.99059216 435.62680267 278.6278844 433.3046875 276.3125 C431 274 431 274 428.5625 271 C425.93248768 267.92096119 423.1374966 265.54921599 420 263 C418.31963915 261.34714097 416.65425715 259.67898446 415 258 C409.83135814 252.7554727 404.66928141 247.58472917 399.078125 242.7890625 C396.60669166 240.66139997 394.17678486 238.49092968 391.75 236.3125 C390.53570313 235.22388672 390.53570313 235.22388672 389.296875 234.11328125 C387.819551 232.75404267 386.37096156 231.36252618 384.9609375 229.93359375 C383.02632611 228.02595901 381.03667311 226.39319063 378.875 224.75 C378.09769531 224.151875 377.32039063 223.55375 376.51953125 222.9375 C375.68808594 222.298125 374.85664062 221.65875 374 221 C372.18259492 219.58963144 370.37002886 218.17300391 368.5625 216.75 C367.32693359 215.78320312 367.32693359 215.78320312 366.06640625 214.796875 C364 213 364 213 362 210 C360.34222516 208.98532747 358.67400654 207.98766386 357 207 C355.05919208 205.42512654 353.1439615 203.81841129 351.25 202.1875 C343.47743042 194.70382579 343.47743042 194.70382579 334 191 C334 190.34 334 189.68 334 189 C332.68021381 188.06225718 331.3491702 187.13822274 329.98046875 186.2734375 C326.73344771 184.18560938 323.61300245 181.91664787 320.46484375 179.68359375 C318.01233275 177.96529784 318.01233275 177.96529784 315.37890625 176.47265625 C313.20110066 175.12449089 311.78518645 173.79906095 310 172 C308.31563624 170.8596029 306.60405676 169.75892406 304.875 168.6875 C300.43311385 165.91500798 296.08165047 163.04750837 291.77734375 160.06640625 C290.05962255 158.82850141 290.05962255 158.82850141 288 159 C288 158.34 288 157.68 288 157 C287.3709375 156.69707031 286.741875 156.39414062 286.09375 156.08203125 C281.3248283 153.74784518 276.76264363 151.30061721 272.296875 148.43359375 C263.72697007 143.0846905 254.77558187 138.29215195 245.96069336 133.35864258 C242.78160236 131.57708044 239.61315869 129.78245936 236.47265625 127.93359375 C228.21925684 123.10256614 219.79992636 118.94238191 211.109375 114.96582031 C207.75361405 113.4293168 204.40799362 111.87120073 201.0625 110.3125 C200.43867432 110.02310547 199.81484863 109.73371094 199.17211914 109.43554688 C195.74261577 107.83850797 192.35986548 106.17555232 189 104.4375 C184.36728039 102.08656766 179.57949817 100.19029569 174.74487305 98.30493164 C170.520263 96.64581399 166.41305635 94.82694349 162.3125 92.875 C157.28488688 90.50942773 152.25059257 88.61323791 146.94921875 86.95703125 C141.78439203 85.28102788 136.73990601 83.30630067 131.703125 81.28125 C124.257671 78.29296669 117.01262702 75.56447683 109.16796875 73.80078125 C105.13922271 72.78241758 101.24400648 71.4648614 97.3125 70.125 C83.18151549 65.34204671 69.00726132 61.40910691 54.46459961 58.0546875 C53.43987549 57.81621094 52.41515137 57.57773438 51.359375 57.33203125 C49.98990723 57.01842651 49.98990723 57.01842651 48.59277344 56.69848633 C46 56 46 56 43.45288086 54.97265625 C41.06098485 54.0241827 38.92808164 53.51666496 36.39453125 53.10546875 C35.06373535 52.88310547 35.06373535 52.88310547 33.70605469 52.65625 C32.75118164 52.5015625 31.79630859 52.346875 30.8125 52.1875 C23.34229573 50.93889169 15.89850053 49.61244402 8.46948242 48.13769531 C-19.84891165 42.52856167 -48.25179442 39.35366243 -77 37 C-77.76590454 36.93727905 -78.53180908 36.87455811 -79.32092285 36.80993652 C-144.32357822 31.57455843 -211.46813984 34.46392045 -275.50390625 47.14453125 Z " fill="#BCBDBF" transform="translate(1160,196)"/>
<path d="M0 0 C3.31626747 0.00646603 6.63248041 -0.00889962 9.94873047 -0.01953125 C48.40189353 -0.04078337 94.73290909 4.84799299 128.35107422 25.23828125 C130.30977626 26.28399487 132.0856696 26.80973509 134.25341797 27.25390625 C134.25341797 27.91390625 134.25341797 28.57390625 134.25341797 29.25390625 C135.39810547 29.56328125 135.39810547 29.56328125 136.56591797 29.87890625 C145.49557703 33.20860963 153.54453848 38.58783998 161.60107422 43.6171875 C164.10596231 45.21731201 164.10596231 45.21731201 166.25341797 46.25390625 C166.25341797 46.91390625 166.25341797 47.57390625 166.25341797 48.25390625 C166.80771484 48.50914062 167.36201172 48.764375 167.93310547 49.02734375 C176.18769461 53.39088077 184.40525347 59.92566747 191.25341797 66.25390625 C191.25341797 66.91390625 191.25341797 67.57390625 191.25341797 68.25390625 C191.81029297 68.48078125 192.36716797 68.70765625 192.94091797 68.94140625 C195.90581768 70.62418717 197.86993297 72.81499137 200.25341797 75.25390625 C201.37113413 76.20007845 202.49659905 77.13715 203.62841797 78.06640625 C209.78634171 83.29131125 214.6545873 89.64034435 219.47998047 96.078125 C221.27522579 98.35873804 221.27522579 98.35873804 223.64013672 100.62109375 C226.48972116 103.49197553 228.97070103 106.49619372 231.44091797 109.69140625 C231.87855469 110.23861328 232.31619141 110.78582031 232.76708984 111.34960938 C235.47100474 114.83786599 237.10397086 117.9964569 238.25341797 122.25390625 C238.91341797 122.25390625 239.57341797 122.25390625 240.25341797 122.25390625 C247.03202483 130.9967685 251.99740947 141.55439352 257.25341797 151.25390625 C257.69685547 152.07084961 258.14029297 152.88779297 258.59716797 153.72949219 C263.14304661 162.13738546 267.60842527 170.49518349 271.12060547 179.3984375 C272.37365255 182.55698033 273.75039716 185.64794836 275.12841797 188.75390625 C282.63277223 206.21893692 288.30840622 224.52762927 292.71044922 243.00048828 C293.2711511 245.32750195 293.85605715 247.64770154 294.44091797 249.96875 C297.22780504 261.31050261 299.23057006 272.70958272 300.94091797 284.25390625 C301.04346893 284.93563904 301.1460199 285.61737183 301.25167847 286.31976318 C304.4992453 308.1015759 305.65981895 329.68085992 305.63097763 351.70160294 C305.62838407 353.78108451 305.62904021 355.86055018 305.62979126 357.94003296 C305.6158838 391.20597587 302.43474517 423.58426543 295.44091797 456.12890625 C295.1844751 457.32290039 294.92803223 458.51689453 294.66381836 459.74707031 C292.55436197 469.33188467 289.9723012 478.69011465 286.96484375 488.02832031 C286.25758554 490.24086864 285.57757087 492.46004881 284.90576172 494.68359375 C282.68015672 502.02103018 280.23129306 509.18298473 277.25341797 516.25390625 C276.66796725 517.73223614 276.08473956 519.2114478 275.50341797 520.69140625 C274.75411641 522.54585528 274.00398951 524.39997087 273.25341797 526.25390625 C272.99608887 526.90472168 272.73875977 527.55553711 272.47363281 528.22607422 C267.34797606 541.14874921 261.1918291 553.21482531 254.25341797 565.25390625 C253.88764648 565.89038086 253.521875 566.52685547 253.14501953 567.18261719 C251.20327946 570.5529366 249.23162993 573.90492242 247.25341797 577.25390625 C245.91141226 579.58244592 244.58111095 581.9171666 243.25341797 584.25390625 C242.59341797 584.25390625 241.93341797 584.25390625 241.25341797 584.25390625 C240.88023437 585.30384766 240.88023437 585.30384766 240.49951172 586.375 C239.08630901 589.63998556 237.31356906 592.37386991 235.31591797 595.31640625 C234.62626953 596.33863281 233.93662109 597.36085938 233.22607422 598.4140625 C232.57509766 599.35121094 231.92412109 600.28835938 231.25341797 601.25390625 C230.71587891 602.03636719 230.17833984 602.81882812 229.62451172 603.625 C229.17205078 604.16253906 228.71958984 604.70007813 228.25341797 605.25390625 C227.59341797 605.25390625 226.93341797 605.25390625 226.25341797 605.25390625 C225.96982422 605.83269531 225.68623047 606.41148437 225.39404297 607.0078125 C222.57939962 612.55034648 219.847572 617.10154038 214.83544922 620.93359375 C213.02831543 622.44176961 211.58837386 624.08393439 210.06591797 625.87890625 C203.10719711 633.9999629 195.51885717 641.26902981 187.15185547 647.921875 C185.03727346 649.62323007 182.96908157 651.34310051 180.91748047 653.1171875 C180.06549072 653.85195312 180.06549072 653.85195312 179.19628906 654.6015625 C178.10431176 655.54645201 177.01581579 656.4953871 175.93164062 657.44921875 C172.26163406 660.60992304 168.50256013 662.92663757 164.25341797 665.25390625 C163.1424304 665.99376478 162.03792457 666.74347181 160.94091797 667.50390625 C158.25341797 669.25390625 158.25341797 669.25390625 156.25341797 669.25390625 C156.25341797 669.91390625 156.25341797 670.57390625 156.25341797 671.25390625 C155.38458984 671.7128125 154.51576172 672.17171875 153.62060547 672.64453125 C152.46818359 673.258125 151.31576172 673.87171875 150.12841797 674.50390625 C148.99146484 675.1071875 147.85451172 675.71046875 146.68310547 676.33203125 C143.24807499 678.19507554 143.24807499 678.19507554 140.12451172 680.36328125 C137.56328632 682.04985689 135.29931551 683.1920803 132.44091797 684.25390625 C129.2918233 685.43547611 126.21315008 686.70792901 123.14794922 688.08984375 C117.74370402 690.508668 112.26103744 692.70770278 106.75341797 694.87890625 C105.77244141 695.27335937 104.79146484 695.6678125 103.78076172 696.07421875 C98.64569772 698.09815876 93.67049851 699.76761172 88.25585938 700.84619141 C85.35165514 701.43751317 82.53539628 702.30055035 79.69091797 703.12890625 C73.033056 704.96669913 66.31146046 706.23236864 59.50341797 707.37890625 C58.577146 707.5372998 57.65087402 707.69569336 56.6965332 707.85888672 C39.39521957 710.668968 22.33034657 711.62955591 4.81591797 711.56640625 C3.23810547 711.56367203 3.23810547 711.56367203 1.62841797 711.56088257 C-34.09311398 711.45690701 -69.09208642 706.60653335 -102.48876953 693.48828125 C-104.92554586 692.56499429 -107.20641656 691.79002158 -109.74658203 691.25390625 C-109.74658203 690.59390625 -109.74658203 689.93390625 -109.74658203 689.25390625 C-110.57802734 689.16496094 -111.40947266 689.07601562 -112.26611328 688.984375 C-116.41929058 688.1127205 -119.6955386 686.51908143 -123.43408203 684.56640625 C-124.13815186 684.20554932 -124.84222168 683.84469238 -125.56762695 683.47290039 C-127.63255291 682.40969322 -129.69047854 681.33405696 -131.74658203 680.25390625 C-133.28185547 679.45339844 -133.28185547 679.45339844 -134.84814453 678.63671875 C-141.36145598 675.164204 -147.56700804 671.28534261 -153.74658203 667.25390625 C-154.41431641 666.83753906 -155.08205078 666.42117188 -155.77001953 665.9921875 C-157.13081705 665.13290456 -158.44653114 664.20259204 -159.74658203 663.25390625 C-159.74658203 662.59390625 -159.74658203 661.93390625 -159.74658203 661.25390625 C-160.5915625 661.11855469 -160.5915625 661.11855469 -161.45361328 660.98046875 C-164.36487686 660.05799 -166.09122418 658.58317415 -168.43408203 656.62890625 C-172.58514601 653.19949826 -176.80955904 649.91293719 -181.12939453 646.69921875 C-181.66306641 646.22226563 -182.19673828 645.7453125 -182.74658203 645.25390625 C-182.74658203 644.59390625 -182.74658203 643.93390625 -182.74658203 643.25390625 C-183.32690186 642.99883301 -183.90722168 642.74375977 -184.50512695 642.48095703 C-186.97923921 641.12654159 -188.62379206 639.61978359 -190.60986328 637.62109375 C-191.33238281 636.89664063 -192.05490234 636.1721875 -192.79931641 635.42578125 C-193.54503906 634.6678125 -194.29076172 633.90984375 -195.05908203 633.12890625 C-196.16026367 632.02675781 -196.16026367 632.02675781 -197.28369141 630.90234375 C-211.15209643 616.92318837 -211.15209643 616.92318837 -212.74658203 611.25390625 C-213.40658203 611.25390625 -214.06658203 611.25390625 -214.74658203 611.25390625 C-216.37873118 609.37299088 -217.88272755 607.49417825 -219.37158203 605.50390625 C-220.0316626 604.63221802 -220.0316626 604.63221802 -220.70507812 603.74291992 C-232.74658203 587.68685765 -232.74658203 587.68685765 -232.74658203 584.25390625 C-233.73658203 583.92390625 -234.72658203 583.59390625 -235.74658203 583.25390625 C-236.81428219 581.28921381 -237.7961984 579.27795441 -238.74658203 577.25390625 C-239.57646985 575.78893514 -240.42158634 574.33253573 -241.27783203 572.8828125 C-251.95440667 554.69590718 -261.0765772 535.89755907 -268.74658203 516.25390625 C-268.99714355 515.62564941 -269.24770508 514.99739258 -269.50585938 514.35009766 C-280.55085032 486.61935791 -288.12176011 457.05403175 -292.27734375 427.51855469 C-292.59770325 425.28970594 -292.93880933 423.06376557 -293.29785156 420.84082031 C-296.60490552 400.1710342 -297.12368533 379.57968569 -297.12174988 358.6887207 C-297.12158461 356.59903357 -297.12430656 354.50936273 -297.1270752 352.41967773 C-297.13794469 328.63522271 -295.72167111 305.31097446 -291.99658203 281.81640625 C-291.80199905 280.56970657 -291.80199905 280.56970657 -291.60348511 279.29782104 C-289.37293112 265.0861024 -286.56766098 251.13193395 -282.74658203 237.25390625 C-282.32675049 235.70630615 -282.32675049 235.70630615 -281.8984375 234.12744141 C-278.8713327 223.05848031 -275.61652397 212.22596281 -271.15283203 201.6484375 C-269.67310461 198.07653991 -268.38680731 194.46935851 -267.12158203 190.81640625 C-265.5697093 186.39877493 -263.88575802 182.26117212 -261.68798828 178.1328125 C-260.67365989 176.10836455 -259.90497578 174.0656786 -259.12158203 171.94140625 C-250.72696894 150.49217831 -237.49296037 129.59157496 -223.74658203 111.25390625 C-223.20517578 110.52816406 -222.66376953 109.80242187 -222.10595703 109.0546875 C-217.05820783 102.42645371 -211.59035848 96.15359384 -206.13427734 89.86181641 C-204.90923988 88.44237645 -203.69792381 87.01111925 -202.48876953 85.578125 C-201.87259766 84.85238281 -201.25642578 84.12664062 -200.62158203 83.37890625 C-200.10337891 82.76273437 -199.58517578 82.1465625 -199.05126953 81.51171875 C-197.74658203 80.25390625 -197.74658203 80.25390625 -195.74658203 80.25390625 C-195.53517578 79.70863281 -195.32376953 79.16335938 -195.10595703 78.6015625 C-193.25462554 75.40429173 -190.71017494 73.14295863 -187.99658203 70.69140625 C-187.13637451 69.90685059 -187.13637451 69.90685059 -186.25878906 69.10644531 C-180.01531261 63.48410083 -173.44288043 58.32154079 -166.74658203 53.25390625 C-165.86873047 52.57972656 -164.99087891 51.90554688 -164.08642578 51.2109375 C-158.30375926 46.87617202 -152.27536632 42.94870473 -146.18408203 39.06640625 C-145.40460205 38.5669751 -144.62512207 38.06754395 -143.82202148 37.55297852 C-129.49135496 28.52740728 -129.49135496 28.52740728 -121.74658203 27.25390625 C-121.74658203 26.59390625 -121.74658203 25.93390625 -121.74658203 25.25390625 C-111.2416598 20.37662093 -100.33269591 16.05830689 -89.15283203 12.9921875 C-86.52760871 12.22351315 -86.52760871 12.22351315 -83.20361328 10.83203125 C-77.91864302 8.82694183 -72.46537995 7.79073004 -66.93408203 6.69140625 C-65.40944336 6.37913086 -65.40944336 6.37913086 -63.85400391 6.06054688 C-60.82086566 5.44386676 -57.78469944 4.84552648 -54.74658203 4.25390625 C-53.87211426 4.08004395 -52.99764648 3.90618164 -52.09667969 3.72705078 C-49.31898508 3.19477616 -46.53679624 2.71607207 -43.74658203 2.25390625 C-42.1628479 1.9767981 -42.1628479 1.9767981 -40.54711914 1.6940918 C-27.10173893 -0.34220982 -13.56785306 -0.04629538 0 0 Z " fill="#BCBDBF" transform="translate(1019.74658203125,407.74609375)"/>
<path d="M0 0 C0.33 0.99 0.66 1.98 1 3 C-1.31 5.31 -3.62 7.62 -6 10 C-6.99 9.67 -7.98 9.34 -9 9 C-8.51789063 8.60167969 -8.03578125 8.20335937 -7.5390625 7.79296875 C-6.90742188 7.26316406 -6.27578125 6.73335938 -5.625 6.1875 C-4.99851562 5.66542969 -4.37203125 5.14335937 -3.7265625 4.60546875 C-1.7778952 2.91774261 -1.7778952 2.91774261 0 0 Z " fill="#C9CACC" transform="translate(425,436)"/>
<path d="M0 0 C0 5.66835575 -3.45324433 8.89323028 -7 13 C-7 9.89448334 -6.4606285 8.64738916 -5 6 C-4.34 6 -3.68 6 -3 6 C-2.690625 5.195625 -2.38125 4.39125 -2.0625 3.5625 C-1 1 -1 1 0 0 Z " fill="#CACBCD" transform="translate(347,528)"/>
<path d="M0 0 C0.66 0.33 1.32 0.66 2 1 C-2.95912807 6.13623978 -2.95912807 6.13623978 -6 8 C-6.99 7.67 -7.98 7.34 -9 7 C-6.03 4.69 -3.06 2.38 0 0 Z " fill="#C3C3C4" transform="translate(528,347)"/>
<path d="M0 0 C1.32 1.32 2.64 2.64 4 4 C3.67 4.66 3.34 5.32 3 6 C0.9375 6.625 0.9375 6.625 -1 7 C-0.67 4.69 -0.34 2.38 0 0 Z " fill="#C4C5C7" transform="translate(370,1472)"/>
<path d="M0 0 C0.66 0.33 1.32 0.66 2 1 C1.34 2.32 0.68 3.64 0 5 C-1.98 5 -3.96 5 -6 5 C-4.06745228 2.9754262 -2.36841312 1.57894208 0 0 Z " fill="#C7C8C9" transform="translate(881,442)"/>
<path d="M0 0 C-0.99 1.485 -0.99 1.485 -2 3 C-2.66 3 -3.32 3 -4 3 C-4 2.34 -4 1.68 -4 1 C-5.98 1.33 -7.96 1.66 -10 2 C-6.80505194 -1.19494806 -4.22040044 -1.35655728 0 0 Z " fill="#CBCBCB" transform="translate(818,212)"/>
<path d="M0 0 C0.66 0.33 1.32 0.66 2 1 C1.34 2.32 0.68 3.64 0 5 C-0.66 5 -1.32 5 -2 5 C-2 4.34 -2 3.68 -2 3 C-2.66 2.67 -3.32 2.34 -4 2 C-2.125 0.9375 -2.125 0.9375 0 0 Z " fill="#C2C3C5" transform="translate(566,321)"/>
<path d="M0 0 C-3.90028225 2.60018816 -7.47434569 2.15085514 -12 2 C-7.89783794 -0.73477471 -4.73617773 -1.57872591 0 0 Z " fill="#D2D2D3" transform="translate(852,204)"/>
</svg>
